%TF.GenerationSoftware,KiCad,Pcbnew,(6.0.4)*%
%TF.CreationDate,2023-08-14T23:38:21+02:00*%
%TF.ProjectId,TeensyROM,5465656e-7379-4524-9f4d-2e6b69636164,rev?*%
%TF.SameCoordinates,Original*%
%TF.FileFunction,Soldermask,Top*%
%TF.FilePolarity,Negative*%
%FSLAX46Y46*%
G04 Gerber Fmt 4.6, Leading zero omitted, Abs format (unit mm)*
G04 Created by KiCad (PCBNEW (6.0.4)) date 2023-08-14 23:38:21*
%MOMM*%
%LPD*%
G01*
G04 APERTURE LIST*
G04 Aperture macros list*
%AMRoundRect*
0 Rectangle with rounded corners*
0 $1 Rounding radius*
0 $2 $3 $4 $5 $6 $7 $8 $9 X,Y pos of 4 corners*
0 Add a 4 corners polygon primitive as box body*
4,1,4,$2,$3,$4,$5,$6,$7,$8,$9,$2,$3,0*
0 Add four circle primitives for the rounded corners*
1,1,$1+$1,$2,$3*
1,1,$1+$1,$4,$5*
1,1,$1+$1,$6,$7*
1,1,$1+$1,$8,$9*
0 Add four rect primitives between the rounded corners*
20,1,$1+$1,$2,$3,$4,$5,0*
20,1,$1+$1,$4,$5,$6,$7,0*
20,1,$1+$1,$6,$7,$8,$9,0*
20,1,$1+$1,$8,$9,$2,$3,0*%
G04 Aperture macros list end*
%ADD10R,1.800000X1.800000*%
%ADD11C,1.800000*%
%ADD12R,1.700000X1.700000*%
%ADD13O,1.700000X1.700000*%
%ADD14C,3.316000*%
%ADD15C,1.428000*%
%ADD16R,1.428000X1.428000*%
%ADD17RoundRect,0.150000X-0.150000X0.875000X-0.150000X-0.875000X0.150000X-0.875000X0.150000X0.875000X0*%
%ADD18RoundRect,0.150000X-0.150000X0.825000X-0.150000X-0.825000X0.150000X-0.825000X0.150000X0.825000X0*%
%ADD19C,1.600000*%
%ADD20R,1.600000X1.600000*%
%ADD21R,1.300000X1.300000*%
%ADD22C,1.300000*%
%ADD23C,2.000000*%
%ADD24C,3.251200*%
%ADD25C,1.524000*%
%ADD26C,1.676400*%
%ADD27C,2.235200*%
%ADD28RoundRect,0.250000X-0.475000X0.250000X-0.475000X-0.250000X0.475000X-0.250000X0.475000X0.250000X0*%
%ADD29RoundRect,0.250000X0.475000X-0.250000X0.475000X0.250000X-0.475000X0.250000X-0.475000X-0.250000X0*%
G04 APERTURE END LIST*
%TO.C,J1*%
G36*
X177304449Y-139301657D02*
G01*
X119304449Y-139301657D01*
X119304449Y-130301657D01*
X177304449Y-130301657D01*
X177304449Y-139301657D01*
G37*
%TD*%
D10*
%TO.C,D1*%
X164262566Y-74259229D03*
D11*
X166802566Y-74259229D03*
%TD*%
D12*
%TO.C,J4*%
X177051100Y-86827600D03*
D13*
X177051100Y-84287600D03*
X177051100Y-81747600D03*
%TD*%
D14*
%TO.C,J2*%
X147893176Y-77697037D03*
X161033176Y-77697037D03*
D15*
X150963176Y-80407037D03*
X153463176Y-80407037D03*
X155463176Y-80407037D03*
D16*
X157963176Y-80407037D03*
%TD*%
D17*
%TO.C,U5*%
X171361100Y-115593600D03*
X170091100Y-115593600D03*
X168821100Y-115593600D03*
X167551100Y-115593600D03*
X166281100Y-115593600D03*
X165011100Y-115593600D03*
X163741100Y-115593600D03*
X162471100Y-115593600D03*
X161201100Y-115593600D03*
X159931100Y-115593600D03*
X159931100Y-124893600D03*
X161201100Y-124893600D03*
X162471100Y-124893600D03*
X163741100Y-124893600D03*
X165011100Y-124893600D03*
X166281100Y-124893600D03*
X167551100Y-124893600D03*
X168821100Y-124893600D03*
X170091100Y-124893600D03*
X171361100Y-124893600D03*
%TD*%
%TO.C,U4*%
X147866100Y-115593600D03*
X146596100Y-115593600D03*
X145326100Y-115593600D03*
X144056100Y-115593600D03*
X142786100Y-115593600D03*
X141516100Y-115593600D03*
X140246100Y-115593600D03*
X138976100Y-115593600D03*
X137706100Y-115593600D03*
X136436100Y-115593600D03*
X136436100Y-124893600D03*
X137706100Y-124893600D03*
X138976100Y-124893600D03*
X140246100Y-124893600D03*
X141516100Y-124893600D03*
X142786100Y-124893600D03*
X144056100Y-124893600D03*
X145326100Y-124893600D03*
X146596100Y-124893600D03*
X147866100Y-124893600D03*
%TD*%
D18*
%TO.C,U6*%
X132626100Y-115863600D03*
X131356100Y-115863600D03*
X130086100Y-115863600D03*
X128816100Y-115863600D03*
X127546100Y-115863600D03*
X126276100Y-115863600D03*
X125006100Y-115863600D03*
X125006100Y-120813600D03*
X126276100Y-120813600D03*
X127546100Y-120813600D03*
X128816100Y-120813600D03*
X130086100Y-120813600D03*
X131356100Y-120813600D03*
X132626100Y-120813600D03*
%TD*%
D19*
%TO.C,U1*%
X121833358Y-93557900D03*
X135752558Y-103207100D03*
X133212558Y-103207100D03*
X130672558Y-103207100D03*
X128132558Y-103207100D03*
D20*
X125592558Y-103207100D03*
D19*
X119293358Y-91017900D03*
X121833358Y-91017900D03*
X124373358Y-91017900D03*
X126913358Y-91017900D03*
X129453358Y-91017900D03*
X131993358Y-91017900D03*
X134533358Y-91017900D03*
X137073358Y-91017900D03*
X139613358Y-91017900D03*
X142153358Y-91017900D03*
X144693358Y-91017900D03*
X147233358Y-91017900D03*
X149773358Y-91017900D03*
X152313358Y-91017900D03*
D20*
X119293358Y-106257900D03*
D19*
X121833358Y-106257900D03*
X124373358Y-106257900D03*
X126913358Y-106257900D03*
X129453358Y-106257900D03*
X131993358Y-106257900D03*
X134533358Y-106257900D03*
X137073358Y-106257900D03*
X139613358Y-106257900D03*
X142153358Y-106257900D03*
X144693358Y-106257900D03*
X147233358Y-106257900D03*
X149773358Y-106257900D03*
X154853358Y-91017900D03*
X157393358Y-91017900D03*
X159933358Y-91017900D03*
X162473358Y-91017900D03*
X165013358Y-91017900D03*
X167553358Y-91017900D03*
X170093358Y-91017900D03*
X172633358Y-91017900D03*
X175173358Y-91017900D03*
X177713358Y-91017900D03*
X177713358Y-106257900D03*
X175173358Y-106257900D03*
X172633358Y-106257900D03*
X170093358Y-106257900D03*
X152313358Y-106257900D03*
X154853358Y-106257900D03*
X157393358Y-106257900D03*
X167553358Y-106257900D03*
X165013358Y-106257900D03*
X162473358Y-106257900D03*
X159933358Y-106257900D03*
D21*
X132263358Y-93456300D03*
D22*
X134263358Y-93456300D03*
X132263358Y-95456300D03*
X134263358Y-95456300D03*
X134263358Y-97456300D03*
X132263358Y-97456300D03*
D19*
X165013358Y-103717900D03*
X165013358Y-101177900D03*
X165013358Y-98637900D03*
X165013358Y-96097900D03*
X165013358Y-93557900D03*
D22*
X120023358Y-99907900D03*
X120023358Y-97367900D03*
%TD*%
D20*
%TO.C,C1*%
X121450100Y-79603600D03*
D19*
X121450100Y-77103600D03*
%TD*%
D23*
%TO.C,S1*%
X170533649Y-72824288D03*
X177033649Y-72824288D03*
X177033649Y-77324288D03*
X170533649Y-77324288D03*
%TD*%
D24*
%TO.C,J3*%
X127546100Y-78282800D03*
X138976100Y-78282800D03*
D25*
X137706100Y-84658200D03*
X136436100Y-87198200D03*
X135166100Y-84658200D03*
X133896100Y-87198200D03*
X132626100Y-84658200D03*
X131356100Y-87198200D03*
X130086100Y-84658200D03*
X128816100Y-87198200D03*
D26*
X139585700Y-73202800D03*
X137045700Y-74930000D03*
X129476500Y-73228200D03*
X126936500Y-74930000D03*
D27*
X141135100Y-81356200D03*
X125387100Y-81356200D03*
%TD*%
D28*
%TO.C,C4*%
X157518100Y-118023600D03*
X157518100Y-119923600D03*
%TD*%
D29*
%TO.C,C3*%
X122847100Y-120304600D03*
X122847100Y-118404600D03*
%TD*%
D28*
%TO.C,C5*%
X150533100Y-117515600D03*
X150533100Y-119415600D03*
%TD*%
D20*
%TO.C,C2*%
X121450100Y-85953600D03*
D19*
X121450100Y-83453600D03*
%TD*%
M02*
