%TF.GenerationSoftware,KiCad,Pcbnew,(6.0.4)*%
%TF.CreationDate,2023-08-14T23:38:21+02:00*%
%TF.ProjectId,TeensyROM,5465656e-7379-4524-9f4d-2e6b69636164,rev?*%
%TF.SameCoordinates,Original*%
%TF.FileFunction,Legend,Bot*%
%TF.FilePolarity,Positive*%
%FSLAX46Y46*%
G04 Gerber Fmt 4.6, Leading zero omitted, Abs format (unit mm)*
G04 Created by KiCad (PCBNEW (6.0.4)) date 2023-08-14 23:38:21*
%MOMM*%
%LPD*%
G01*
G04 APERTURE LIST*
G04 Aperture macros list*
%AMRoundRect*
0 Rectangle with rounded corners*
0 $1 Rounding radius*
0 $2 $3 $4 $5 $6 $7 $8 $9 X,Y pos of 4 corners*
0 Add a 4 corners polygon primitive as box body*
4,1,4,$2,$3,$4,$5,$6,$7,$8,$9,$2,$3,0*
0 Add four circle primitives for the rounded corners*
1,1,$1+$1,$2,$3*
1,1,$1+$1,$4,$5*
1,1,$1+$1,$6,$7*
1,1,$1+$1,$8,$9*
0 Add four rect primitives between the rounded corners*
20,1,$1+$1,$2,$3,$4,$5,0*
20,1,$1+$1,$4,$5,$6,$7,0*
20,1,$1+$1,$6,$7,$8,$9,0*
20,1,$1+$1,$8,$9,$2,$3,0*%
G04 Aperture macros list end*
%ADD10C,0.213360*%
%ADD11C,0.101600*%
%ADD12C,0.150000*%
%ADD13C,0.116840*%
%ADD14C,0.120000*%
%ADD15R,1.800000X1.800000*%
%ADD16C,1.800000*%
%ADD17R,1.700000X1.700000*%
%ADD18O,1.700000X1.700000*%
%ADD19C,3.316000*%
%ADD20C,1.428000*%
%ADD21R,1.428000X1.428000*%
%ADD22RoundRect,0.150000X-0.150000X0.875000X-0.150000X-0.875000X0.150000X-0.875000X0.150000X0.875000X0*%
%ADD23RoundRect,0.250000X0.425000X-0.450000X0.425000X0.450000X-0.425000X0.450000X-0.425000X-0.450000X0*%
%ADD24RoundRect,0.250000X-0.450000X0.262500X-0.450000X-0.262500X0.450000X-0.262500X0.450000X0.262500X0*%
%ADD25C,1.600000*%
%ADD26R,1.600000X1.600000*%
%ADD27R,1.300000X1.300000*%
%ADD28C,1.300000*%
%ADD29C,2.000000*%
%ADD30C,3.251200*%
%ADD31C,1.524000*%
%ADD32C,1.676400*%
%ADD33C,2.235200*%
%ADD34RoundRect,0.250000X-0.475000X0.250000X-0.475000X-0.250000X0.475000X-0.250000X0.475000X0.250000X0*%
%ADD35RoundRect,0.250000X0.475000X-0.250000X0.475000X0.250000X-0.475000X0.250000X-0.475000X-0.250000X0*%
%ADD36RoundRect,0.063500X-0.750000X0.650000X-0.750000X-0.650000X0.750000X-0.650000X0.750000X0.650000X0*%
G04 APERTURE END LIST*
D10*
X170074336Y-108956450D02*
X170595882Y-108956450D01*
X170595882Y-109776023D02*
X170595882Y-108211383D01*
X169850816Y-108211383D01*
X169403776Y-108211383D02*
X168360682Y-108211383D01*
X169403776Y-109776023D01*
X168360682Y-109776023D01*
X167764629Y-109627010D02*
X167690122Y-109701516D01*
X167764629Y-109776023D01*
X167839136Y-109701516D01*
X167764629Y-109627010D01*
X167764629Y-109776023D01*
X167764629Y-108807436D02*
X167690122Y-108881943D01*
X167764629Y-108956450D01*
X167839136Y-108881943D01*
X167764629Y-108807436D01*
X167764629Y-108956450D01*
X165007882Y-108285890D02*
X165156896Y-108211383D01*
X165380416Y-108211383D01*
X165603936Y-108285890D01*
X165752949Y-108434903D01*
X165827456Y-108583916D01*
X165901962Y-108881943D01*
X165901962Y-109105463D01*
X165827456Y-109403490D01*
X165752949Y-109552503D01*
X165603936Y-109701516D01*
X165380416Y-109776023D01*
X165231402Y-109776023D01*
X165007882Y-109701516D01*
X164933376Y-109627010D01*
X164933376Y-109105463D01*
X165231402Y-109105463D01*
X163666762Y-109701516D02*
X163815776Y-109776023D01*
X164113802Y-109776023D01*
X164262816Y-109701516D01*
X164337322Y-109552503D01*
X164337322Y-108956450D01*
X164262816Y-108807436D01*
X164113802Y-108732930D01*
X163815776Y-108732930D01*
X163666762Y-108807436D01*
X163592256Y-108956450D01*
X163592256Y-109105463D01*
X164337322Y-109254476D01*
X163145216Y-108732930D02*
X162549162Y-108732930D01*
X162921696Y-108211383D02*
X162921696Y-109552503D01*
X162847189Y-109701516D01*
X162698176Y-109776023D01*
X162549162Y-109776023D01*
X162251136Y-108732930D02*
X161655082Y-108732930D01*
X162027616Y-108211383D02*
X162027616Y-109552503D01*
X161953109Y-109701516D01*
X161804096Y-109776023D01*
X161655082Y-109776023D01*
X161133536Y-109776023D02*
X161133536Y-108732930D01*
X161133536Y-108211383D02*
X161208042Y-108285890D01*
X161133536Y-108360396D01*
X161059029Y-108285890D01*
X161133536Y-108211383D01*
X161133536Y-108360396D01*
X160388469Y-108732930D02*
X160388469Y-109776023D01*
X160388469Y-108881943D02*
X160313962Y-108807436D01*
X160164949Y-108732930D01*
X159941429Y-108732930D01*
X159792416Y-108807436D01*
X159717909Y-108956450D01*
X159717909Y-109776023D01*
X158898336Y-108211383D02*
X159047349Y-108509410D01*
X157259189Y-108732930D02*
X156663136Y-108732930D01*
X157035669Y-108211383D02*
X157035669Y-109552503D01*
X156961162Y-109701516D01*
X156812149Y-109776023D01*
X156663136Y-109776023D01*
X156141589Y-109776023D02*
X156141589Y-108732930D01*
X156141589Y-108211383D02*
X156216096Y-108285890D01*
X156141589Y-108360396D01*
X156067082Y-108285890D01*
X156141589Y-108211383D01*
X156141589Y-108360396D01*
X155396522Y-109776023D02*
X155396522Y-108732930D01*
X155396522Y-109030956D02*
X155322016Y-108881943D01*
X155247509Y-108807436D01*
X155098496Y-108732930D01*
X154949482Y-108732930D01*
X153831882Y-109701516D02*
X153980896Y-109776023D01*
X154278922Y-109776023D01*
X154427936Y-109701516D01*
X154502442Y-109552503D01*
X154502442Y-108956450D01*
X154427936Y-108807436D01*
X154278922Y-108732930D01*
X153980896Y-108732930D01*
X153831882Y-108807436D01*
X153757376Y-108956450D01*
X153757376Y-109105463D01*
X154502442Y-109254476D01*
X152416256Y-109776023D02*
X152416256Y-108211383D01*
X152416256Y-109701516D02*
X152565269Y-109776023D01*
X152863296Y-109776023D01*
X153012309Y-109701516D01*
X153086816Y-109627010D01*
X153161322Y-109477996D01*
X153161322Y-109030956D01*
X153086816Y-108881943D01*
X153012309Y-108807436D01*
X152863296Y-108732930D01*
X152565269Y-108732930D01*
X152416256Y-108807436D01*
X151447669Y-109627010D02*
X151373162Y-109701516D01*
X151447669Y-109776023D01*
X151522176Y-109701516D01*
X151447669Y-109627010D01*
X151447669Y-109776023D01*
X151745696Y-108285890D02*
X151596682Y-108211383D01*
X151224149Y-108211383D01*
X151075136Y-108285890D01*
X151000629Y-108434903D01*
X151000629Y-108583916D01*
X151075136Y-108732930D01*
X151149642Y-108807436D01*
X151298656Y-108881943D01*
X151373162Y-108956450D01*
X151447669Y-109105463D01*
X151447669Y-109179970D01*
X170074336Y-111475520D02*
X169850816Y-111550026D01*
X169776309Y-111624533D01*
X169701802Y-111773546D01*
X169701802Y-111997066D01*
X169776309Y-112146080D01*
X169850816Y-112220586D01*
X169999829Y-112295093D01*
X170595882Y-112295093D01*
X170595882Y-110730453D01*
X170074336Y-110730453D01*
X169925322Y-110804960D01*
X169850816Y-110879466D01*
X169776309Y-111028480D01*
X169776309Y-111177493D01*
X169850816Y-111326506D01*
X169925322Y-111401013D01*
X170074336Y-111475520D01*
X170595882Y-111475520D01*
X169031242Y-112295093D02*
X169031242Y-111252000D01*
X169031242Y-110730453D02*
X169105749Y-110804960D01*
X169031242Y-110879466D01*
X168956736Y-110804960D01*
X169031242Y-110730453D01*
X169031242Y-110879466D01*
X168286176Y-112295093D02*
X168286176Y-111252000D01*
X168286176Y-111550026D02*
X168211669Y-111401013D01*
X168137162Y-111326506D01*
X167988149Y-111252000D01*
X167839136Y-111252000D01*
X166647029Y-112295093D02*
X166647029Y-110730453D01*
X166647029Y-112220586D02*
X166796042Y-112295093D01*
X167094069Y-112295093D01*
X167243082Y-112220586D01*
X167317589Y-112146080D01*
X167392096Y-111997066D01*
X167392096Y-111550026D01*
X167317589Y-111401013D01*
X167243082Y-111326506D01*
X167094069Y-111252000D01*
X166796042Y-111252000D01*
X166647029Y-111326506D01*
X165678442Y-112295093D02*
X165827456Y-112220586D01*
X165901962Y-112071573D01*
X165901962Y-110730453D01*
X164486336Y-112220586D02*
X164635349Y-112295093D01*
X164933376Y-112295093D01*
X165082389Y-112220586D01*
X165156896Y-112071573D01*
X165156896Y-111475520D01*
X165082389Y-111326506D01*
X164933376Y-111252000D01*
X164635349Y-111252000D01*
X164486336Y-111326506D01*
X164411829Y-111475520D01*
X164411829Y-111624533D01*
X165156896Y-111773546D01*
X163070709Y-111252000D02*
X163070709Y-112518613D01*
X163145216Y-112667626D01*
X163219722Y-112742133D01*
X163368736Y-112816640D01*
X163592256Y-112816640D01*
X163741269Y-112742133D01*
X163070709Y-112220586D02*
X163219722Y-112295093D01*
X163517749Y-112295093D01*
X163666762Y-112220586D01*
X163741269Y-112146080D01*
X163815776Y-111997066D01*
X163815776Y-111550026D01*
X163741269Y-111401013D01*
X163666762Y-111326506D01*
X163517749Y-111252000D01*
X163219722Y-111252000D01*
X163070709Y-111326506D01*
X162400149Y-112220586D02*
X162251136Y-112295093D01*
X161953109Y-112295093D01*
X161804096Y-112220586D01*
X161729589Y-112071573D01*
X161729589Y-111997066D01*
X161804096Y-111848053D01*
X161953109Y-111773546D01*
X162176629Y-111773546D01*
X162325642Y-111699040D01*
X162400149Y-111550026D01*
X162400149Y-111475520D01*
X162325642Y-111326506D01*
X162176629Y-111252000D01*
X161953109Y-111252000D01*
X161804096Y-111326506D01*
X161059029Y-112146080D02*
X160984522Y-112220586D01*
X161059029Y-112295093D01*
X161133536Y-112220586D01*
X161059029Y-112146080D01*
X161059029Y-112295093D01*
X161059029Y-111326506D02*
X160984522Y-111401013D01*
X161059029Y-111475520D01*
X161133536Y-111401013D01*
X161059029Y-111326506D01*
X161059029Y-111475520D01*
X159121856Y-112295093D02*
X159121856Y-110730453D01*
X158600309Y-111848053D01*
X158078762Y-110730453D01*
X158078762Y-112295093D01*
X157482709Y-111252000D02*
X157110176Y-112295093D01*
X156737642Y-111252000D02*
X157110176Y-112295093D01*
X157259189Y-112667626D01*
X157333696Y-112742133D01*
X157482709Y-112816640D01*
X155173002Y-111252000D02*
X154576949Y-111252000D01*
X154949482Y-112295093D02*
X154949482Y-110953973D01*
X154874975Y-110804960D01*
X154725962Y-110730453D01*
X154576949Y-110730453D01*
X154055402Y-112295093D02*
X154055402Y-111252000D01*
X154055402Y-110730453D02*
X154129909Y-110804960D01*
X154055402Y-110879466D01*
X153980895Y-110804960D01*
X154055402Y-110730453D01*
X154055402Y-110879466D01*
X153310335Y-111252000D02*
X153310335Y-112295093D01*
X153310335Y-111401013D02*
X153235829Y-111326506D01*
X153086815Y-111252000D01*
X152863295Y-111252000D01*
X152714282Y-111326506D01*
X152639775Y-111475520D01*
X152639775Y-112295093D01*
X151224149Y-111252000D02*
X151224149Y-112518613D01*
X151298655Y-112667626D01*
X151373162Y-112742133D01*
X151522175Y-112816640D01*
X151745695Y-112816640D01*
X151894709Y-112742133D01*
X151224149Y-112220586D02*
X151373162Y-112295093D01*
X151671189Y-112295093D01*
X151820202Y-112220586D01*
X151894709Y-112146080D01*
X151969215Y-111997066D01*
X151969215Y-111550026D01*
X151894709Y-111401013D01*
X151820202Y-111326506D01*
X151671189Y-111252000D01*
X151373162Y-111252000D01*
X151224149Y-111326506D01*
X149883029Y-112220586D02*
X150032042Y-112295093D01*
X150330069Y-112295093D01*
X150479082Y-112220586D01*
X150553589Y-112071573D01*
X150553589Y-111475520D01*
X150479082Y-111326506D01*
X150330069Y-111252000D01*
X150032042Y-111252000D01*
X149883029Y-111326506D01*
X149808522Y-111475520D01*
X149808522Y-111624533D01*
X150553589Y-111773546D01*
X149137962Y-112295093D02*
X149137962Y-111252000D01*
X149137962Y-111550026D02*
X149063455Y-111401013D01*
X148988949Y-111326506D01*
X148839935Y-111252000D01*
X148690922Y-111252000D01*
X148243882Y-112220586D02*
X148094869Y-112295093D01*
X147796842Y-112295093D01*
X147647829Y-112220586D01*
X147573322Y-112071573D01*
X147573322Y-111997066D01*
X147647829Y-111848053D01*
X147796842Y-111773546D01*
X148020362Y-111773546D01*
X148169375Y-111699040D01*
X148243882Y-111550026D01*
X148243882Y-111475520D01*
X148169375Y-111326506D01*
X148020362Y-111252000D01*
X147796842Y-111252000D01*
X147647829Y-111326506D01*
X145040095Y-111252000D02*
X145040095Y-112518613D01*
X145114602Y-112667626D01*
X145189109Y-112742133D01*
X145338122Y-112816640D01*
X145561642Y-112816640D01*
X145710655Y-112742133D01*
X145040095Y-112220586D02*
X145189109Y-112295093D01*
X145487135Y-112295093D01*
X145636149Y-112220586D01*
X145710655Y-112146080D01*
X145785162Y-111997066D01*
X145785162Y-111550026D01*
X145710655Y-111401013D01*
X145636149Y-111326506D01*
X145487135Y-111252000D01*
X145189109Y-111252000D01*
X145040095Y-111326506D01*
X144071509Y-112295093D02*
X144220522Y-112220586D01*
X144295029Y-112146080D01*
X144369535Y-111997066D01*
X144369535Y-111550026D01*
X144295029Y-111401013D01*
X144220522Y-111326506D01*
X144071509Y-111252000D01*
X143847989Y-111252000D01*
X143698975Y-111326506D01*
X143624469Y-111401013D01*
X143549962Y-111550026D01*
X143549962Y-111997066D01*
X143624469Y-112146080D01*
X143698975Y-112220586D01*
X143847989Y-112295093D01*
X144071509Y-112295093D01*
X143102922Y-111252000D02*
X142506869Y-111252000D01*
X142879402Y-110730453D02*
X142879402Y-112071573D01*
X142804895Y-112220586D01*
X142655882Y-112295093D01*
X142506869Y-112295093D01*
X140867722Y-112220586D02*
X140718709Y-112295093D01*
X140420682Y-112295093D01*
X140271669Y-112220586D01*
X140197162Y-112071573D01*
X140197162Y-111997066D01*
X140271669Y-111848053D01*
X140420682Y-111773546D01*
X140644202Y-111773546D01*
X140793215Y-111699040D01*
X140867722Y-111550026D01*
X140867722Y-111475520D01*
X140793215Y-111326506D01*
X140644202Y-111252000D01*
X140420682Y-111252000D01*
X140271669Y-111326506D01*
X139750122Y-111252000D02*
X139154069Y-111252000D01*
X139526602Y-110730453D02*
X139526602Y-112071573D01*
X139452095Y-112220586D01*
X139303082Y-112295093D01*
X139154069Y-112295093D01*
X137961962Y-111252000D02*
X137961962Y-112295093D01*
X138632522Y-111252000D02*
X138632522Y-112071573D01*
X138558015Y-112220586D01*
X138409002Y-112295093D01*
X138185482Y-112295093D01*
X138036469Y-112220586D01*
X137961962Y-112146080D01*
X136546335Y-112220586D02*
X136695349Y-112295093D01*
X136993375Y-112295093D01*
X137142389Y-112220586D01*
X137216895Y-112146080D01*
X137291402Y-111997066D01*
X137291402Y-111550026D01*
X137216895Y-111401013D01*
X137142389Y-111326506D01*
X136993375Y-111252000D01*
X136695349Y-111252000D01*
X136546335Y-111326506D01*
X135875775Y-112295093D02*
X135875775Y-110730453D01*
X135726762Y-111699040D02*
X135279722Y-112295093D01*
X135279722Y-111252000D02*
X135875775Y-111848053D01*
X134609162Y-112146080D02*
X134534655Y-112220586D01*
X134609162Y-112295093D01*
X134683669Y-112220586D01*
X134609162Y-112146080D01*
X134609162Y-112295093D01*
X134609162Y-111699040D02*
X134683669Y-110804960D01*
X134609162Y-110730453D01*
X134534655Y-110804960D01*
X134609162Y-111699040D01*
X134609162Y-110730453D01*
D11*
%TO.C,J1*%
X175693915Y-127077618D02*
X174914982Y-127077618D01*
X175693915Y-128246018D01*
X174914982Y-128246018D01*
X121582639Y-127912190D02*
X121026258Y-127912190D01*
X121693915Y-128246018D02*
X121304449Y-127077618D01*
X120914982Y-128246018D01*
D12*
%TO.C,U2*%
X158158402Y-119048502D02*
X158158402Y-119858026D01*
X158110783Y-119953264D01*
X158063164Y-120000883D01*
X157967926Y-120048502D01*
X157777450Y-120048502D01*
X157682212Y-120000883D01*
X157634593Y-119953264D01*
X157586974Y-119858026D01*
X157586974Y-119048502D01*
X157158402Y-119143741D02*
X157110783Y-119096122D01*
X157015545Y-119048502D01*
X156777450Y-119048502D01*
X156682212Y-119096122D01*
X156634593Y-119143741D01*
X156586974Y-119238979D01*
X156586974Y-119334217D01*
X156634593Y-119477074D01*
X157206021Y-120048502D01*
X156586974Y-120048502D01*
%TO.C,U3*%
X135935898Y-119115013D02*
X135935898Y-119924537D01*
X135888279Y-120019775D01*
X135840660Y-120067394D01*
X135745422Y-120115013D01*
X135554946Y-120115013D01*
X135459708Y-120067394D01*
X135412089Y-120019775D01*
X135364470Y-119924537D01*
X135364470Y-119115013D01*
X134983517Y-119115013D02*
X134364470Y-119115013D01*
X134697803Y-119495966D01*
X134554946Y-119495966D01*
X134459708Y-119543585D01*
X134412089Y-119591204D01*
X134364470Y-119686442D01*
X134364470Y-119924537D01*
X134412089Y-120019775D01*
X134459708Y-120067394D01*
X134554946Y-120115013D01*
X134840660Y-120115013D01*
X134935898Y-120067394D01*
X134983517Y-120019775D01*
%TO.C,C9*%
X159879242Y-84262933D02*
X159926861Y-84215314D01*
X159974480Y-84072457D01*
X159974480Y-83977219D01*
X159926861Y-83834361D01*
X159831623Y-83739123D01*
X159736385Y-83691504D01*
X159545909Y-83643885D01*
X159403052Y-83643885D01*
X159212576Y-83691504D01*
X159117338Y-83739123D01*
X159022100Y-83834361D01*
X158974480Y-83977219D01*
X158974480Y-84072457D01*
X159022100Y-84215314D01*
X159069719Y-84262933D01*
X159974480Y-84739123D02*
X159974480Y-84929600D01*
X159926861Y-85024838D01*
X159879242Y-85072457D01*
X159736385Y-85167695D01*
X159545909Y-85215314D01*
X159164957Y-85215314D01*
X159069719Y-85167695D01*
X159022100Y-85120076D01*
X158974480Y-85024838D01*
X158974480Y-84834361D01*
X159022100Y-84739123D01*
X159069719Y-84691504D01*
X159164957Y-84643885D01*
X159403052Y-84643885D01*
X159498290Y-84691504D01*
X159545909Y-84739123D01*
X159593528Y-84834361D01*
X159593528Y-85024838D01*
X159545909Y-85120076D01*
X159498290Y-85167695D01*
X159403052Y-85215314D01*
%TO.C,R2*%
X165972480Y-78166933D02*
X165496290Y-77833600D01*
X165972480Y-77595504D02*
X164972480Y-77595504D01*
X164972480Y-77976457D01*
X165020100Y-78071695D01*
X165067719Y-78119314D01*
X165162957Y-78166933D01*
X165305814Y-78166933D01*
X165401052Y-78119314D01*
X165448671Y-78071695D01*
X165496290Y-77976457D01*
X165496290Y-77595504D01*
X165067719Y-78547885D02*
X165020100Y-78595504D01*
X164972480Y-78690742D01*
X164972480Y-78928838D01*
X165020100Y-79024076D01*
X165067719Y-79071695D01*
X165162957Y-79119314D01*
X165258195Y-79119314D01*
X165401052Y-79071695D01*
X165972480Y-78500266D01*
X165972480Y-79119314D01*
%TO.C,C8*%
X139050242Y-86040933D02*
X139097861Y-85993314D01*
X139145480Y-85850457D01*
X139145480Y-85755219D01*
X139097861Y-85612361D01*
X139002623Y-85517123D01*
X138907385Y-85469504D01*
X138716909Y-85421885D01*
X138574052Y-85421885D01*
X138383576Y-85469504D01*
X138288338Y-85517123D01*
X138193100Y-85612361D01*
X138145480Y-85755219D01*
X138145480Y-85850457D01*
X138193100Y-85993314D01*
X138240719Y-86040933D01*
X138574052Y-86612361D02*
X138526433Y-86517123D01*
X138478814Y-86469504D01*
X138383576Y-86421885D01*
X138335957Y-86421885D01*
X138240719Y-86469504D01*
X138193100Y-86517123D01*
X138145480Y-86612361D01*
X138145480Y-86802838D01*
X138193100Y-86898076D01*
X138240719Y-86945695D01*
X138335957Y-86993314D01*
X138383576Y-86993314D01*
X138478814Y-86945695D01*
X138526433Y-86898076D01*
X138574052Y-86802838D01*
X138574052Y-86612361D01*
X138621671Y-86517123D01*
X138669290Y-86469504D01*
X138764528Y-86421885D01*
X138955004Y-86421885D01*
X139050242Y-86469504D01*
X139097861Y-86517123D01*
X139145480Y-86612361D01*
X139145480Y-86802838D01*
X139097861Y-86898076D01*
X139050242Y-86945695D01*
X138955004Y-86993314D01*
X138764528Y-86993314D01*
X138669290Y-86945695D01*
X138621671Y-86898076D01*
X138574052Y-86802838D01*
%TO.C,C6*%
X158793242Y-121473933D02*
X158840861Y-121426314D01*
X158888480Y-121283457D01*
X158888480Y-121188219D01*
X158840861Y-121045361D01*
X158745623Y-120950123D01*
X158650385Y-120902504D01*
X158459909Y-120854885D01*
X158317052Y-120854885D01*
X158126576Y-120902504D01*
X158031338Y-120950123D01*
X157936100Y-121045361D01*
X157888480Y-121188219D01*
X157888480Y-121283457D01*
X157936100Y-121426314D01*
X157983719Y-121473933D01*
X157888480Y-122331076D02*
X157888480Y-122140600D01*
X157936100Y-122045361D01*
X157983719Y-121997742D01*
X158126576Y-121902504D01*
X158317052Y-121854885D01*
X158698004Y-121854885D01*
X158793242Y-121902504D01*
X158840861Y-121950123D01*
X158888480Y-122045361D01*
X158888480Y-122235838D01*
X158840861Y-122331076D01*
X158793242Y-122378695D01*
X158698004Y-122426314D01*
X158459909Y-122426314D01*
X158364671Y-122378695D01*
X158317052Y-122331076D01*
X158269433Y-122235838D01*
X158269433Y-122045361D01*
X158317052Y-121950123D01*
X158364671Y-121902504D01*
X158459909Y-121854885D01*
D13*
%TO.C,JP1*%
X136203641Y-79168655D02*
X136203641Y-79901626D01*
X136252506Y-80048220D01*
X136350235Y-80145950D01*
X136496830Y-80194815D01*
X136594559Y-80194815D01*
X135714994Y-80194815D02*
X135714994Y-79168655D01*
X135324075Y-79168655D01*
X135226346Y-79217520D01*
X135177481Y-79266384D01*
X135128616Y-79364114D01*
X135128616Y-79510708D01*
X135177481Y-79608438D01*
X135226346Y-79657302D01*
X135324075Y-79706167D01*
X135714994Y-79706167D01*
X134151321Y-80194815D02*
X134737698Y-80194815D01*
X134444510Y-80194815D02*
X134444510Y-79168655D01*
X134542239Y-79315249D01*
X134639969Y-79412979D01*
X134737698Y-79461843D01*
D12*
%TO.C,R3*%
X171433480Y-85786933D02*
X170957290Y-85453600D01*
X171433480Y-85215504D02*
X170433480Y-85215504D01*
X170433480Y-85596457D01*
X170481100Y-85691695D01*
X170528719Y-85739314D01*
X170623957Y-85786933D01*
X170766814Y-85786933D01*
X170862052Y-85739314D01*
X170909671Y-85691695D01*
X170957290Y-85596457D01*
X170957290Y-85215504D01*
X170433480Y-86120266D02*
X170433480Y-86739314D01*
X170814433Y-86405980D01*
X170814433Y-86548838D01*
X170862052Y-86644076D01*
X170909671Y-86691695D01*
X171004909Y-86739314D01*
X171243004Y-86739314D01*
X171338242Y-86691695D01*
X171385861Y-86644076D01*
X171433480Y-86548838D01*
X171433480Y-86263123D01*
X171385861Y-86167885D01*
X171338242Y-86120266D01*
%TO.C,R1*%
X172322480Y-80198933D02*
X171846290Y-79865600D01*
X172322480Y-79627504D02*
X171322480Y-79627504D01*
X171322480Y-80008457D01*
X171370100Y-80103695D01*
X171417719Y-80151314D01*
X171512957Y-80198933D01*
X171655814Y-80198933D01*
X171751052Y-80151314D01*
X171798671Y-80103695D01*
X171846290Y-80008457D01*
X171846290Y-79627504D01*
X172322480Y-81151314D02*
X172322480Y-80579885D01*
X172322480Y-80865600D02*
X171322480Y-80865600D01*
X171465338Y-80770361D01*
X171560576Y-80675123D01*
X171608195Y-80579885D01*
%TO.C,C7*%
X133081242Y-119949933D02*
X133128861Y-119902314D01*
X133176480Y-119759457D01*
X133176480Y-119664219D01*
X133128861Y-119521361D01*
X133033623Y-119426123D01*
X132938385Y-119378504D01*
X132747909Y-119330885D01*
X132605052Y-119330885D01*
X132414576Y-119378504D01*
X132319338Y-119426123D01*
X132224100Y-119521361D01*
X132176480Y-119664219D01*
X132176480Y-119759457D01*
X132224100Y-119902314D01*
X132271719Y-119949933D01*
X132176480Y-120283266D02*
X132176480Y-120949933D01*
X133176480Y-120521361D01*
D14*
%TO.C,U2*%
X158506498Y-115736122D02*
X158741498Y-115736122D01*
X158741498Y-115736122D02*
X158741498Y-113921122D01*
X171526498Y-123456122D02*
X171291498Y-123456122D01*
X158506498Y-123456122D02*
X158741498Y-123456122D01*
X158506498Y-119596122D02*
X158506498Y-115736122D01*
X171526498Y-119596122D02*
X171526498Y-123456122D01*
X171526498Y-115736122D02*
X171291498Y-115736122D01*
X158506498Y-119596122D02*
X158506498Y-123456122D01*
X171526498Y-119596122D02*
X171526498Y-115736122D01*
%TO.C,U3*%
X136283994Y-115802633D02*
X136518994Y-115802633D01*
X136518994Y-115802633D02*
X136518994Y-113987633D01*
X149303994Y-123522633D02*
X149068994Y-123522633D01*
X136283994Y-123522633D02*
X136518994Y-123522633D01*
X136283994Y-119662633D02*
X136283994Y-115802633D01*
X149303994Y-119662633D02*
X149303994Y-123522633D01*
X149303994Y-115802633D02*
X149068994Y-115802633D01*
X136283994Y-119662633D02*
X136283994Y-123522633D01*
X149303994Y-119662633D02*
X149303994Y-115802633D01*
%TO.C,C9*%
X158707100Y-86739600D02*
X156837100Y-86739600D01*
X156837100Y-86739600D02*
X156837100Y-82829600D01*
X158707100Y-82829600D02*
X158707100Y-86739600D01*
%TO.C,R2*%
X166435100Y-78106536D02*
X166435100Y-78560664D01*
X167905100Y-78106536D02*
X167905100Y-78560664D01*
%TO.C,C8*%
X139638100Y-85946348D02*
X139638100Y-86468852D01*
X141108100Y-85946348D02*
X141108100Y-86468852D01*
%TO.C,C6*%
X156021100Y-121901852D02*
X156021100Y-121379348D01*
X157491100Y-121901852D02*
X157491100Y-121379348D01*
%TO.C,R3*%
X173366100Y-85726536D02*
X173366100Y-86180664D01*
X171896100Y-85726536D02*
X171896100Y-86180664D01*
%TO.C,R1*%
X174255100Y-80138536D02*
X174255100Y-80592664D01*
X172785100Y-80138536D02*
X172785100Y-80592664D01*
%TO.C,C7*%
X133669100Y-119855348D02*
X133669100Y-120377852D01*
X135139100Y-119855348D02*
X135139100Y-120377852D01*
%TD*%
%LPC*%
%TO.C,J1*%
G36*
X177304449Y-139301657D02*
G01*
X119304449Y-139301657D01*
X119304449Y-130301657D01*
X177304449Y-130301657D01*
X177304449Y-139301657D01*
G37*
%TO.C,JP1*%
G36*
X133261100Y-79168500D02*
G01*
X132753100Y-79168500D01*
X132753100Y-78768700D01*
X133261100Y-78768700D01*
X133261100Y-79168500D01*
G37*
%TD*%
D15*
%TO.C,D1*%
X164262566Y-74259229D03*
D16*
X166802566Y-74259229D03*
%TD*%
D17*
%TO.C,J4*%
X177051100Y-86827600D03*
D18*
X177051100Y-84287600D03*
X177051100Y-81747600D03*
%TD*%
D19*
%TO.C,J2*%
X147893176Y-77697037D03*
X161033176Y-77697037D03*
D20*
X150963176Y-80407037D03*
X153463176Y-80407037D03*
X155463176Y-80407037D03*
D21*
X157963176Y-80407037D03*
%TD*%
D22*
%TO.C,U2*%
X159301498Y-114946122D03*
X160571498Y-114946122D03*
X161841498Y-114946122D03*
X163111498Y-114946122D03*
X164381498Y-114946122D03*
X165651498Y-114946122D03*
X166921498Y-114946122D03*
X168191498Y-114946122D03*
X169461498Y-114946122D03*
X170731498Y-114946122D03*
X170731498Y-124246122D03*
X169461498Y-124246122D03*
X168191498Y-124246122D03*
X166921498Y-124246122D03*
X165651498Y-124246122D03*
X164381498Y-124246122D03*
X163111498Y-124246122D03*
X161841498Y-124246122D03*
X160571498Y-124246122D03*
X159301498Y-124246122D03*
%TD*%
%TO.C,U3*%
X137078994Y-115012633D03*
X138348994Y-115012633D03*
X139618994Y-115012633D03*
X140888994Y-115012633D03*
X142158994Y-115012633D03*
X143428994Y-115012633D03*
X144698994Y-115012633D03*
X145968994Y-115012633D03*
X147238994Y-115012633D03*
X148508994Y-115012633D03*
X148508994Y-124312633D03*
X147238994Y-124312633D03*
X145968994Y-124312633D03*
X144698994Y-124312633D03*
X143428994Y-124312633D03*
X142158994Y-124312633D03*
X140888994Y-124312633D03*
X139618994Y-124312633D03*
X138348994Y-124312633D03*
X137078994Y-124312633D03*
%TD*%
D23*
%TO.C,C9*%
X157772100Y-85779600D03*
X157772100Y-83079600D03*
%TD*%
D24*
%TO.C,R2*%
X167170100Y-77421100D03*
X167170100Y-79246100D03*
%TD*%
D25*
%TO.C,U1*%
X121833358Y-93557900D03*
X135752558Y-103207100D03*
X133212558Y-103207100D03*
X130672558Y-103207100D03*
X128132558Y-103207100D03*
D26*
X125592558Y-103207100D03*
D25*
X119293358Y-91017900D03*
X121833358Y-91017900D03*
X124373358Y-91017900D03*
X126913358Y-91017900D03*
X129453358Y-91017900D03*
X131993358Y-91017900D03*
X134533358Y-91017900D03*
X137073358Y-91017900D03*
X139613358Y-91017900D03*
X142153358Y-91017900D03*
X144693358Y-91017900D03*
X147233358Y-91017900D03*
X149773358Y-91017900D03*
X152313358Y-91017900D03*
D26*
X119293358Y-106257900D03*
D25*
X121833358Y-106257900D03*
X124373358Y-106257900D03*
X126913358Y-106257900D03*
X129453358Y-106257900D03*
X131993358Y-106257900D03*
X134533358Y-106257900D03*
X137073358Y-106257900D03*
X139613358Y-106257900D03*
X142153358Y-106257900D03*
X144693358Y-106257900D03*
X147233358Y-106257900D03*
X149773358Y-106257900D03*
X154853358Y-91017900D03*
X157393358Y-91017900D03*
X159933358Y-91017900D03*
X162473358Y-91017900D03*
X165013358Y-91017900D03*
X167553358Y-91017900D03*
X170093358Y-91017900D03*
X172633358Y-91017900D03*
X175173358Y-91017900D03*
X177713358Y-91017900D03*
X177713358Y-106257900D03*
X175173358Y-106257900D03*
X172633358Y-106257900D03*
X170093358Y-106257900D03*
X152313358Y-106257900D03*
X154853358Y-106257900D03*
X157393358Y-106257900D03*
X167553358Y-106257900D03*
X165013358Y-106257900D03*
X162473358Y-106257900D03*
X159933358Y-106257900D03*
D27*
X132263358Y-93456300D03*
D28*
X134263358Y-93456300D03*
X132263358Y-95456300D03*
X134263358Y-95456300D03*
X134263358Y-97456300D03*
X132263358Y-97456300D03*
D25*
X165013358Y-103717900D03*
X165013358Y-101177900D03*
X165013358Y-98637900D03*
X165013358Y-96097900D03*
X165013358Y-93557900D03*
D28*
X120023358Y-99907900D03*
X120023358Y-97367900D03*
%TD*%
D26*
%TO.C,C1*%
X121450100Y-79603600D03*
D25*
X121450100Y-77103600D03*
%TD*%
D29*
%TO.C,S1*%
X170533649Y-72824288D03*
X177033649Y-72824288D03*
X177033649Y-77324288D03*
X170533649Y-77324288D03*
%TD*%
D30*
%TO.C,J3*%
X127546100Y-78282800D03*
X138976100Y-78282800D03*
D31*
X137706100Y-84658200D03*
X136436100Y-87198200D03*
X135166100Y-84658200D03*
X133896100Y-87198200D03*
X132626100Y-84658200D03*
X131356100Y-87198200D03*
X130086100Y-84658200D03*
X128816100Y-87198200D03*
D32*
X139585700Y-73202800D03*
X137045700Y-74930000D03*
X129476500Y-73228200D03*
X126936500Y-74930000D03*
D33*
X141135100Y-81356200D03*
X125387100Y-81356200D03*
%TD*%
D26*
%TO.C,C2*%
X121450100Y-85953600D03*
D25*
X121450100Y-83453600D03*
%TD*%
D34*
%TO.C,C8*%
X140373100Y-85257600D03*
X140373100Y-87157600D03*
%TD*%
D35*
%TO.C,C6*%
X156756100Y-122590600D03*
X156756100Y-120690600D03*
%TD*%
D36*
%TO.C,JP1*%
X133007100Y-78018600D03*
X133007100Y-79918600D03*
%TD*%
D24*
%TO.C,R3*%
X172631100Y-85041100D03*
X172631100Y-86866100D03*
%TD*%
%TO.C,R1*%
X173520100Y-79453100D03*
X173520100Y-81278100D03*
%TD*%
D34*
%TO.C,C7*%
X134404100Y-119166600D03*
X134404100Y-121066600D03*
%TD*%
M02*
