%TF.GenerationSoftware,KiCad,Pcbnew,(6.0.4)*%
%TF.CreationDate,2023-08-14T23:38:21+02:00*%
%TF.ProjectId,TeensyROM,5465656e-7379-4524-9f4d-2e6b69636164,rev?*%
%TF.SameCoordinates,Original*%
%TF.FileFunction,Legend,Top*%
%TF.FilePolarity,Positive*%
%FSLAX46Y46*%
G04 Gerber Fmt 4.6, Leading zero omitted, Abs format (unit mm)*
G04 Created by KiCad (PCBNEW (6.0.4)) date 2023-08-14 23:38:21*
%MOMM*%
%LPD*%
G01*
G04 APERTURE LIST*
G04 Aperture macros list*
%AMRoundRect*
0 Rectangle with rounded corners*
0 $1 Rounding radius*
0 $2 $3 $4 $5 $6 $7 $8 $9 X,Y pos of 4 corners*
0 Add a 4 corners polygon primitive as box body*
4,1,4,$2,$3,$4,$5,$6,$7,$8,$9,$2,$3,0*
0 Add four circle primitives for the rounded corners*
1,1,$1+$1,$2,$3*
1,1,$1+$1,$4,$5*
1,1,$1+$1,$6,$7*
1,1,$1+$1,$8,$9*
0 Add four rect primitives between the rounded corners*
20,1,$1+$1,$2,$3,$4,$5,0*
20,1,$1+$1,$4,$5,$6,$7,0*
20,1,$1+$1,$6,$7,$8,$9,0*
20,1,$1+$1,$8,$9,$2,$3,0*%
G04 Aperture macros list end*
%ADD10C,0.609600*%
%ADD11C,0.274320*%
%ADD12C,0.342900*%
%ADD13C,0.214630*%
%ADD14C,0.116840*%
%ADD15C,0.101600*%
%ADD16C,0.150000*%
%ADD17C,0.127000*%
%ADD18C,0.102870*%
%ADD19C,0.120000*%
%ADD20C,0.300000*%
%ADD21C,0.100000*%
%ADD22C,0.203200*%
%ADD23C,0.152400*%
%ADD24R,1.800000X1.800000*%
%ADD25C,1.800000*%
%ADD26R,1.700000X1.700000*%
%ADD27O,1.700000X1.700000*%
%ADD28C,3.316000*%
%ADD29C,1.428000*%
%ADD30R,1.428000X1.428000*%
%ADD31RoundRect,0.150000X-0.150000X0.875000X-0.150000X-0.875000X0.150000X-0.875000X0.150000X0.875000X0*%
%ADD32RoundRect,0.150000X-0.150000X0.825000X-0.150000X-0.825000X0.150000X-0.825000X0.150000X0.825000X0*%
%ADD33C,1.600000*%
%ADD34R,1.600000X1.600000*%
%ADD35R,1.300000X1.300000*%
%ADD36C,1.300000*%
%ADD37C,2.000000*%
%ADD38C,3.251200*%
%ADD39C,1.524000*%
%ADD40C,1.676400*%
%ADD41C,2.235200*%
%ADD42RoundRect,0.250000X-0.475000X0.250000X-0.475000X-0.250000X0.475000X-0.250000X0.475000X0.250000X0*%
%ADD43RoundRect,0.250000X0.475000X-0.250000X0.475000X0.250000X-0.475000X0.250000X-0.475000X-0.250000X0*%
G04 APERTURE END LIST*
D10*
X143054130Y-82842704D02*
X145028073Y-82842704D01*
X144041101Y-86297104D02*
X144041101Y-82842704D01*
X147495501Y-86132609D02*
X147166511Y-86297104D01*
X146508530Y-86297104D01*
X146179540Y-86132609D01*
X146015044Y-85803619D01*
X146015044Y-84487657D01*
X146179540Y-84158666D01*
X146508530Y-83994171D01*
X147166511Y-83994171D01*
X147495501Y-84158666D01*
X147659997Y-84487657D01*
X147659997Y-84816647D01*
X146015044Y-85145638D01*
X150456416Y-86132609D02*
X150127425Y-86297104D01*
X149469444Y-86297104D01*
X149140454Y-86132609D01*
X148975959Y-85803619D01*
X148975959Y-84487657D01*
X149140454Y-84158666D01*
X149469444Y-83994171D01*
X150127425Y-83994171D01*
X150456416Y-84158666D01*
X150620911Y-84487657D01*
X150620911Y-84816647D01*
X148975959Y-85145638D01*
X152101368Y-83994171D02*
X152101368Y-86297104D01*
X152101368Y-84323161D02*
X152265863Y-84158666D01*
X152594854Y-83994171D01*
X153088340Y-83994171D01*
X153417330Y-84158666D01*
X153581825Y-84487657D01*
X153581825Y-86297104D01*
X155062282Y-86132609D02*
X155391273Y-86297104D01*
X156049254Y-86297104D01*
X156378244Y-86132609D01*
X156542740Y-85803619D01*
X156542740Y-85639123D01*
X156378244Y-85310133D01*
X156049254Y-85145638D01*
X155555768Y-85145638D01*
X155226778Y-84981142D01*
X155062282Y-84652152D01*
X155062282Y-84487657D01*
X155226778Y-84158666D01*
X155555768Y-83994171D01*
X156049254Y-83994171D01*
X156378244Y-84158666D01*
X157694206Y-83994171D02*
X158516682Y-86297104D01*
X159339159Y-83994171D02*
X158516682Y-86297104D01*
X158187692Y-87119580D01*
X158023197Y-87284076D01*
X157694206Y-87448571D01*
X162629063Y-86297104D02*
X161477597Y-84652152D01*
X160655120Y-86297104D02*
X160655120Y-82842704D01*
X161971082Y-82842704D01*
X162300073Y-83007200D01*
X162464568Y-83171695D01*
X162629063Y-83500685D01*
X162629063Y-83994171D01*
X162464568Y-84323161D01*
X162300073Y-84487657D01*
X161971082Y-84652152D01*
X160655120Y-84652152D01*
X164767501Y-82842704D02*
X165425482Y-82842704D01*
X165754473Y-83007200D01*
X166083463Y-83336190D01*
X166247959Y-83994171D01*
X166247959Y-85145638D01*
X166083463Y-85803619D01*
X165754473Y-86132609D01*
X165425482Y-86297104D01*
X164767501Y-86297104D01*
X164438511Y-86132609D01*
X164109520Y-85803619D01*
X163945025Y-85145638D01*
X163945025Y-83994171D01*
X164109520Y-83336190D01*
X164438511Y-83007200D01*
X164767501Y-82842704D01*
X167728416Y-86297104D02*
X167728416Y-82842704D01*
X168879882Y-85310133D01*
X170031349Y-82842704D01*
X170031349Y-86297104D01*
D11*
X166060990Y-87869485D02*
X166539962Y-89210605D01*
X167018933Y-87869485D01*
X168168465Y-87198925D02*
X168360053Y-87198925D01*
X168551642Y-87294720D01*
X168647436Y-87390514D01*
X168743230Y-87582102D01*
X168839025Y-87965280D01*
X168839025Y-88444251D01*
X168743230Y-88827428D01*
X168647436Y-89019017D01*
X168551642Y-89114811D01*
X168360053Y-89210605D01*
X168168465Y-89210605D01*
X167976876Y-89114811D01*
X167881082Y-89019017D01*
X167785288Y-88827428D01*
X167689493Y-88444251D01*
X167689493Y-87965280D01*
X167785288Y-87582102D01*
X167881082Y-87390514D01*
X167976876Y-87294720D01*
X168168465Y-87198925D01*
X169701173Y-89019017D02*
X169796968Y-89114811D01*
X169701173Y-89210605D01*
X169605379Y-89114811D01*
X169701173Y-89019017D01*
X169701173Y-89210605D01*
X170563322Y-87390514D02*
X170659116Y-87294720D01*
X170850705Y-87198925D01*
X171329676Y-87198925D01*
X171521265Y-87294720D01*
X171617059Y-87390514D01*
X171712853Y-87582102D01*
X171712853Y-87773691D01*
X171617059Y-88061074D01*
X170467528Y-89210605D01*
X171712853Y-89210605D01*
X172575002Y-89210605D02*
X172575002Y-87198925D01*
X172575002Y-87965280D02*
X172766590Y-87869485D01*
X173149768Y-87869485D01*
X173341356Y-87965280D01*
X173437150Y-88061074D01*
X173532945Y-88252662D01*
X173532945Y-88827428D01*
X173437150Y-89019017D01*
X173341356Y-89114811D01*
X173149768Y-89210605D01*
X172766590Y-89210605D01*
X172575002Y-89114811D01*
D12*
X140527042Y-127351971D02*
X141637385Y-127351971D01*
X141082213Y-129295071D02*
X141082213Y-127351971D01*
X142562670Y-129295071D02*
X142377613Y-129202542D01*
X142285085Y-129110014D01*
X142192556Y-128924957D01*
X142192556Y-128369785D01*
X142285085Y-128184728D01*
X142377613Y-128092200D01*
X142562670Y-127999671D01*
X142840256Y-127999671D01*
X143025313Y-128092200D01*
X143117842Y-128184728D01*
X143210370Y-128369785D01*
X143210370Y-128924957D01*
X143117842Y-129110014D01*
X143025313Y-129202542D01*
X142840256Y-129295071D01*
X142562670Y-129295071D01*
X144043127Y-127999671D02*
X144043127Y-129942771D01*
X144043127Y-128092200D02*
X144228185Y-127999671D01*
X144598299Y-127999671D01*
X144783356Y-128092200D01*
X144875885Y-128184728D01*
X144968413Y-128369785D01*
X144968413Y-128924957D01*
X144875885Y-129110014D01*
X144783356Y-129202542D01*
X144598299Y-129295071D01*
X144228185Y-129295071D01*
X144043127Y-129202542D01*
X147189099Y-129202542D02*
X147466685Y-129295071D01*
X147929327Y-129295071D01*
X148114385Y-129202542D01*
X148206913Y-129110014D01*
X148299442Y-128924957D01*
X148299442Y-128739900D01*
X148206913Y-128554842D01*
X148114385Y-128462314D01*
X147929327Y-128369785D01*
X147559213Y-128277257D01*
X147374156Y-128184728D01*
X147281627Y-128092200D01*
X147189099Y-127907142D01*
X147189099Y-127722085D01*
X147281627Y-127537028D01*
X147374156Y-127444500D01*
X147559213Y-127351971D01*
X148021856Y-127351971D01*
X148299442Y-127444500D01*
X149132199Y-129295071D02*
X149132199Y-127999671D01*
X149132199Y-127351971D02*
X149039670Y-127444500D01*
X149132199Y-127537028D01*
X149224727Y-127444500D01*
X149132199Y-127351971D01*
X149132199Y-127537028D01*
X150890242Y-129295071D02*
X150890242Y-127351971D01*
X150890242Y-129202542D02*
X150705185Y-129295071D01*
X150335070Y-129295071D01*
X150150013Y-129202542D01*
X150057485Y-129110014D01*
X149964956Y-128924957D01*
X149964956Y-128369785D01*
X150057485Y-128184728D01*
X150150013Y-128092200D01*
X150335070Y-127999671D01*
X150705185Y-127999671D01*
X150890242Y-128092200D01*
X152555756Y-129202542D02*
X152370699Y-129295071D01*
X152000585Y-129295071D01*
X151815527Y-129202542D01*
X151722999Y-129017485D01*
X151722999Y-128277257D01*
X151815527Y-128092200D01*
X152000585Y-127999671D01*
X152370699Y-127999671D01*
X152555756Y-128092200D01*
X152648285Y-128277257D01*
X152648285Y-128462314D01*
X151722999Y-128647371D01*
D13*
X122166189Y-110454621D02*
X122166189Y-111617397D01*
X122097790Y-111754194D01*
X122029392Y-111822592D01*
X121892595Y-111890991D01*
X121687399Y-111890991D01*
X121550602Y-111822592D01*
X122166189Y-111343802D02*
X122029392Y-111412201D01*
X121755798Y-111412201D01*
X121619000Y-111343802D01*
X121550602Y-111275404D01*
X121482203Y-111138607D01*
X121482203Y-110728215D01*
X121550602Y-110591418D01*
X121619000Y-110523020D01*
X121755798Y-110454621D01*
X122029392Y-110454621D01*
X122166189Y-110523020D01*
X122850175Y-111412201D02*
X122850175Y-110454621D01*
X122850175Y-109975831D02*
X122781776Y-110044230D01*
X122850175Y-110112628D01*
X122918573Y-110044230D01*
X122850175Y-109975831D01*
X122850175Y-110112628D01*
X123328965Y-110454621D02*
X123876153Y-110454621D01*
X123534160Y-109975831D02*
X123534160Y-111207005D01*
X123602559Y-111343802D01*
X123739356Y-111412201D01*
X123876153Y-111412201D01*
X124354943Y-111412201D02*
X124354943Y-109975831D01*
X124970530Y-111412201D02*
X124970530Y-110659817D01*
X124902132Y-110523020D01*
X124765335Y-110454621D01*
X124560139Y-110454621D01*
X124423342Y-110523020D01*
X124354943Y-110591418D01*
X126270103Y-110454621D02*
X126270103Y-111412201D01*
X125654516Y-110454621D02*
X125654516Y-111207005D01*
X125722915Y-111343802D01*
X125859712Y-111412201D01*
X126064908Y-111412201D01*
X126201705Y-111343802D01*
X126270103Y-111275404D01*
X126954089Y-111412201D02*
X126954089Y-109975831D01*
X126954089Y-110523020D02*
X127090886Y-110454621D01*
X127364480Y-110454621D01*
X127501278Y-110523020D01*
X127569676Y-110591418D01*
X127638075Y-110728215D01*
X127638075Y-111138607D01*
X127569676Y-111275404D01*
X127501278Y-111343802D01*
X127364480Y-111412201D01*
X127090886Y-111412201D01*
X126954089Y-111343802D01*
X128253662Y-111275404D02*
X128322060Y-111343802D01*
X128253662Y-111412201D01*
X128185263Y-111343802D01*
X128253662Y-111275404D01*
X128253662Y-111412201D01*
X129553235Y-111343802D02*
X129416438Y-111412201D01*
X129142843Y-111412201D01*
X129006046Y-111343802D01*
X128937648Y-111275404D01*
X128869249Y-111138607D01*
X128869249Y-110728215D01*
X128937648Y-110591418D01*
X129006046Y-110523020D01*
X129142843Y-110454621D01*
X129416438Y-110454621D01*
X129553235Y-110523020D01*
X130374018Y-111412201D02*
X130237220Y-111343802D01*
X130168822Y-111275404D01*
X130100423Y-111138607D01*
X130100423Y-110728215D01*
X130168822Y-110591418D01*
X130237220Y-110523020D01*
X130374018Y-110454621D01*
X130579213Y-110454621D01*
X130716010Y-110523020D01*
X130784409Y-110591418D01*
X130852808Y-110728215D01*
X130852808Y-111138607D01*
X130784409Y-111275404D01*
X130716010Y-111343802D01*
X130579213Y-111412201D01*
X130374018Y-111412201D01*
X131468395Y-111412201D02*
X131468395Y-110454621D01*
X131468395Y-110591418D02*
X131536793Y-110523020D01*
X131673590Y-110454621D01*
X131878786Y-110454621D01*
X132015583Y-110523020D01*
X132083982Y-110659817D01*
X132083982Y-111412201D01*
X132083982Y-110659817D02*
X132152380Y-110523020D01*
X132289178Y-110454621D01*
X132494373Y-110454621D01*
X132631170Y-110523020D01*
X132699569Y-110659817D01*
X132699569Y-111412201D01*
X134409533Y-109907432D02*
X133178359Y-111754194D01*
X134819925Y-111343802D02*
X135025120Y-111412201D01*
X135367113Y-111412201D01*
X135503910Y-111343802D01*
X135572309Y-111275404D01*
X135640708Y-111138607D01*
X135640708Y-111001810D01*
X135572309Y-110865012D01*
X135503910Y-110796614D01*
X135367113Y-110728215D01*
X135093519Y-110659817D01*
X134956722Y-110591418D01*
X134888323Y-110523020D01*
X134819925Y-110386222D01*
X134819925Y-110249425D01*
X134888323Y-110112628D01*
X134956722Y-110044230D01*
X135093519Y-109975831D01*
X135435512Y-109975831D01*
X135640708Y-110044230D01*
X136803483Y-111343802D02*
X136666686Y-111412201D01*
X136393092Y-111412201D01*
X136256295Y-111343802D01*
X136187896Y-111207005D01*
X136187896Y-110659817D01*
X136256295Y-110523020D01*
X136393092Y-110454621D01*
X136666686Y-110454621D01*
X136803483Y-110523020D01*
X136871882Y-110659817D01*
X136871882Y-110796614D01*
X136187896Y-110933411D01*
X137487469Y-110454621D02*
X137487469Y-111412201D01*
X137487469Y-110591418D02*
X137555868Y-110523020D01*
X137692665Y-110454621D01*
X137897860Y-110454621D01*
X138034658Y-110523020D01*
X138103056Y-110659817D01*
X138103056Y-111412201D01*
X138718643Y-111343802D02*
X138855440Y-111412201D01*
X139129035Y-111412201D01*
X139265832Y-111343802D01*
X139334230Y-111207005D01*
X139334230Y-111138607D01*
X139265832Y-111001810D01*
X139129035Y-110933411D01*
X138923839Y-110933411D01*
X138787042Y-110865012D01*
X138718643Y-110728215D01*
X138718643Y-110659817D01*
X138787042Y-110523020D01*
X138923839Y-110454621D01*
X139129035Y-110454621D01*
X139265832Y-110523020D01*
X140155013Y-111412201D02*
X140018216Y-111343802D01*
X139949818Y-111275404D01*
X139881419Y-111138607D01*
X139881419Y-110728215D01*
X139949818Y-110591418D01*
X140018216Y-110523020D01*
X140155013Y-110454621D01*
X140360209Y-110454621D01*
X140497006Y-110523020D01*
X140565405Y-110591418D01*
X140633803Y-110728215D01*
X140633803Y-111138607D01*
X140565405Y-111275404D01*
X140497006Y-111343802D01*
X140360209Y-111412201D01*
X140155013Y-111412201D01*
X141249390Y-111412201D02*
X141249390Y-110454621D01*
X141249390Y-110728215D02*
X141317789Y-110591418D01*
X141386188Y-110523020D01*
X141522985Y-110454621D01*
X141659782Y-110454621D01*
X142138572Y-111412201D02*
X142138572Y-110454621D01*
X142138572Y-109975831D02*
X142070173Y-110044230D01*
X142138572Y-110112628D01*
X142206970Y-110044230D01*
X142138572Y-109975831D01*
X142138572Y-110112628D01*
X143438145Y-110454621D02*
X143438145Y-111412201D01*
X142822558Y-110454621D02*
X142822558Y-111207005D01*
X142890956Y-111343802D01*
X143027753Y-111412201D01*
X143232949Y-111412201D01*
X143369746Y-111343802D01*
X143438145Y-111275404D01*
X144122130Y-111412201D02*
X144122130Y-110454621D01*
X144122130Y-110591418D02*
X144190529Y-110523020D01*
X144327326Y-110454621D01*
X144532522Y-110454621D01*
X144669319Y-110523020D01*
X144737718Y-110659817D01*
X144737718Y-111412201D01*
X144737718Y-110659817D02*
X144806116Y-110523020D01*
X144942913Y-110454621D01*
X145148109Y-110454621D01*
X145284906Y-110523020D01*
X145353305Y-110659817D01*
X145353305Y-111412201D01*
X146037290Y-110659817D02*
X146516080Y-110659817D01*
X146721276Y-111412201D02*
X146037290Y-111412201D01*
X146037290Y-109975831D01*
X146721276Y-109975831D01*
X147336863Y-111412201D02*
X147336863Y-110454621D01*
X147336863Y-110591418D02*
X147405262Y-110523020D01*
X147542059Y-110454621D01*
X147747255Y-110454621D01*
X147884052Y-110523020D01*
X147952450Y-110659817D01*
X147952450Y-111412201D01*
X147952450Y-110659817D02*
X148020849Y-110523020D01*
X148157646Y-110454621D01*
X148362842Y-110454621D01*
X148499639Y-110523020D01*
X148568038Y-110659817D01*
X148568038Y-111412201D01*
X149252023Y-111412201D02*
X149252023Y-109975831D01*
X149252023Y-110523020D02*
X149388820Y-110454621D01*
X149662415Y-110454621D01*
X149799212Y-110523020D01*
X149867610Y-110591418D01*
X149936009Y-110728215D01*
X149936009Y-111138607D01*
X149867610Y-111275404D01*
X149799212Y-111343802D01*
X149662415Y-111412201D01*
X149388820Y-111412201D01*
X149252023Y-111343802D01*
X151098785Y-111343802D02*
X150961988Y-111412201D01*
X150688393Y-111412201D01*
X150551596Y-111343802D01*
X150483198Y-111207005D01*
X150483198Y-110659817D01*
X150551596Y-110523020D01*
X150688393Y-110454621D01*
X150961988Y-110454621D01*
X151098785Y-110523020D01*
X151167183Y-110659817D01*
X151167183Y-110796614D01*
X150483198Y-110933411D01*
X152398358Y-111412201D02*
X152398358Y-109975831D01*
X152398358Y-111343802D02*
X152261560Y-111412201D01*
X151987966Y-111412201D01*
X151851169Y-111343802D01*
X151782770Y-111275404D01*
X151714372Y-111138607D01*
X151714372Y-110728215D01*
X151782770Y-110591418D01*
X151851169Y-110523020D01*
X151987966Y-110454621D01*
X152261560Y-110454621D01*
X152398358Y-110523020D01*
X153697930Y-111412201D02*
X153697930Y-109975831D01*
X153697930Y-111343802D02*
X153561133Y-111412201D01*
X153287539Y-111412201D01*
X153150742Y-111343802D01*
X153082343Y-111275404D01*
X153013945Y-111138607D01*
X153013945Y-110728215D01*
X153082343Y-110591418D01*
X153150742Y-110523020D01*
X153287539Y-110454621D01*
X153561133Y-110454621D01*
X153697930Y-110523020D01*
X154929105Y-111343802D02*
X154792308Y-111412201D01*
X154518713Y-111412201D01*
X154381916Y-111343802D01*
X154313518Y-111207005D01*
X154313518Y-110659817D01*
X154381916Y-110523020D01*
X154518713Y-110454621D01*
X154792308Y-110454621D01*
X154929105Y-110523020D01*
X154997503Y-110659817D01*
X154997503Y-110796614D01*
X154313518Y-110933411D01*
X156228678Y-111412201D02*
X156228678Y-109975831D01*
X156228678Y-111343802D02*
X156091880Y-111412201D01*
X155818286Y-111412201D01*
X155681489Y-111343802D01*
X155613090Y-111275404D01*
X155544692Y-111138607D01*
X155544692Y-110728215D01*
X155613090Y-110591418D01*
X155681489Y-110523020D01*
X155818286Y-110454621D01*
X156091880Y-110454621D01*
X156228678Y-110523020D01*
X157938642Y-109907432D02*
X156707468Y-111754194D01*
X158212236Y-109975831D02*
X159033019Y-109975831D01*
X158622628Y-111412201D02*
X158622628Y-109975831D01*
X160058998Y-111343802D02*
X159922200Y-111412201D01*
X159648606Y-111412201D01*
X159511809Y-111343802D01*
X159443410Y-111207005D01*
X159443410Y-110659817D01*
X159511809Y-110523020D01*
X159648606Y-110454621D01*
X159922200Y-110454621D01*
X160058998Y-110523020D01*
X160127396Y-110659817D01*
X160127396Y-110796614D01*
X159443410Y-110933411D01*
X161290172Y-111343802D02*
X161153375Y-111412201D01*
X160879780Y-111412201D01*
X160742983Y-111343802D01*
X160674585Y-111207005D01*
X160674585Y-110659817D01*
X160742983Y-110523020D01*
X160879780Y-110454621D01*
X161153375Y-110454621D01*
X161290172Y-110523020D01*
X161358570Y-110659817D01*
X161358570Y-110796614D01*
X160674585Y-110933411D01*
X161974158Y-110454621D02*
X161974158Y-111412201D01*
X161974158Y-110591418D02*
X162042556Y-110523020D01*
X162179353Y-110454621D01*
X162384549Y-110454621D01*
X162521346Y-110523020D01*
X162589745Y-110659817D01*
X162589745Y-111412201D01*
X163205332Y-111343802D02*
X163342129Y-111412201D01*
X163615723Y-111412201D01*
X163752520Y-111343802D01*
X163820919Y-111207005D01*
X163820919Y-111138607D01*
X163752520Y-111001810D01*
X163615723Y-110933411D01*
X163410528Y-110933411D01*
X163273730Y-110865012D01*
X163205332Y-110728215D01*
X163205332Y-110659817D01*
X163273730Y-110523020D01*
X163410528Y-110454621D01*
X163615723Y-110454621D01*
X163752520Y-110523020D01*
X164299709Y-110454621D02*
X164641702Y-111412201D01*
X164983695Y-110454621D02*
X164641702Y-111412201D01*
X164504905Y-111754194D01*
X164436506Y-111822592D01*
X164299709Y-111890991D01*
X166351666Y-111412201D02*
X165872876Y-110728215D01*
X165530883Y-111412201D02*
X165530883Y-109975831D01*
X166078072Y-109975831D01*
X166214869Y-110044230D01*
X166283268Y-110112628D01*
X166351666Y-110249425D01*
X166351666Y-110454621D01*
X166283268Y-110591418D01*
X166214869Y-110659817D01*
X166078072Y-110728215D01*
X165530883Y-110728215D01*
X167240848Y-109975831D02*
X167514442Y-109975831D01*
X167651239Y-110044230D01*
X167788036Y-110181027D01*
X167856435Y-110454621D01*
X167856435Y-110933411D01*
X167788036Y-111207005D01*
X167651239Y-111343802D01*
X167514442Y-111412201D01*
X167240848Y-111412201D01*
X167104050Y-111343802D01*
X166967253Y-111207005D01*
X166898855Y-110933411D01*
X166898855Y-110454621D01*
X166967253Y-110181027D01*
X167104050Y-110044230D01*
X167240848Y-109975831D01*
X168472022Y-111412201D02*
X168472022Y-109975831D01*
X168950812Y-111001810D01*
X169429602Y-109975831D01*
X169429602Y-111412201D01*
D14*
%TO.C,J1*%
X124127883Y-128247712D02*
X124127883Y-128980683D01*
X124079019Y-129127277D01*
X123981289Y-129225007D01*
X123834695Y-129273872D01*
X123736965Y-129273872D01*
X125154043Y-129273872D02*
X124567666Y-129273872D01*
X124860855Y-129273872D02*
X124860855Y-128247712D01*
X124763125Y-128394306D01*
X124665396Y-128492036D01*
X124567666Y-128540900D01*
D15*
X121638277Y-128246018D02*
X120970620Y-128246018D01*
X121304449Y-128246018D02*
X121304449Y-127077618D01*
X121193172Y-127244533D01*
X121081896Y-127355809D01*
X120970620Y-127411447D01*
X174414239Y-127188895D02*
X174469877Y-127133257D01*
X174581153Y-127077618D01*
X174859344Y-127077618D01*
X174970620Y-127133257D01*
X175026258Y-127188895D01*
X175081896Y-127300171D01*
X175081896Y-127411447D01*
X175026258Y-127578361D01*
X174358601Y-128246018D01*
X175081896Y-128246018D01*
X175527001Y-127188895D02*
X175582639Y-127133257D01*
X175693915Y-127077618D01*
X175972106Y-127077618D01*
X176083382Y-127133257D01*
X176139020Y-127188895D01*
X176194658Y-127300171D01*
X176194658Y-127411447D01*
X176139020Y-127578361D01*
X175471363Y-128246018D01*
X176194658Y-128246018D01*
D16*
%TO.C,D1*%
X164794470Y-71751609D02*
X164794470Y-70751609D01*
X165032566Y-70751609D01*
X165175423Y-70799229D01*
X165270661Y-70894467D01*
X165318280Y-70989705D01*
X165365899Y-71180181D01*
X165365899Y-71323038D01*
X165318280Y-71513514D01*
X165270661Y-71608752D01*
X165175423Y-71703990D01*
X165032566Y-71751609D01*
X164794470Y-71751609D01*
X166318280Y-71751609D02*
X165746851Y-71751609D01*
X166032566Y-71751609D02*
X166032566Y-70751609D01*
X165937327Y-70894467D01*
X165842089Y-70989705D01*
X165746851Y-71037324D01*
%TO.C,J4*%
X176717766Y-88609980D02*
X176717766Y-89324266D01*
X176670147Y-89467123D01*
X176574909Y-89562361D01*
X176432052Y-89609980D01*
X176336814Y-89609980D01*
X177622528Y-88943314D02*
X177622528Y-89609980D01*
X177384433Y-88562361D02*
X177146338Y-89276647D01*
X177765385Y-89276647D01*
%TO.C,J2*%
X160132039Y-82701746D02*
X160132039Y-83416758D01*
X160084371Y-83559760D01*
X159989036Y-83655095D01*
X159846034Y-83702762D01*
X159750699Y-83702762D01*
X160561045Y-82797081D02*
X160608713Y-82749414D01*
X160704048Y-82701746D01*
X160942385Y-82701746D01*
X161037720Y-82749414D01*
X161085387Y-82797081D01*
X161133055Y-82892416D01*
X161133055Y-82987751D01*
X161085387Y-83130753D01*
X160513378Y-83702762D01*
X161133055Y-83702762D01*
%TO.C,U5*%
X172504195Y-119695980D02*
X172504195Y-120505504D01*
X172551814Y-120600742D01*
X172599433Y-120648361D01*
X172694671Y-120695980D01*
X172885147Y-120695980D01*
X172980385Y-120648361D01*
X173028004Y-120600742D01*
X173075623Y-120505504D01*
X173075623Y-119695980D01*
X174028004Y-119695980D02*
X173551814Y-119695980D01*
X173504195Y-120172171D01*
X173551814Y-120124552D01*
X173647052Y-120076933D01*
X173885147Y-120076933D01*
X173980385Y-120124552D01*
X174028004Y-120172171D01*
X174075623Y-120267409D01*
X174075623Y-120505504D01*
X174028004Y-120600742D01*
X173980385Y-120648361D01*
X173885147Y-120695980D01*
X173647052Y-120695980D01*
X173551814Y-120648361D01*
X173504195Y-120600742D01*
%TO.C,U4*%
X149009195Y-119695980D02*
X149009195Y-120505504D01*
X149056814Y-120600742D01*
X149104433Y-120648361D01*
X149199671Y-120695980D01*
X149390147Y-120695980D01*
X149485385Y-120648361D01*
X149533004Y-120600742D01*
X149580623Y-120505504D01*
X149580623Y-119695980D01*
X150485385Y-120029314D02*
X150485385Y-120695980D01*
X150247290Y-119648361D02*
X150009195Y-120362647D01*
X150628242Y-120362647D01*
%TO.C,U6*%
X133706868Y-117790980D02*
X133706868Y-118600504D01*
X133754487Y-118695742D01*
X133802106Y-118743361D01*
X133897344Y-118790980D01*
X134087820Y-118790980D01*
X134183058Y-118743361D01*
X134230677Y-118695742D01*
X134278296Y-118600504D01*
X134278296Y-117790980D01*
X135183058Y-117790980D02*
X134992582Y-117790980D01*
X134897344Y-117838600D01*
X134849725Y-117886219D01*
X134754487Y-118029076D01*
X134706868Y-118219552D01*
X134706868Y-118600504D01*
X134754487Y-118695742D01*
X134802106Y-118743361D01*
X134897344Y-118790980D01*
X135087820Y-118790980D01*
X135183058Y-118743361D01*
X135230677Y-118695742D01*
X135278296Y-118600504D01*
X135278296Y-118362409D01*
X135230677Y-118267171D01*
X135183058Y-118219552D01*
X135087820Y-118171933D01*
X134897344Y-118171933D01*
X134802106Y-118219552D01*
X134754487Y-118267171D01*
X134706868Y-118362409D01*
%TO.C,U1*%
X147741453Y-87930280D02*
X147741453Y-88739804D01*
X147789072Y-88835042D01*
X147836691Y-88882661D01*
X147931929Y-88930280D01*
X148122405Y-88930280D01*
X148217643Y-88882661D01*
X148265262Y-88835042D01*
X148312881Y-88739804D01*
X148312881Y-87930280D01*
X149312881Y-88930280D02*
X148741453Y-88930280D01*
X149027167Y-88930280D02*
X149027167Y-87930280D01*
X148931929Y-88073138D01*
X148836691Y-88168376D01*
X148741453Y-88215995D01*
D17*
X141074765Y-97440471D02*
X141727908Y-97440471D01*
X141401336Y-98583471D02*
X141401336Y-97440471D01*
X142108908Y-97984757D02*
X142489908Y-97984757D01*
X142653193Y-98583471D02*
X142108908Y-98583471D01*
X142108908Y-97440471D01*
X142653193Y-97440471D01*
X143143050Y-97984757D02*
X143524050Y-97984757D01*
X143687336Y-98583471D02*
X143143050Y-98583471D01*
X143143050Y-97440471D01*
X143687336Y-97440471D01*
X144177193Y-98583471D02*
X144177193Y-97440471D01*
X144830336Y-98583471D01*
X144830336Y-97440471D01*
X145320193Y-98529042D02*
X145483479Y-98583471D01*
X145755622Y-98583471D01*
X145864479Y-98529042D01*
X145918908Y-98474614D01*
X145973336Y-98365757D01*
X145973336Y-98256900D01*
X145918908Y-98148042D01*
X145864479Y-98093614D01*
X145755622Y-98039185D01*
X145537908Y-97984757D01*
X145429050Y-97930328D01*
X145374622Y-97875900D01*
X145320193Y-97767042D01*
X145320193Y-97658185D01*
X145374622Y-97549328D01*
X145429050Y-97494900D01*
X145537908Y-97440471D01*
X145810050Y-97440471D01*
X145973336Y-97494900D01*
X146680908Y-98039185D02*
X146680908Y-98583471D01*
X146299908Y-97440471D02*
X146680908Y-98039185D01*
X147061908Y-97440471D01*
X148803622Y-97821471D02*
X148803622Y-98583471D01*
X148531479Y-97386042D02*
X148259336Y-98202471D01*
X148966908Y-98202471D01*
X149402336Y-98474614D02*
X149456765Y-98529042D01*
X149402336Y-98583471D01*
X149347908Y-98529042D01*
X149402336Y-98474614D01*
X149402336Y-98583471D01*
X150545336Y-98583471D02*
X149892193Y-98583471D01*
X150218765Y-98583471D02*
X150218765Y-97440471D01*
X150109908Y-97603757D01*
X150001050Y-97712614D01*
X149892193Y-97767042D01*
D16*
X146280024Y-99841233D02*
X145580024Y-99841233D01*
X145580024Y-99674566D01*
X145613358Y-99574566D01*
X145680024Y-99507900D01*
X145746691Y-99474566D01*
X145880024Y-99441233D01*
X145980024Y-99441233D01*
X146113358Y-99474566D01*
X146180024Y-99507900D01*
X146246691Y-99574566D01*
X146280024Y-99674566D01*
X146280024Y-99841233D01*
X145580024Y-99241233D02*
X146280024Y-99007900D01*
X145580024Y-98774566D01*
X145580024Y-98341233D02*
X146080024Y-98341233D01*
X146180024Y-98374566D01*
X146246691Y-98441233D01*
X146280024Y-98541233D01*
X146280024Y-98607900D01*
X145580024Y-97707900D02*
X145580024Y-97841233D01*
X145613358Y-97907900D01*
X145646691Y-97941233D01*
X145746691Y-98007900D01*
X145880024Y-98041233D01*
X146146691Y-98041233D01*
X146213358Y-98007900D01*
X146246691Y-97974566D01*
X146280024Y-97907900D01*
X146280024Y-97774566D01*
X146246691Y-97707900D01*
X146213358Y-97674566D01*
X146146691Y-97641233D01*
X145980024Y-97641233D01*
X145913358Y-97674566D01*
X145880024Y-97707900D01*
X145846691Y-97774566D01*
X145846691Y-97907900D01*
X145880024Y-97974566D01*
X145913358Y-98007900D01*
X145980024Y-98041233D01*
X146080024Y-97374566D02*
X146080024Y-97041233D01*
X146280024Y-97441233D02*
X145580024Y-97207900D01*
X146280024Y-96974566D01*
X147550024Y-101721233D02*
X146850024Y-101721233D01*
X147350024Y-101487900D01*
X146850024Y-101254566D01*
X147550024Y-101254566D01*
X147550024Y-100921233D02*
X146850024Y-100921233D01*
X147550024Y-100587900D02*
X146850024Y-100587900D01*
X147350024Y-100354566D01*
X146850024Y-100121233D01*
X147550024Y-100121233D01*
X146850024Y-99854566D02*
X147550024Y-99387900D01*
X146850024Y-99387900D02*
X147550024Y-99854566D01*
X147550024Y-98721233D02*
X147216691Y-98954566D01*
X147550024Y-99121233D02*
X146850024Y-99121233D01*
X146850024Y-98854566D01*
X146883358Y-98787900D01*
X146916691Y-98754566D01*
X146983358Y-98721233D01*
X147083358Y-98721233D01*
X147150024Y-98754566D01*
X147183358Y-98787900D01*
X147216691Y-98854566D01*
X147216691Y-99121233D01*
X146850024Y-98521233D02*
X146850024Y-98121233D01*
X147550024Y-98321233D02*
X146850024Y-98321233D01*
X147550024Y-97521233D02*
X147550024Y-97921233D01*
X147550024Y-97721233D02*
X146850024Y-97721233D01*
X146950024Y-97787900D01*
X147016691Y-97854566D01*
X147050024Y-97921233D01*
X146850024Y-97087900D02*
X146850024Y-97021233D01*
X146883358Y-96954566D01*
X146916691Y-96921233D01*
X146983358Y-96887900D01*
X147116691Y-96854566D01*
X147283358Y-96854566D01*
X147416691Y-96887900D01*
X147483358Y-96921233D01*
X147516691Y-96954566D01*
X147550024Y-97021233D01*
X147550024Y-97087900D01*
X147516691Y-97154566D01*
X147483358Y-97187900D01*
X147416691Y-97221233D01*
X147283358Y-97254566D01*
X147116691Y-97254566D01*
X146983358Y-97221233D01*
X146916691Y-97187900D01*
X146883358Y-97154566D01*
X146850024Y-97087900D01*
X146850024Y-96254566D02*
X146850024Y-96387900D01*
X146883358Y-96454566D01*
X146916691Y-96487900D01*
X147016691Y-96554566D01*
X147150024Y-96587900D01*
X147416691Y-96587900D01*
X147483358Y-96554566D01*
X147516691Y-96521233D01*
X147550024Y-96454566D01*
X147550024Y-96321233D01*
X147516691Y-96254566D01*
X147483358Y-96221233D01*
X147416691Y-96187900D01*
X147250024Y-96187900D01*
X147183358Y-96221233D01*
X147150024Y-96254566D01*
X147116691Y-96321233D01*
X147116691Y-96454566D01*
X147150024Y-96521233D01*
X147183358Y-96554566D01*
X147250024Y-96587900D01*
X146916691Y-95921233D02*
X146883358Y-95887900D01*
X146850024Y-95821233D01*
X146850024Y-95654566D01*
X146883358Y-95587900D01*
X146916691Y-95554566D01*
X146983358Y-95521233D01*
X147050024Y-95521233D01*
X147150024Y-95554566D01*
X147550024Y-95954566D01*
X147550024Y-95521233D01*
X169514310Y-99090280D02*
X169514310Y-98090280D01*
X169847643Y-98804566D01*
X170180977Y-98090280D01*
X170180977Y-99090280D01*
X170657167Y-99090280D02*
X170657167Y-98423614D01*
X170657167Y-98090280D02*
X170609548Y-98137900D01*
X170657167Y-98185519D01*
X170704786Y-98137900D01*
X170657167Y-98090280D01*
X170657167Y-98185519D01*
X171561929Y-99042661D02*
X171466691Y-99090280D01*
X171276215Y-99090280D01*
X171180977Y-99042661D01*
X171133358Y-98995042D01*
X171085738Y-98899804D01*
X171085738Y-98614090D01*
X171133358Y-98518852D01*
X171180977Y-98471233D01*
X171276215Y-98423614D01*
X171466691Y-98423614D01*
X171561929Y-98471233D01*
X171990500Y-99090280D02*
X171990500Y-98423614D01*
X171990500Y-98614090D02*
X172038119Y-98518852D01*
X172085738Y-98471233D01*
X172180977Y-98423614D01*
X172276215Y-98423614D01*
X172752405Y-99090280D02*
X172657167Y-99042661D01*
X172609548Y-98995042D01*
X172561929Y-98899804D01*
X172561929Y-98614090D01*
X172609548Y-98518852D01*
X172657167Y-98471233D01*
X172752405Y-98423614D01*
X172895262Y-98423614D01*
X172990500Y-98471233D01*
X173038119Y-98518852D01*
X173085738Y-98614090D01*
X173085738Y-98899804D01*
X173038119Y-98995042D01*
X172990500Y-99042661D01*
X172895262Y-99090280D01*
X172752405Y-99090280D01*
X174228596Y-99042661D02*
X174371453Y-99090280D01*
X174609548Y-99090280D01*
X174704786Y-99042661D01*
X174752405Y-98995042D01*
X174800024Y-98899804D01*
X174800024Y-98804566D01*
X174752405Y-98709328D01*
X174704786Y-98661709D01*
X174609548Y-98614090D01*
X174419072Y-98566471D01*
X174323834Y-98518852D01*
X174276215Y-98471233D01*
X174228596Y-98375995D01*
X174228596Y-98280757D01*
X174276215Y-98185519D01*
X174323834Y-98137900D01*
X174419072Y-98090280D01*
X174657167Y-98090280D01*
X174800024Y-98137900D01*
X175228596Y-99090280D02*
X175228596Y-98090280D01*
X175466691Y-98090280D01*
X175609548Y-98137900D01*
X175704786Y-98233138D01*
X175752405Y-98328376D01*
X175800024Y-98518852D01*
X175800024Y-98661709D01*
X175752405Y-98852185D01*
X175704786Y-98947423D01*
X175609548Y-99042661D01*
X175466691Y-99090280D01*
X175228596Y-99090280D01*
X121285738Y-99899804D02*
X122095262Y-99899804D01*
X122190500Y-99852185D01*
X122238119Y-99804566D01*
X122285738Y-99709328D01*
X122285738Y-99518852D01*
X122238119Y-99423614D01*
X122190500Y-99375995D01*
X122095262Y-99328376D01*
X121285738Y-99328376D01*
X122238119Y-98899804D02*
X122285738Y-98756947D01*
X122285738Y-98518852D01*
X122238119Y-98423614D01*
X122190500Y-98375995D01*
X122095262Y-98328376D01*
X122000024Y-98328376D01*
X121904786Y-98375995D01*
X121857167Y-98423614D01*
X121809548Y-98518852D01*
X121761929Y-98709328D01*
X121714310Y-98804566D01*
X121666691Y-98852185D01*
X121571453Y-98899804D01*
X121476215Y-98899804D01*
X121380977Y-98852185D01*
X121333358Y-98804566D01*
X121285738Y-98709328D01*
X121285738Y-98471233D01*
X121333358Y-98328376D01*
X121761929Y-97566471D02*
X121809548Y-97423614D01*
X121857167Y-97375995D01*
X121952405Y-97328376D01*
X122095262Y-97328376D01*
X122190500Y-97375995D01*
X122238119Y-97423614D01*
X122285738Y-97518852D01*
X122285738Y-97899804D01*
X121285738Y-97899804D01*
X121285738Y-97566471D01*
X121333358Y-97471233D01*
X121380977Y-97423614D01*
X121476215Y-97375995D01*
X121571453Y-97375995D01*
X121666691Y-97423614D01*
X121714310Y-97471233D01*
X121761929Y-97566471D01*
X121761929Y-97899804D01*
X136366929Y-98218442D02*
X136366929Y-97885109D01*
X136890738Y-97742252D02*
X136890738Y-98218442D01*
X135890738Y-98218442D01*
X135890738Y-97742252D01*
X136224072Y-97456538D02*
X136224072Y-97075585D01*
X135890738Y-97313680D02*
X136747881Y-97313680D01*
X136843119Y-97266061D01*
X136890738Y-97170823D01*
X136890738Y-97075585D01*
X136890738Y-96742252D02*
X135890738Y-96742252D01*
X136890738Y-96313680D02*
X136366929Y-96313680D01*
X136271691Y-96361300D01*
X136224072Y-96456538D01*
X136224072Y-96599395D01*
X136271691Y-96694633D01*
X136319310Y-96742252D01*
X136843119Y-95456538D02*
X136890738Y-95551776D01*
X136890738Y-95742252D01*
X136843119Y-95837490D01*
X136747881Y-95885109D01*
X136366929Y-95885109D01*
X136271691Y-95837490D01*
X136224072Y-95742252D01*
X136224072Y-95551776D01*
X136271691Y-95456538D01*
X136366929Y-95408919D01*
X136462167Y-95408919D01*
X136557405Y-95885109D01*
X136890738Y-94980347D02*
X136224072Y-94980347D01*
X136414548Y-94980347D02*
X136319310Y-94932728D01*
X136271691Y-94885109D01*
X136224072Y-94789871D01*
X136224072Y-94694633D01*
X136224072Y-94361300D02*
X136890738Y-94361300D01*
X136319310Y-94361300D02*
X136271691Y-94313680D01*
X136224072Y-94218442D01*
X136224072Y-94075585D01*
X136271691Y-93980347D01*
X136366929Y-93932728D01*
X136890738Y-93932728D01*
X136843119Y-93075585D02*
X136890738Y-93170823D01*
X136890738Y-93361300D01*
X136843119Y-93456538D01*
X136747881Y-93504157D01*
X136366929Y-93504157D01*
X136271691Y-93456538D01*
X136224072Y-93361300D01*
X136224072Y-93170823D01*
X136271691Y-93075585D01*
X136366929Y-93027966D01*
X136462167Y-93027966D01*
X136557405Y-93504157D01*
X136224072Y-92742252D02*
X136224072Y-92361300D01*
X135890738Y-92599395D02*
X136747881Y-92599395D01*
X136843119Y-92551776D01*
X136890738Y-92456538D01*
X136890738Y-92361300D01*
X126728034Y-100579480D02*
X126728034Y-101389004D01*
X126775653Y-101484242D01*
X126823272Y-101531861D01*
X126918510Y-101579480D01*
X127108986Y-101579480D01*
X127204224Y-101531861D01*
X127251843Y-101484242D01*
X127299462Y-101389004D01*
X127299462Y-100579480D01*
X127728034Y-101531861D02*
X127870891Y-101579480D01*
X128108986Y-101579480D01*
X128204224Y-101531861D01*
X128251843Y-101484242D01*
X128299462Y-101389004D01*
X128299462Y-101293766D01*
X128251843Y-101198528D01*
X128204224Y-101150909D01*
X128108986Y-101103290D01*
X127918510Y-101055671D01*
X127823272Y-101008052D01*
X127775653Y-100960433D01*
X127728034Y-100865195D01*
X127728034Y-100769957D01*
X127775653Y-100674719D01*
X127823272Y-100627100D01*
X127918510Y-100579480D01*
X128156605Y-100579480D01*
X128299462Y-100627100D01*
X129061367Y-101055671D02*
X129204224Y-101103290D01*
X129251843Y-101150909D01*
X129299462Y-101246147D01*
X129299462Y-101389004D01*
X129251843Y-101484242D01*
X129204224Y-101531861D01*
X129108986Y-101579480D01*
X128728034Y-101579480D01*
X128728034Y-100579480D01*
X129061367Y-100579480D01*
X129156605Y-100627100D01*
X129204224Y-100674719D01*
X129251843Y-100769957D01*
X129251843Y-100865195D01*
X129204224Y-100960433D01*
X129156605Y-101008052D01*
X129061367Y-101055671D01*
X128728034Y-101055671D01*
X130489938Y-101579480D02*
X130489938Y-100579480D01*
X130489938Y-101055671D02*
X131061367Y-101055671D01*
X131061367Y-101579480D02*
X131061367Y-100579480D01*
X131680415Y-101579480D02*
X131585177Y-101531861D01*
X131537558Y-101484242D01*
X131489938Y-101389004D01*
X131489938Y-101103290D01*
X131537558Y-101008052D01*
X131585177Y-100960433D01*
X131680415Y-100912814D01*
X131823272Y-100912814D01*
X131918510Y-100960433D01*
X131966129Y-101008052D01*
X132013748Y-101103290D01*
X132013748Y-101389004D01*
X131966129Y-101484242D01*
X131918510Y-101531861D01*
X131823272Y-101579480D01*
X131680415Y-101579480D01*
X132394700Y-101531861D02*
X132489938Y-101579480D01*
X132680415Y-101579480D01*
X132775653Y-101531861D01*
X132823272Y-101436623D01*
X132823272Y-101389004D01*
X132775653Y-101293766D01*
X132680415Y-101246147D01*
X132537558Y-101246147D01*
X132442319Y-101198528D01*
X132394700Y-101103290D01*
X132394700Y-101055671D01*
X132442319Y-100960433D01*
X132537558Y-100912814D01*
X132680415Y-100912814D01*
X132775653Y-100960433D01*
X133108986Y-100912814D02*
X133489938Y-100912814D01*
X133251843Y-100579480D02*
X133251843Y-101436623D01*
X133299462Y-101531861D01*
X133394700Y-101579480D01*
X133489938Y-101579480D01*
%TO.C,C1*%
X117407242Y-78520266D02*
X117454861Y-78567885D01*
X117502480Y-78710742D01*
X117502480Y-78805980D01*
X117454861Y-78948838D01*
X117359623Y-79044076D01*
X117264385Y-79091695D01*
X117073909Y-79139314D01*
X116931052Y-79139314D01*
X116740576Y-79091695D01*
X116645338Y-79044076D01*
X116550100Y-78948838D01*
X116502480Y-78805980D01*
X116502480Y-78710742D01*
X116550100Y-78567885D01*
X116597719Y-78520266D01*
X117502480Y-77567885D02*
X117502480Y-78139314D01*
X117502480Y-77853600D02*
X116502480Y-77853600D01*
X116645338Y-77948838D01*
X116740576Y-78044076D01*
X116788195Y-78139314D01*
%TO.C,S1*%
X173021744Y-71229049D02*
X173164601Y-71276668D01*
X173402696Y-71276668D01*
X173497934Y-71229049D01*
X173545553Y-71181430D01*
X173593172Y-71086192D01*
X173593172Y-70990954D01*
X173545553Y-70895716D01*
X173497934Y-70848097D01*
X173402696Y-70800478D01*
X173212220Y-70752859D01*
X173116982Y-70705240D01*
X173069363Y-70657621D01*
X173021744Y-70562383D01*
X173021744Y-70467145D01*
X173069363Y-70371907D01*
X173116982Y-70324288D01*
X173212220Y-70276668D01*
X173450315Y-70276668D01*
X173593172Y-70324288D01*
X174545553Y-71276668D02*
X173974125Y-71276668D01*
X174259839Y-71276668D02*
X174259839Y-70276668D01*
X174164601Y-70419526D01*
X174069363Y-70514764D01*
X173974125Y-70562383D01*
D18*
%TO.C,J3*%
X142534195Y-76011405D02*
X142534195Y-76754355D01*
X142484665Y-76902945D01*
X142385605Y-77002005D01*
X142237015Y-77051535D01*
X142137955Y-77051535D01*
X142930435Y-76011405D02*
X143574325Y-76011405D01*
X143227615Y-76407645D01*
X143376205Y-76407645D01*
X143475265Y-76457175D01*
X143524795Y-76506705D01*
X143574325Y-76605765D01*
X143574325Y-76853415D01*
X143524795Y-76952475D01*
X143475265Y-77002005D01*
X143376205Y-77051535D01*
X143079025Y-77051535D01*
X142979965Y-77002005D01*
X142930435Y-76952475D01*
D16*
%TO.C,C4*%
X159555242Y-119140266D02*
X159602861Y-119187885D01*
X159650480Y-119330742D01*
X159650480Y-119425980D01*
X159602861Y-119568838D01*
X159507623Y-119664076D01*
X159412385Y-119711695D01*
X159221909Y-119759314D01*
X159079052Y-119759314D01*
X158888576Y-119711695D01*
X158793338Y-119664076D01*
X158698100Y-119568838D01*
X158650480Y-119425980D01*
X158650480Y-119330742D01*
X158698100Y-119187885D01*
X158745719Y-119140266D01*
X158983814Y-118283123D02*
X159650480Y-118283123D01*
X158602861Y-118521219D02*
X159317147Y-118759314D01*
X159317147Y-118140266D01*
%TO.C,C3*%
X121524242Y-119521266D02*
X121571861Y-119568885D01*
X121619480Y-119711742D01*
X121619480Y-119806980D01*
X121571861Y-119949838D01*
X121476623Y-120045076D01*
X121381385Y-120092695D01*
X121190909Y-120140314D01*
X121048052Y-120140314D01*
X120857576Y-120092695D01*
X120762338Y-120045076D01*
X120667100Y-119949838D01*
X120619480Y-119806980D01*
X120619480Y-119711742D01*
X120667100Y-119568885D01*
X120714719Y-119521266D01*
X120619480Y-119187933D02*
X120619480Y-118568885D01*
X121000433Y-118902219D01*
X121000433Y-118759361D01*
X121048052Y-118664123D01*
X121095671Y-118616504D01*
X121190909Y-118568885D01*
X121429004Y-118568885D01*
X121524242Y-118616504D01*
X121571861Y-118664123D01*
X121619480Y-118759361D01*
X121619480Y-119045076D01*
X121571861Y-119140314D01*
X121524242Y-119187933D01*
%TO.C,C5*%
X152570242Y-118632266D02*
X152617861Y-118679885D01*
X152665480Y-118822742D01*
X152665480Y-118917980D01*
X152617861Y-119060838D01*
X152522623Y-119156076D01*
X152427385Y-119203695D01*
X152236909Y-119251314D01*
X152094052Y-119251314D01*
X151903576Y-119203695D01*
X151808338Y-119156076D01*
X151713100Y-119060838D01*
X151665480Y-118917980D01*
X151665480Y-118822742D01*
X151713100Y-118679885D01*
X151760719Y-118632266D01*
X151665480Y-117727504D02*
X151665480Y-118203695D01*
X152141671Y-118251314D01*
X152094052Y-118203695D01*
X152046433Y-118108457D01*
X152046433Y-117870361D01*
X152094052Y-117775123D01*
X152141671Y-117727504D01*
X152236909Y-117679885D01*
X152475004Y-117679885D01*
X152570242Y-117727504D01*
X152617861Y-117775123D01*
X152665480Y-117870361D01*
X152665480Y-118108457D01*
X152617861Y-118203695D01*
X152570242Y-118251314D01*
%TO.C,C2*%
X117407242Y-84870266D02*
X117454861Y-84917885D01*
X117502480Y-85060742D01*
X117502480Y-85155980D01*
X117454861Y-85298838D01*
X117359623Y-85394076D01*
X117264385Y-85441695D01*
X117073909Y-85489314D01*
X116931052Y-85489314D01*
X116740576Y-85441695D01*
X116645338Y-85394076D01*
X116550100Y-85298838D01*
X116502480Y-85155980D01*
X116502480Y-85060742D01*
X116550100Y-84917885D01*
X116597719Y-84870266D01*
X116597719Y-84489314D02*
X116550100Y-84441695D01*
X116502480Y-84346457D01*
X116502480Y-84108361D01*
X116550100Y-84013123D01*
X116597719Y-83965504D01*
X116692957Y-83917885D01*
X116788195Y-83917885D01*
X116931052Y-83965504D01*
X117502480Y-84536933D01*
X117502480Y-83917885D01*
D19*
%TO.C,D1*%
X163972566Y-73023229D02*
X163972566Y-73179229D01*
X163972566Y-75339229D02*
X163972566Y-75495229D01*
X166573696Y-73179392D02*
G75*
G03*
X164491605Y-73179229I-1041130J-1079837D01*
G01*
X163972566Y-75494745D02*
G75*
G03*
X167204901Y-75337837I1560000J1235516D01*
G01*
X164491605Y-75339229D02*
G75*
G03*
X166573696Y-75339066I1040961J1080000D01*
G01*
X167204901Y-73180621D02*
G75*
G03*
X163972566Y-73023713I-1672335J-1078608D01*
G01*
%TO.C,J4*%
X178381100Y-80417600D02*
X175721100Y-80417600D01*
X178381100Y-85557600D02*
X178381100Y-80417600D01*
X178381100Y-86827600D02*
X178381100Y-88157600D01*
X175721100Y-85557600D02*
X175721100Y-80417600D01*
X178381100Y-88157600D02*
X177051100Y-88157600D01*
X178381100Y-85557600D02*
X175721100Y-85557600D01*
D20*
%TO.C,J2*%
X158113176Y-82107037D02*
G75*
G03*
X158113176Y-82107037I-150000J0D01*
G01*
D17*
X161028176Y-79907037D02*
X161028176Y-81417037D01*
X161028176Y-67417037D02*
X161028176Y-75327037D01*
X147898176Y-67417037D02*
X161028176Y-67417037D01*
X147898176Y-75327037D02*
X147898176Y-67417037D01*
X147898176Y-81417037D02*
X147898176Y-79907037D01*
X161028176Y-81417037D02*
X147898176Y-81417037D01*
D19*
%TO.C,U5*%
X172156100Y-116383600D02*
X171921100Y-116383600D01*
X171921100Y-116383600D02*
X171921100Y-114568600D01*
X159136100Y-124103600D02*
X159371100Y-124103600D01*
X172156100Y-124103600D02*
X171921100Y-124103600D01*
X172156100Y-120243600D02*
X172156100Y-116383600D01*
X159136100Y-120243600D02*
X159136100Y-124103600D01*
X159136100Y-116383600D02*
X159371100Y-116383600D01*
X172156100Y-120243600D02*
X172156100Y-124103600D01*
X159136100Y-120243600D02*
X159136100Y-116383600D01*
%TO.C,U4*%
X148661100Y-116383600D02*
X148426100Y-116383600D01*
X148426100Y-116383600D02*
X148426100Y-114568600D01*
X135641100Y-124103600D02*
X135876100Y-124103600D01*
X148661100Y-124103600D02*
X148426100Y-124103600D01*
X148661100Y-120243600D02*
X148661100Y-116383600D01*
X135641100Y-120243600D02*
X135641100Y-124103600D01*
X135641100Y-116383600D02*
X135876100Y-116383600D01*
X148661100Y-120243600D02*
X148661100Y-124103600D01*
X135641100Y-120243600D02*
X135641100Y-116383600D01*
%TO.C,U6*%
X133251100Y-118338600D02*
X133251100Y-120288600D01*
X124381100Y-118338600D02*
X124381100Y-120288600D01*
X133251100Y-118338600D02*
X133251100Y-114888600D01*
X124381100Y-118338600D02*
X124381100Y-116388600D01*
D16*
%TO.C,U1*%
X161466384Y-98637900D02*
G75*
G03*
X161466384Y-98637900I-898026J0D01*
G01*
X140883358Y-92287900D02*
X140883358Y-104987900D01*
X153583358Y-92287900D02*
X140883358Y-92287900D01*
X153583358Y-104987900D02*
X153583358Y-92287900D01*
X140883358Y-104987900D02*
X153583358Y-104987900D01*
X131253358Y-92286300D02*
X131253358Y-92536300D01*
X135253358Y-92286300D02*
X131253358Y-92286300D01*
X135253358Y-98536300D02*
X135253358Y-92286300D01*
X131253358Y-98536300D02*
X135253358Y-98536300D01*
X131253358Y-92536300D02*
X131253358Y-98536300D01*
X126862558Y-101937100D02*
X126862558Y-104477100D01*
X124322558Y-101937100D02*
X126862558Y-101937100D01*
X124322558Y-104477100D02*
X124322558Y-101937100D01*
X137022558Y-104477100D02*
X124322558Y-104477100D01*
X137022558Y-101937100D02*
X137022558Y-104477100D01*
X124322558Y-101937100D02*
X137022558Y-101937100D01*
X158663358Y-97367900D02*
X162473358Y-97367900D01*
X158663358Y-99907900D02*
X158663358Y-97367900D01*
X162473358Y-99907900D02*
X158663358Y-99907900D01*
X162473358Y-97367900D02*
X162473358Y-99907900D01*
X177713358Y-103717900D02*
X178983358Y-103717900D01*
X177713358Y-93557900D02*
X177713358Y-103717900D01*
X178983358Y-93557900D02*
X177713358Y-93557900D01*
X166283358Y-104987900D02*
X178983358Y-104987900D01*
X166283358Y-92287900D02*
X166283358Y-104987900D01*
X178983358Y-92287900D02*
X166283358Y-92287900D01*
X118023358Y-102447900D02*
X116753358Y-102447900D01*
X116753358Y-102447900D02*
X116753358Y-94827900D01*
X116753358Y-94827900D02*
X118023358Y-94827900D01*
X123103358Y-102447900D02*
X123103358Y-94827900D01*
X123103358Y-94827900D02*
X118023358Y-94827900D01*
X123103358Y-102447900D02*
X118023358Y-102447900D01*
X118023358Y-89747900D02*
X178983358Y-89747900D01*
X178983358Y-89747900D02*
X178983358Y-107527900D01*
X178983358Y-107527900D02*
X118023358Y-107527900D01*
X118023358Y-107527900D02*
X118023358Y-89747900D01*
G36*
X150938358Y-99092900D02*
G01*
X150684358Y-99346900D01*
X150430358Y-98965900D01*
X150684358Y-98711900D01*
X150938358Y-99092900D01*
G37*
D21*
X150938358Y-99092900D02*
X150684358Y-99346900D01*
X150430358Y-98965900D01*
X150684358Y-98711900D01*
X150938358Y-99092900D01*
G36*
X150557358Y-98584900D02*
G01*
X150303358Y-98838900D01*
X150049358Y-98457900D01*
X150303358Y-98203900D01*
X150557358Y-98584900D01*
G37*
X150557358Y-98584900D02*
X150303358Y-98838900D01*
X150049358Y-98457900D01*
X150303358Y-98203900D01*
X150557358Y-98584900D01*
G36*
X150176358Y-98076900D02*
G01*
X149922358Y-98330900D01*
X149668358Y-97949900D01*
X149922358Y-97695900D01*
X150176358Y-98076900D01*
G37*
X150176358Y-98076900D02*
X149922358Y-98330900D01*
X149668358Y-97949900D01*
X149922358Y-97695900D01*
X150176358Y-98076900D01*
G36*
X150176358Y-98965900D02*
G01*
X149922358Y-99219900D01*
X149668358Y-98838900D01*
X149922358Y-98584900D01*
X150176358Y-98965900D01*
G37*
X150176358Y-98965900D02*
X149922358Y-99219900D01*
X149668358Y-98838900D01*
X149922358Y-98584900D01*
X150176358Y-98965900D01*
G36*
X149795358Y-98457900D02*
G01*
X149541358Y-98711900D01*
X149287358Y-98330900D01*
X149541358Y-98076900D01*
X149795358Y-98457900D01*
G37*
X149795358Y-98457900D02*
X149541358Y-98711900D01*
X149287358Y-98330900D01*
X149541358Y-98076900D01*
X149795358Y-98457900D01*
G36*
X149414358Y-97949900D02*
G01*
X149160358Y-98203900D01*
X148906358Y-97822900D01*
X149160358Y-97568900D01*
X149414358Y-97949900D01*
G37*
X149414358Y-97949900D02*
X149160358Y-98203900D01*
X148906358Y-97822900D01*
X149160358Y-97568900D01*
X149414358Y-97949900D01*
G36*
X151319358Y-98711900D02*
G01*
X151065358Y-98965900D01*
X150811358Y-98584900D01*
X151065358Y-98330900D01*
X151319358Y-98711900D01*
G37*
X151319358Y-98711900D02*
X151065358Y-98965900D01*
X150811358Y-98584900D01*
X151065358Y-98330900D01*
X151319358Y-98711900D01*
G36*
X151700358Y-98330900D02*
G01*
X151446358Y-98584900D01*
X151192358Y-98203900D01*
X151446358Y-97949900D01*
X151700358Y-98330900D01*
G37*
X151700358Y-98330900D02*
X151446358Y-98584900D01*
X151192358Y-98203900D01*
X151446358Y-97949900D01*
X151700358Y-98330900D01*
D19*
%TO.C,C1*%
X118232100Y-78073600D02*
X120410100Y-78073600D01*
X122490100Y-77192600D02*
X124468100Y-77192600D01*
X118448100Y-77152600D02*
X120410100Y-77152600D01*
X122490100Y-76992600D02*
X124384100Y-76992600D01*
X122490100Y-77392600D02*
X124536100Y-77392600D01*
X122490100Y-77753600D02*
X124625100Y-77753600D01*
X118734100Y-76592600D02*
X120410100Y-76592600D01*
X119560100Y-75712600D02*
X123340100Y-75712600D01*
X122490100Y-76752600D02*
X124262100Y-76752600D01*
X118222100Y-78233600D02*
X124678100Y-78233600D01*
X119611100Y-81853841D02*
X119611100Y-81223841D01*
X122490100Y-76712600D02*
X124240100Y-76712600D01*
X122490100Y-76832600D02*
X124306100Y-76832600D01*
X122490100Y-76112600D02*
X123793100Y-76112600D01*
X122490100Y-76232600D02*
X123900100Y-76232600D01*
X122490100Y-76272600D02*
X123934100Y-76272600D01*
X118389100Y-77312600D02*
X120410100Y-77312600D01*
X118228100Y-78113600D02*
X120410100Y-78113600D01*
X122490100Y-76912600D02*
X124346100Y-76912600D01*
X118261100Y-77833600D02*
X120410100Y-77833600D01*
X118319100Y-77552600D02*
X120410100Y-77552600D01*
X122490100Y-76512600D02*
X124114100Y-76512600D01*
X122490100Y-77833600D02*
X124639100Y-77833600D01*
X118220100Y-78353600D02*
X124680100Y-78353600D01*
X119406100Y-75832600D02*
X123494100Y-75832600D01*
X122490100Y-77472600D02*
X124560100Y-77472600D01*
X118516100Y-76992600D02*
X120410100Y-76992600D01*
X118574100Y-76872600D02*
X120410100Y-76872600D01*
X122490100Y-78113600D02*
X124672100Y-78113600D01*
X118902100Y-76352600D02*
X120410100Y-76352600D01*
X122490100Y-76192600D02*
X123866100Y-76192600D01*
X119268100Y-75952600D02*
X123632100Y-75952600D01*
X120285100Y-75312600D02*
X122615100Y-75312600D01*
X122490100Y-77152600D02*
X124452100Y-77152600D01*
X118843100Y-76432600D02*
X120410100Y-76432600D01*
X119869100Y-75512600D02*
X123031100Y-75512600D01*
X118464100Y-77112600D02*
X120410100Y-77112600D01*
X119313100Y-75912600D02*
X123587100Y-75912600D01*
X118235100Y-78033600D02*
X120410100Y-78033600D01*
X118554100Y-76912600D02*
X120410100Y-76912600D01*
X118244100Y-77953600D02*
X120410100Y-77953600D01*
X122490100Y-78033600D02*
X124665100Y-78033600D01*
X122490100Y-76952600D02*
X124366100Y-76952600D01*
X119107100Y-76112600D02*
X120410100Y-76112600D01*
X122490100Y-77032600D02*
X124402100Y-77032600D01*
X119800100Y-75552600D02*
X123100100Y-75552600D01*
X118814100Y-76472600D02*
X120410100Y-76472600D01*
X122490100Y-76632600D02*
X124192100Y-76632600D01*
X120510100Y-75232600D02*
X122390100Y-75232600D01*
X120817100Y-75152600D02*
X122083100Y-75152600D01*
X118364100Y-77392600D02*
X120410100Y-77392600D01*
X122490100Y-76592600D02*
X124166100Y-76592600D01*
X119941100Y-75472600D02*
X122959100Y-75472600D01*
X120100100Y-75392600D02*
X122800100Y-75392600D01*
X119145100Y-76072600D02*
X120410100Y-76072600D01*
X122490100Y-77352600D02*
X124524100Y-77352600D01*
X118616100Y-76792600D02*
X120410100Y-76792600D01*
X118340100Y-77472600D02*
X120410100Y-77472600D01*
X118480100Y-77072600D02*
X120410100Y-77072600D01*
X119358100Y-75872600D02*
X123542100Y-75872600D01*
X122490100Y-77793600D02*
X124632100Y-77793600D01*
X118660100Y-76712600D02*
X120410100Y-76712600D01*
X122490100Y-77953600D02*
X124656100Y-77953600D01*
X118872100Y-76392600D02*
X120410100Y-76392600D01*
X122490100Y-77713600D02*
X124617100Y-77713600D01*
X118534100Y-76952600D02*
X120410100Y-76952600D01*
X118283100Y-77713600D02*
X120410100Y-77713600D01*
X122490100Y-76312600D02*
X123966100Y-76312600D01*
X122490100Y-78073600D02*
X124668100Y-78073600D01*
X122490100Y-76072600D02*
X123755100Y-76072600D01*
X118255100Y-77873600D02*
X120410100Y-77873600D01*
X119000100Y-76232600D02*
X120410100Y-76232600D01*
X118309100Y-77592600D02*
X120410100Y-77592600D01*
X119736100Y-75592600D02*
X123164100Y-75592600D01*
X118498100Y-77032600D02*
X120410100Y-77032600D01*
X120188100Y-75352600D02*
X122712100Y-75352600D01*
X120648100Y-75192600D02*
X122252100Y-75192600D01*
X118329100Y-77512600D02*
X120410100Y-77512600D01*
X122490100Y-76352600D02*
X123998100Y-76352600D01*
X118966100Y-76272600D02*
X120410100Y-76272600D01*
X118226100Y-78153600D02*
X124674100Y-78153600D01*
X122490100Y-76392600D02*
X124028100Y-76392600D01*
X118684100Y-76672600D02*
X120410100Y-76672600D01*
X118352100Y-77432600D02*
X120410100Y-77432600D01*
X122490100Y-77272600D02*
X124497100Y-77272600D01*
X118268100Y-77793600D02*
X120410100Y-77793600D01*
X122490100Y-77312600D02*
X124511100Y-77312600D01*
X119034100Y-76192600D02*
X120410100Y-76192600D01*
X121048100Y-75112600D02*
X121852100Y-75112600D01*
X122490100Y-76552600D02*
X124140100Y-76552600D01*
X122490100Y-77512600D02*
X124571100Y-77512600D01*
X122490100Y-76152600D02*
X123830100Y-76152600D01*
X118239100Y-77993600D02*
X120410100Y-77993600D01*
X122490100Y-76672600D02*
X124216100Y-76672600D01*
X118432100Y-77192600D02*
X120410100Y-77192600D01*
X118934100Y-76312600D02*
X120410100Y-76312600D01*
X119455100Y-75792600D02*
X123445100Y-75792600D01*
X120391100Y-75272600D02*
X122509100Y-75272600D01*
X118403100Y-77272600D02*
X120410100Y-77272600D01*
X119185100Y-76032600D02*
X123715100Y-76032600D01*
X119070100Y-76152600D02*
X120410100Y-76152600D01*
X120018100Y-75432600D02*
X122882100Y-75432600D01*
X118249100Y-77913600D02*
X120410100Y-77913600D01*
X118220100Y-78273600D02*
X124680100Y-78273600D01*
X122490100Y-77632600D02*
X124600100Y-77632600D01*
X119226100Y-75992600D02*
X123674100Y-75992600D01*
X118638100Y-76752600D02*
X120410100Y-76752600D01*
X122490100Y-77913600D02*
X124651100Y-77913600D01*
X118594100Y-76832600D02*
X120410100Y-76832600D01*
X119674100Y-75632600D02*
X123226100Y-75632600D01*
X122490100Y-77993600D02*
X124661100Y-77993600D01*
X122490100Y-77592600D02*
X124591100Y-77592600D01*
X118786100Y-76512600D02*
X120410100Y-76512600D01*
X118220100Y-78313600D02*
X124680100Y-78313600D01*
X122490100Y-77673600D02*
X124609100Y-77673600D01*
X122490100Y-77873600D02*
X124645100Y-77873600D01*
X118376100Y-77352600D02*
X120410100Y-77352600D01*
X118223100Y-78193600D02*
X124677100Y-78193600D01*
X118760100Y-76552600D02*
X120410100Y-76552600D01*
X118300100Y-77632600D02*
X120410100Y-77632600D01*
X122490100Y-77232600D02*
X124483100Y-77232600D01*
X119616100Y-75672600D02*
X123284100Y-75672600D01*
X122490100Y-77072600D02*
X124420100Y-77072600D01*
X118708100Y-76632600D02*
X120410100Y-76632600D01*
X122490100Y-77112600D02*
X124436100Y-77112600D01*
X118417100Y-77232600D02*
X120410100Y-77232600D01*
X118291100Y-77673600D02*
X120410100Y-77673600D01*
X122490100Y-76872600D02*
X124326100Y-76872600D01*
X119296100Y-81538841D02*
X119926100Y-81538841D01*
X122490100Y-77432600D02*
X124548100Y-77432600D01*
X122490100Y-76472600D02*
X124086100Y-76472600D01*
X122490100Y-77552600D02*
X124581100Y-77552600D01*
X118275100Y-77753600D02*
X120410100Y-77753600D01*
X122490100Y-76432600D02*
X124057100Y-76432600D01*
X122490100Y-76792600D02*
X124284100Y-76792600D01*
X119506100Y-75752600D02*
X123394100Y-75752600D01*
X124720100Y-78353600D02*
G75*
G03*
X124720100Y-78353600I-3270000J0D01*
G01*
%TO.C,S1*%
X170283649Y-74324288D02*
X170283649Y-75824288D01*
X177283649Y-75824288D02*
X177283649Y-74324288D01*
X176033649Y-71824288D02*
X171533649Y-71824288D01*
X171533649Y-78324288D02*
X176033649Y-78324288D01*
D22*
%TO.C,J3*%
X141490100Y-67428400D02*
X141715100Y-67953400D01*
D23*
X125006100Y-82677000D02*
X125006100Y-89204800D01*
D22*
X125032100Y-67428400D02*
X124807100Y-67953400D01*
D23*
X141516100Y-80010000D02*
X141516100Y-67411600D01*
X125006100Y-89204800D02*
X141516100Y-89204800D01*
X125006100Y-67411600D02*
X125006100Y-80010000D01*
X141516100Y-89204800D02*
X141516100Y-82677000D01*
X141516100Y-67411600D02*
X125006100Y-67411600D01*
D22*
X124507079Y-74853378D02*
G75*
G03*
X124632100Y-74503400I-278979J296978D01*
G01*
X142165099Y-72978401D02*
G75*
G03*
X141715100Y-67953400I-7920497J1823352D01*
G01*
X124632101Y-74503400D02*
G75*
G03*
X124357100Y-72978400I-16057301J-2108300D01*
G01*
X124807101Y-67953400D02*
G75*
G03*
X124357100Y-72978401I7470499J-3201650D01*
G01*
X141890100Y-74503400D02*
G75*
G03*
X142015100Y-74853400I404002J-53035D01*
G01*
X142165100Y-72978400D02*
G75*
G03*
X141890100Y-74503400I15782311J-3633286D01*
G01*
D19*
%TO.C,C4*%
X158253100Y-118712348D02*
X158253100Y-119234852D01*
X156783100Y-118712348D02*
X156783100Y-119234852D01*
%TO.C,C3*%
X123582100Y-119615852D02*
X123582100Y-119093348D01*
X122112100Y-119615852D02*
X122112100Y-119093348D01*
%TO.C,C5*%
X149798100Y-118204348D02*
X149798100Y-118726852D01*
X151268100Y-118204348D02*
X151268100Y-118726852D01*
%TO.C,C2*%
X118300100Y-83982600D02*
X120410100Y-83982600D01*
X118594100Y-83182600D02*
X120410100Y-83182600D01*
X122490100Y-82502600D02*
X123830100Y-82502600D01*
X122490100Y-82422600D02*
X123755100Y-82422600D01*
X118872100Y-82742600D02*
X120410100Y-82742600D01*
X118352100Y-83782600D02*
X120410100Y-83782600D01*
X122490100Y-83382600D02*
X124402100Y-83382600D01*
X122490100Y-83422600D02*
X124420100Y-83422600D01*
X122490100Y-82662600D02*
X123966100Y-82662600D01*
X121048100Y-81462600D02*
X121852100Y-81462600D01*
X118222100Y-84583600D02*
X124678100Y-84583600D01*
X122490100Y-84263600D02*
X124651100Y-84263600D01*
X118464100Y-83462600D02*
X120410100Y-83462600D01*
X118329100Y-83862600D02*
X120410100Y-83862600D01*
X118226100Y-84503600D02*
X124674100Y-84503600D01*
X122490100Y-82622600D02*
X123934100Y-82622600D01*
X122490100Y-83902600D02*
X124581100Y-83902600D01*
X118534100Y-83302600D02*
X120410100Y-83302600D01*
X118786100Y-82862600D02*
X120410100Y-82862600D01*
X118228100Y-84463600D02*
X120410100Y-84463600D01*
X118498100Y-83382600D02*
X120410100Y-83382600D01*
X118244100Y-84303600D02*
X120410100Y-84303600D01*
X122490100Y-83062600D02*
X124240100Y-83062600D01*
X119145100Y-82422600D02*
X120410100Y-82422600D01*
X122490100Y-83502600D02*
X124452100Y-83502600D01*
X122490100Y-82782600D02*
X124057100Y-82782600D01*
X122490100Y-84383600D02*
X124665100Y-84383600D01*
X118843100Y-82782600D02*
X120410100Y-82782600D01*
X118403100Y-83622600D02*
X120410100Y-83622600D01*
X122490100Y-82542600D02*
X123866100Y-82542600D01*
X120018100Y-81782600D02*
X122882100Y-81782600D01*
X119296100Y-87888841D02*
X119926100Y-87888841D01*
X120100100Y-81742600D02*
X122800100Y-81742600D01*
X122490100Y-83182600D02*
X124306100Y-83182600D01*
X119358100Y-82222600D02*
X123542100Y-82222600D01*
X118376100Y-83702600D02*
X120410100Y-83702600D01*
X122490100Y-83222600D02*
X124326100Y-83222600D01*
X118417100Y-83582600D02*
X120410100Y-83582600D01*
X118432100Y-83542600D02*
X120410100Y-83542600D01*
X122490100Y-83822600D02*
X124560100Y-83822600D01*
X119800100Y-81902600D02*
X123100100Y-81902600D01*
X122490100Y-82582600D02*
X123900100Y-82582600D01*
X119034100Y-82542600D02*
X120410100Y-82542600D01*
X122490100Y-83942600D02*
X124591100Y-83942600D01*
X122490100Y-83302600D02*
X124366100Y-83302600D01*
X122490100Y-82942600D02*
X124166100Y-82942600D01*
X118480100Y-83422600D02*
X120410100Y-83422600D01*
X119506100Y-82102600D02*
X123394100Y-82102600D01*
X122490100Y-83782600D02*
X124548100Y-83782600D01*
X118574100Y-83222600D02*
X120410100Y-83222600D01*
X118220100Y-84663600D02*
X124680100Y-84663600D01*
X119941100Y-81822600D02*
X122959100Y-81822600D01*
X122490100Y-83342600D02*
X124384100Y-83342600D01*
X122490100Y-84343600D02*
X124661100Y-84343600D01*
X118223100Y-84543600D02*
X124677100Y-84543600D01*
X118660100Y-83062600D02*
X120410100Y-83062600D01*
X118340100Y-83822600D02*
X120410100Y-83822600D01*
X122490100Y-83262600D02*
X124346100Y-83262600D01*
X120391100Y-81622600D02*
X122509100Y-81622600D01*
X122490100Y-83622600D02*
X124497100Y-83622600D01*
X119616100Y-82022600D02*
X123284100Y-82022600D01*
X118232100Y-84423600D02*
X120410100Y-84423600D01*
X122490100Y-83742600D02*
X124536100Y-83742600D01*
X122490100Y-83142600D02*
X124284100Y-83142600D01*
X118516100Y-83342600D02*
X120410100Y-83342600D01*
X122490100Y-84303600D02*
X124656100Y-84303600D01*
X118616100Y-83142600D02*
X120410100Y-83142600D01*
X122490100Y-82462600D02*
X123793100Y-82462600D01*
X119455100Y-82142600D02*
X123445100Y-82142600D01*
X122490100Y-82982600D02*
X124192100Y-82982600D01*
X122490100Y-83982600D02*
X124600100Y-83982600D01*
X122490100Y-82862600D02*
X124114100Y-82862600D01*
X118249100Y-84263600D02*
X120410100Y-84263600D01*
X118291100Y-84023600D02*
X120410100Y-84023600D01*
X122490100Y-84103600D02*
X124625100Y-84103600D01*
X118220100Y-84623600D02*
X124680100Y-84623600D01*
X122490100Y-83582600D02*
X124483100Y-83582600D01*
X122490100Y-83542600D02*
X124468100Y-83542600D01*
X122490100Y-84223600D02*
X124645100Y-84223600D01*
X118934100Y-82662600D02*
X120410100Y-82662600D01*
X118638100Y-83102600D02*
X120410100Y-83102600D01*
X122490100Y-83702600D02*
X124524100Y-83702600D01*
X122490100Y-83462600D02*
X124436100Y-83462600D01*
X122490100Y-84143600D02*
X124632100Y-84143600D01*
X120188100Y-81702600D02*
X122712100Y-81702600D01*
X120510100Y-81582600D02*
X122390100Y-81582600D01*
X120285100Y-81662600D02*
X122615100Y-81662600D01*
X118734100Y-82942600D02*
X120410100Y-82942600D01*
X118319100Y-83902600D02*
X120410100Y-83902600D01*
X122490100Y-83862600D02*
X124571100Y-83862600D01*
X122490100Y-84423600D02*
X124668100Y-84423600D01*
X119674100Y-81982600D02*
X123226100Y-81982600D01*
X118261100Y-84183600D02*
X120410100Y-84183600D01*
X122490100Y-83662600D02*
X124511100Y-83662600D01*
X118814100Y-82822600D02*
X120410100Y-82822600D01*
X119226100Y-82342600D02*
X123674100Y-82342600D01*
X118275100Y-84103600D02*
X120410100Y-84103600D01*
X122490100Y-83102600D02*
X124262100Y-83102600D01*
X118220100Y-84703600D02*
X124680100Y-84703600D01*
X118255100Y-84223600D02*
X120410100Y-84223600D01*
X120648100Y-81542600D02*
X122252100Y-81542600D01*
X122490100Y-84023600D02*
X124609100Y-84023600D01*
X120817100Y-81502600D02*
X122083100Y-81502600D01*
X118239100Y-84343600D02*
X120410100Y-84343600D01*
X118448100Y-83502600D02*
X120410100Y-83502600D01*
X118902100Y-82702600D02*
X120410100Y-82702600D01*
X118760100Y-82902600D02*
X120410100Y-82902600D01*
X119185100Y-82382600D02*
X123715100Y-82382600D01*
X118364100Y-83742600D02*
X120410100Y-83742600D01*
X119736100Y-81942600D02*
X123164100Y-81942600D01*
X119560100Y-82062600D02*
X123340100Y-82062600D01*
X118554100Y-83262600D02*
X120410100Y-83262600D01*
X122490100Y-82902600D02*
X124140100Y-82902600D01*
X118309100Y-83942600D02*
X120410100Y-83942600D01*
X122490100Y-82702600D02*
X123998100Y-82702600D01*
X118268100Y-84143600D02*
X120410100Y-84143600D01*
X118283100Y-84063600D02*
X120410100Y-84063600D01*
X119268100Y-82302600D02*
X123632100Y-82302600D01*
X122490100Y-84463600D02*
X124672100Y-84463600D01*
X119070100Y-82502600D02*
X120410100Y-82502600D01*
X119313100Y-82262600D02*
X123587100Y-82262600D01*
X122490100Y-84183600D02*
X124639100Y-84183600D01*
X122490100Y-82742600D02*
X124028100Y-82742600D01*
X122490100Y-83022600D02*
X124216100Y-83022600D01*
X119406100Y-82182600D02*
X123494100Y-82182600D01*
X118708100Y-82982600D02*
X120410100Y-82982600D01*
X118684100Y-83022600D02*
X120410100Y-83022600D01*
X122490100Y-82822600D02*
X124086100Y-82822600D01*
X118235100Y-84383600D02*
X120410100Y-84383600D01*
X119107100Y-82462600D02*
X120410100Y-82462600D01*
X119611100Y-88203841D02*
X119611100Y-87573841D01*
X122490100Y-84063600D02*
X124617100Y-84063600D01*
X118389100Y-83662600D02*
X120410100Y-83662600D01*
X119000100Y-82582600D02*
X120410100Y-82582600D01*
X119869100Y-81862600D02*
X123031100Y-81862600D01*
X118966100Y-82622600D02*
X120410100Y-82622600D01*
X124720100Y-84703600D02*
G75*
G03*
X124720100Y-84703600I-3270000J0D01*
G01*
%TD*%
%LPC*%
%TO.C,J1*%
G36*
X177304449Y-139301657D02*
G01*
X119304449Y-139301657D01*
X119304449Y-130301657D01*
X177304449Y-130301657D01*
X177304449Y-139301657D01*
G37*
%TD*%
D24*
%TO.C,D1*%
X164262566Y-74259229D03*
D25*
X166802566Y-74259229D03*
%TD*%
D26*
%TO.C,J4*%
X177051100Y-86827600D03*
D27*
X177051100Y-84287600D03*
X177051100Y-81747600D03*
%TD*%
D28*
%TO.C,J2*%
X147893176Y-77697037D03*
X161033176Y-77697037D03*
D29*
X150963176Y-80407037D03*
X153463176Y-80407037D03*
X155463176Y-80407037D03*
D30*
X157963176Y-80407037D03*
%TD*%
D31*
%TO.C,U5*%
X171361100Y-115593600D03*
X170091100Y-115593600D03*
X168821100Y-115593600D03*
X167551100Y-115593600D03*
X166281100Y-115593600D03*
X165011100Y-115593600D03*
X163741100Y-115593600D03*
X162471100Y-115593600D03*
X161201100Y-115593600D03*
X159931100Y-115593600D03*
X159931100Y-124893600D03*
X161201100Y-124893600D03*
X162471100Y-124893600D03*
X163741100Y-124893600D03*
X165011100Y-124893600D03*
X166281100Y-124893600D03*
X167551100Y-124893600D03*
X168821100Y-124893600D03*
X170091100Y-124893600D03*
X171361100Y-124893600D03*
%TD*%
%TO.C,U4*%
X147866100Y-115593600D03*
X146596100Y-115593600D03*
X145326100Y-115593600D03*
X144056100Y-115593600D03*
X142786100Y-115593600D03*
X141516100Y-115593600D03*
X140246100Y-115593600D03*
X138976100Y-115593600D03*
X137706100Y-115593600D03*
X136436100Y-115593600D03*
X136436100Y-124893600D03*
X137706100Y-124893600D03*
X138976100Y-124893600D03*
X140246100Y-124893600D03*
X141516100Y-124893600D03*
X142786100Y-124893600D03*
X144056100Y-124893600D03*
X145326100Y-124893600D03*
X146596100Y-124893600D03*
X147866100Y-124893600D03*
%TD*%
D32*
%TO.C,U6*%
X132626100Y-115863600D03*
X131356100Y-115863600D03*
X130086100Y-115863600D03*
X128816100Y-115863600D03*
X127546100Y-115863600D03*
X126276100Y-115863600D03*
X125006100Y-115863600D03*
X125006100Y-120813600D03*
X126276100Y-120813600D03*
X127546100Y-120813600D03*
X128816100Y-120813600D03*
X130086100Y-120813600D03*
X131356100Y-120813600D03*
X132626100Y-120813600D03*
%TD*%
D33*
%TO.C,U1*%
X121833358Y-93557900D03*
X135752558Y-103207100D03*
X133212558Y-103207100D03*
X130672558Y-103207100D03*
X128132558Y-103207100D03*
D34*
X125592558Y-103207100D03*
D33*
X119293358Y-91017900D03*
X121833358Y-91017900D03*
X124373358Y-91017900D03*
X126913358Y-91017900D03*
X129453358Y-91017900D03*
X131993358Y-91017900D03*
X134533358Y-91017900D03*
X137073358Y-91017900D03*
X139613358Y-91017900D03*
X142153358Y-91017900D03*
X144693358Y-91017900D03*
X147233358Y-91017900D03*
X149773358Y-91017900D03*
X152313358Y-91017900D03*
D34*
X119293358Y-106257900D03*
D33*
X121833358Y-106257900D03*
X124373358Y-106257900D03*
X126913358Y-106257900D03*
X129453358Y-106257900D03*
X131993358Y-106257900D03*
X134533358Y-106257900D03*
X137073358Y-106257900D03*
X139613358Y-106257900D03*
X142153358Y-106257900D03*
X144693358Y-106257900D03*
X147233358Y-106257900D03*
X149773358Y-106257900D03*
X154853358Y-91017900D03*
X157393358Y-91017900D03*
X159933358Y-91017900D03*
X162473358Y-91017900D03*
X165013358Y-91017900D03*
X167553358Y-91017900D03*
X170093358Y-91017900D03*
X172633358Y-91017900D03*
X175173358Y-91017900D03*
X177713358Y-91017900D03*
X177713358Y-106257900D03*
X175173358Y-106257900D03*
X172633358Y-106257900D03*
X170093358Y-106257900D03*
X152313358Y-106257900D03*
X154853358Y-106257900D03*
X157393358Y-106257900D03*
X167553358Y-106257900D03*
X165013358Y-106257900D03*
X162473358Y-106257900D03*
X159933358Y-106257900D03*
D35*
X132263358Y-93456300D03*
D36*
X134263358Y-93456300D03*
X132263358Y-95456300D03*
X134263358Y-95456300D03*
X134263358Y-97456300D03*
X132263358Y-97456300D03*
D33*
X165013358Y-103717900D03*
X165013358Y-101177900D03*
X165013358Y-98637900D03*
X165013358Y-96097900D03*
X165013358Y-93557900D03*
D36*
X120023358Y-99907900D03*
X120023358Y-97367900D03*
%TD*%
D34*
%TO.C,C1*%
X121450100Y-79603600D03*
D33*
X121450100Y-77103600D03*
%TD*%
D37*
%TO.C,S1*%
X170533649Y-72824288D03*
X177033649Y-72824288D03*
X177033649Y-77324288D03*
X170533649Y-77324288D03*
%TD*%
D38*
%TO.C,J3*%
X127546100Y-78282800D03*
X138976100Y-78282800D03*
D39*
X137706100Y-84658200D03*
X136436100Y-87198200D03*
X135166100Y-84658200D03*
X133896100Y-87198200D03*
X132626100Y-84658200D03*
X131356100Y-87198200D03*
X130086100Y-84658200D03*
X128816100Y-87198200D03*
D40*
X139585700Y-73202800D03*
X137045700Y-74930000D03*
X129476500Y-73228200D03*
X126936500Y-74930000D03*
D41*
X141135100Y-81356200D03*
X125387100Y-81356200D03*
%TD*%
D42*
%TO.C,C4*%
X157518100Y-118023600D03*
X157518100Y-119923600D03*
%TD*%
D43*
%TO.C,C3*%
X122847100Y-120304600D03*
X122847100Y-118404600D03*
%TD*%
D42*
%TO.C,C5*%
X150533100Y-117515600D03*
X150533100Y-119415600D03*
%TD*%
D34*
%TO.C,C2*%
X121450100Y-85953600D03*
D33*
X121450100Y-83453600D03*
%TD*%
M02*
