%TF.GenerationSoftware,KiCad,Pcbnew,(6.0.4)*%
%TF.CreationDate,2023-08-14T23:38:21+02:00*%
%TF.ProjectId,TeensyROM,5465656e-7379-4524-9f4d-2e6b69636164,rev?*%
%TF.SameCoordinates,Original*%
%TF.FileFunction,Copper,L1,Top*%
%TF.FilePolarity,Positive*%
%FSLAX46Y46*%
G04 Gerber Fmt 4.6, Leading zero omitted, Abs format (unit mm)*
G04 Created by KiCad (PCBNEW (6.0.4)) date 2023-08-14 23:38:21*
%MOMM*%
%LPD*%
G01*
G04 APERTURE LIST*
G04 Aperture macros list*
%AMRoundRect*
0 Rectangle with rounded corners*
0 $1 Rounding radius*
0 $2 $3 $4 $5 $6 $7 $8 $9 X,Y pos of 4 corners*
0 Add a 4 corners polygon primitive as box body*
4,1,4,$2,$3,$4,$5,$6,$7,$8,$9,$2,$3,0*
0 Add four circle primitives for the rounded corners*
1,1,$1+$1,$2,$3*
1,1,$1+$1,$4,$5*
1,1,$1+$1,$6,$7*
1,1,$1+$1,$8,$9*
0 Add four rect primitives between the rounded corners*
20,1,$1+$1,$2,$3,$4,$5,0*
20,1,$1+$1,$4,$5,$6,$7,0*
20,1,$1+$1,$6,$7,$8,$9,0*
20,1,$1+$1,$8,$9,$2,$3,0*%
G04 Aperture macros list end*
%TA.AperFunction,SMDPad,CuDef*%
%ADD10R,1.500000X9.000000*%
%TD*%
%TA.AperFunction,ComponentPad*%
%ADD11R,1.800000X1.800000*%
%TD*%
%TA.AperFunction,ComponentPad*%
%ADD12C,1.800000*%
%TD*%
%TA.AperFunction,ComponentPad*%
%ADD13R,1.700000X1.700000*%
%TD*%
%TA.AperFunction,ComponentPad*%
%ADD14O,1.700000X1.700000*%
%TD*%
%TA.AperFunction,ComponentPad*%
%ADD15C,3.316000*%
%TD*%
%TA.AperFunction,ComponentPad*%
%ADD16C,1.428000*%
%TD*%
%TA.AperFunction,ComponentPad*%
%ADD17R,1.428000X1.428000*%
%TD*%
%TA.AperFunction,SMDPad,CuDef*%
%ADD18RoundRect,0.150000X-0.150000X0.875000X-0.150000X-0.875000X0.150000X-0.875000X0.150000X0.875000X0*%
%TD*%
%TA.AperFunction,SMDPad,CuDef*%
%ADD19RoundRect,0.150000X-0.150000X0.825000X-0.150000X-0.825000X0.150000X-0.825000X0.150000X0.825000X0*%
%TD*%
%TA.AperFunction,ComponentPad*%
%ADD20C,1.600000*%
%TD*%
%TA.AperFunction,ComponentPad*%
%ADD21R,1.600000X1.600000*%
%TD*%
%TA.AperFunction,ComponentPad*%
%ADD22R,1.300000X1.300000*%
%TD*%
%TA.AperFunction,ComponentPad*%
%ADD23C,1.300000*%
%TD*%
%TA.AperFunction,ComponentPad*%
%ADD24C,2.000000*%
%TD*%
%TA.AperFunction,ComponentPad*%
%ADD25C,1.397000*%
%TD*%
%TA.AperFunction,ComponentPad*%
%ADD26C,1.549400*%
%TD*%
%TA.AperFunction,ComponentPad*%
%ADD27C,2.108200*%
%TD*%
%TA.AperFunction,SMDPad,CuDef*%
%ADD28RoundRect,0.250000X-0.475000X0.250000X-0.475000X-0.250000X0.475000X-0.250000X0.475000X0.250000X0*%
%TD*%
%TA.AperFunction,SMDPad,CuDef*%
%ADD29RoundRect,0.250000X0.475000X-0.250000X0.475000X0.250000X-0.475000X0.250000X-0.475000X-0.250000X0*%
%TD*%
%TA.AperFunction,ViaPad*%
%ADD30C,0.955600*%
%TD*%
%TA.AperFunction,Conductor*%
%ADD31C,0.609600*%
%TD*%
%TA.AperFunction,Conductor*%
%ADD32C,1.270000*%
%TD*%
%TA.AperFunction,Conductor*%
%ADD33C,1.016000*%
%TD*%
%TA.AperFunction,Conductor*%
%ADD34C,0.152400*%
%TD*%
%TA.AperFunction,Conductor*%
%ADD35C,0.406400*%
%TD*%
%TA.AperFunction,Conductor*%
%ADD36C,0.304800*%
%TD*%
%TA.AperFunction,Conductor*%
%ADD37C,0.254000*%
%TD*%
%TA.AperFunction,Conductor*%
%ADD38C,0.635000*%
%TD*%
G04 APERTURE END LIST*
D10*
%TO.P,J1,1,GND@1*%
%TO.N,N/C*%
X121634449Y-134801657D03*
%TO.P,J1,2,+5V@2*%
X124174449Y-134801657D03*
%TO.P,J1,3,+5V@3*%
X126714449Y-134801657D03*
%TO.P,J1,4,~{IRQ}*%
X129254449Y-134801657D03*
%TO.P,J1,5,R/~{W}*%
X131794449Y-134801657D03*
%TO.P,J1,6,DOT_CLOCK*%
X134334449Y-134801657D03*
%TO.P,J1,7,~{I/O1}*%
X136874449Y-134801657D03*
%TO.P,J1,8,~{GAME}*%
X139414449Y-134801657D03*
%TO.P,J1,9,~{EXROM}*%
X141954449Y-134801657D03*
%TO.P,J1,10,~{I/O2}*%
X144494449Y-134801657D03*
%TO.P,J1,11,~{ROML}*%
X147034449Y-134801657D03*
%TO.P,J1,12,BA*%
X149574449Y-134801657D03*
%TO.P,J1,13,~{DMA}*%
X152114449Y-134801657D03*
%TO.P,J1,14,D7*%
X154654449Y-134801657D03*
%TO.P,J1,15,D6*%
X157194449Y-134801657D03*
%TO.P,J1,16,D5*%
X159734449Y-134801657D03*
%TO.P,J1,17,D4*%
X162274449Y-134801657D03*
%TO.P,J1,18,D3*%
X164814449Y-134801657D03*
%TO.P,J1,19,D2*%
X167354449Y-134801657D03*
%TO.P,J1,20,D1*%
X169894449Y-134801657D03*
%TO.P,J1,21,D0*%
X172434449Y-134801657D03*
%TO.P,J1,22,GND@22*%
X174974449Y-134801657D03*
%TD*%
D11*
%TO.P,D1,1*%
%TO.N,N/C*%
X164262566Y-74259229D03*
D12*
%TO.P,D1,2*%
X166802566Y-74259229D03*
%TD*%
D13*
%TO.P,J4,1,1*%
%TO.N,/DEBUG*%
X177051100Y-86827600D03*
D14*
%TO.P,J4,2,2*%
%TO.N,GND*%
X177051100Y-84287600D03*
%TO.P,J4,3,3*%
%TO.N,/LED*%
X177051100Y-81747600D03*
%TD*%
D15*
%TO.P,J2,SH2,6*%
%TO.N,GND*%
X147893176Y-77697037D03*
%TO.P,J2,SH1,5*%
X161033176Y-77697037D03*
D16*
%TO.P,J2,4*%
%TO.N,N/C*%
X150963176Y-80407037D03*
%TO.P,J2,3*%
X153463176Y-80407037D03*
%TO.P,J2,2*%
X155463176Y-80407037D03*
D17*
%TO.P,J2,1*%
X157963176Y-80407037D03*
%TD*%
D18*
%TO.P,U5,1,DIR*%
%TO.N,/R{slash}~{W}*%
X171361100Y-115593600D03*
%TO.P,U5,2,A1*%
%TO.N,/D0_B*%
X170091100Y-115593600D03*
%TO.P,U5,3,A2*%
%TO.N,/D1_B*%
X168821100Y-115593600D03*
%TO.P,U5,4,A3*%
%TO.N,/D2_B*%
X167551100Y-115593600D03*
%TO.P,U5,5,A4*%
%TO.N,/D3_B*%
X166281100Y-115593600D03*
%TO.P,U5,6,A5*%
%TO.N,/D4_B*%
X165011100Y-115593600D03*
%TO.P,U5,7,A6*%
%TO.N,/D5_B*%
X163741100Y-115593600D03*
%TO.P,U5,8,A7*%
%TO.N,/D6_B*%
X162471100Y-115593600D03*
%TO.P,U5,9,A8*%
%TO.N,/D7_B*%
X161201100Y-115593600D03*
%TO.P,U5,10,GND*%
%TO.N,GND*%
X159931100Y-115593600D03*
%TO.P,U5,11,B8*%
%TO.N,/D7*%
X159931100Y-124893600D03*
%TO.P,U5,12,B7*%
%TO.N,/D6*%
X161201100Y-124893600D03*
%TO.P,U5,13,B6*%
%TO.N,/D5*%
X162471100Y-124893600D03*
%TO.P,U5,14,B5*%
%TO.N,/D4*%
X163741100Y-124893600D03*
%TO.P,U5,15,B4*%
%TO.N,/D3*%
X165011100Y-124893600D03*
%TO.P,U5,16,B3*%
%TO.N,/D2*%
X166281100Y-124893600D03*
%TO.P,U5,17,B2*%
%TO.N,/D1*%
X167551100Y-124893600D03*
%TO.P,U5,18,B1*%
%TO.N,/D0*%
X168821100Y-124893600D03*
%TO.P,U5,19,G*%
%TO.N,/~{DATA_CE}*%
X170091100Y-124893600D03*
%TO.P,U5,20,VCC*%
%TO.N,+3V3*%
X171361100Y-124893600D03*
%TD*%
%TO.P,U4,1,DIR*%
%TO.N,GND*%
X147866100Y-115593600D03*
%TO.P,U4,2,A1*%
%TO.N,/BA_B*%
X146596100Y-115593600D03*
%TO.P,U4,3,A2*%
%TO.N,/~{ROML_B}*%
X145326100Y-115593600D03*
%TO.P,U4,4,A3*%
%TO.N,/~{IO2_B}*%
X144056100Y-115593600D03*
%TO.P,U4,5,A4*%
%TO.N,/~{ROMH_B}*%
X142786100Y-115593600D03*
%TO.P,U4,6,A5*%
%TO.N,/~{IO1_B}*%
X141516100Y-115593600D03*
%TO.P,U4,7,A6*%
%TO.N,/DOT_CLK_B*%
X140246100Y-115593600D03*
%TO.P,U4,8,A7*%
%TO.N,/R{slash}~{W_B}*%
X138976100Y-115593600D03*
%TO.P,U4,9,A8*%
%TO.N,/PHI2_B*%
X137706100Y-115593600D03*
%TO.P,U4,10,GND*%
%TO.N,GND*%
X136436100Y-115593600D03*
%TO.P,U4,11,B8*%
%TO.N,/PHI2*%
X136436100Y-124893600D03*
%TO.P,U4,12,B7*%
%TO.N,/R{slash}~{W}*%
X137706100Y-124893600D03*
%TO.P,U4,13,B6*%
%TO.N,/DOT_CLK*%
X138976100Y-124893600D03*
%TO.P,U4,14,B5*%
%TO.N,/~{IO1}*%
X140246100Y-124893600D03*
%TO.P,U4,15,B4*%
%TO.N,/~{ROMH}*%
X141516100Y-124893600D03*
%TO.P,U4,16,B3*%
%TO.N,/~{IO2}*%
X142786100Y-124893600D03*
%TO.P,U4,17,B2*%
%TO.N,/~{ROML}*%
X144056100Y-124893600D03*
%TO.P,U4,18,B1*%
%TO.N,/BA*%
X145326100Y-124893600D03*
%TO.P,U4,19,G*%
%TO.N,GND*%
X146596100Y-124893600D03*
%TO.P,U4,20,VCC*%
%TO.N,+3V3*%
X147866100Y-124893600D03*
%TD*%
D19*
%TO.P,U6,1,I*%
%TO.N,/~{GAME_O}*%
X132626100Y-115863600D03*
%TO.P,U6,2,O*%
%TO.N,/~{GAME}*%
X131356100Y-115863600D03*
%TO.P,U6,3,I*%
%TO.N,/~{DMA_O}*%
X130086100Y-115863600D03*
%TO.P,U6,4,O*%
%TO.N,/~{DMA}*%
X128816100Y-115863600D03*
%TO.P,U6,5,I*%
%TO.N,/~{EXROM_O}*%
X127546100Y-115863600D03*
%TO.P,U6,6,O*%
%TO.N,/~{EXROM}*%
X126276100Y-115863600D03*
%TO.P,U6,7,GND*%
%TO.N,GND*%
X125006100Y-115863600D03*
%TO.P,U6,8,O*%
%TO.N,/~{RESET}*%
X125006100Y-120813600D03*
%TO.P,U6,9,I*%
%TO.N,/~{RESET_O}*%
X126276100Y-120813600D03*
%TO.P,U6,10,O*%
%TO.N,/~{NMI}*%
X127546100Y-120813600D03*
%TO.P,U6,11,I*%
%TO.N,/~{NMI_O}*%
X128816100Y-120813600D03*
%TO.P,U6,12,O*%
%TO.N,/~{IRQ}*%
X130086100Y-120813600D03*
%TO.P,U6,13,I*%
%TO.N,/~{IRQ_O}*%
X131356100Y-120813600D03*
%TO.P,U6,14,VCC*%
%TO.N,+3V3*%
X132626100Y-120813600D03*
%TD*%
D20*
%TO.P,U1,49*%
%TO.N,N/C*%
X121833358Y-93557900D03*
%TO.P,U1,59*%
X135752558Y-103207100D03*
%TO.P,U1,58*%
X133212558Y-103207100D03*
%TO.P,U1,57*%
X130672558Y-103207100D03*
%TO.P,U1,56*%
X128132558Y-103207100D03*
D21*
%TO.P,U1,55*%
X125592558Y-103207100D03*
D20*
%TO.P,U1,48*%
X119293358Y-91017900D03*
%TO.P,U1,47*%
X121833358Y-91017900D03*
%TO.P,U1,46*%
X124373358Y-91017900D03*
%TO.P,U1,45*%
X126913358Y-91017900D03*
%TO.P,U1,44*%
X129453358Y-91017900D03*
%TO.P,U1,43*%
X131993358Y-91017900D03*
%TO.P,U1,42*%
X134533358Y-91017900D03*
%TO.P,U1,41*%
X137073358Y-91017900D03*
%TO.P,U1,40*%
X139613358Y-91017900D03*
%TO.P,U1,39*%
X142153358Y-91017900D03*
%TO.P,U1,38*%
X144693358Y-91017900D03*
%TO.P,U1,37*%
X147233358Y-91017900D03*
%TO.P,U1,36*%
X149773358Y-91017900D03*
%TO.P,U1,35*%
X152313358Y-91017900D03*
D21*
%TO.P,U1,1*%
X119293358Y-106257900D03*
D20*
%TO.P,U1,2*%
X121833358Y-106257900D03*
%TO.P,U1,3*%
X124373358Y-106257900D03*
%TO.P,U1,4*%
X126913358Y-106257900D03*
%TO.P,U1,5*%
X129453358Y-106257900D03*
%TO.P,U1,6*%
X131993358Y-106257900D03*
%TO.P,U1,7*%
X134533358Y-106257900D03*
%TO.P,U1,8*%
X137073358Y-106257900D03*
%TO.P,U1,9*%
X139613358Y-106257900D03*
%TO.P,U1,10*%
X142153358Y-106257900D03*
%TO.P,U1,11*%
X144693358Y-106257900D03*
%TO.P,U1,12*%
X147233358Y-106257900D03*
%TO.P,U1,13*%
X149773358Y-106257900D03*
%TO.P,U1,34*%
X154853358Y-91017900D03*
%TO.P,U1,33*%
X157393358Y-91017900D03*
%TO.P,U1,32*%
X159933358Y-91017900D03*
%TO.P,U1,31*%
X162473358Y-91017900D03*
%TO.P,U1,30*%
X165013358Y-91017900D03*
%TO.P,U1,29*%
X167553358Y-91017900D03*
%TO.P,U1,28*%
X170093358Y-91017900D03*
%TO.P,U1,27*%
X172633358Y-91017900D03*
%TO.P,U1,26*%
X175173358Y-91017900D03*
%TO.P,U1,25*%
X177713358Y-91017900D03*
%TO.P,U1,24*%
X177713358Y-106257900D03*
%TO.P,U1,23*%
X175173358Y-106257900D03*
%TO.P,U1,22*%
X172633358Y-106257900D03*
%TO.P,U1,21*%
X170093358Y-106257900D03*
%TO.P,U1,14*%
X152313358Y-106257900D03*
%TO.P,U1,15*%
X154853358Y-106257900D03*
%TO.P,U1,16*%
X157393358Y-106257900D03*
%TO.P,U1,20*%
X167553358Y-106257900D03*
%TO.P,U1,19*%
X165013358Y-106257900D03*
%TO.P,U1,18*%
X162473358Y-106257900D03*
%TO.P,U1,17*%
X159933358Y-106257900D03*
D22*
%TO.P,U1,60*%
X132263358Y-93456300D03*
D23*
%TO.P,U1,65*%
X134263358Y-93456300D03*
%TO.P,U1,61*%
X132263358Y-95456300D03*
%TO.P,U1,64*%
X134263358Y-95456300D03*
%TO.P,U1,63*%
X134263358Y-97456300D03*
%TO.P,U1,62*%
X132263358Y-97456300D03*
D20*
%TO.P,U1,50*%
X165013358Y-103717900D03*
%TO.P,U1,51*%
X165013358Y-101177900D03*
%TO.P,U1,52*%
X165013358Y-98637900D03*
%TO.P,U1,53*%
X165013358Y-96097900D03*
%TO.P,U1,54*%
X165013358Y-93557900D03*
D23*
%TO.P,U1,67*%
X120023358Y-99907900D03*
%TO.P,U1,66*%
X120023358Y-97367900D03*
%TD*%
D21*
%TO.P,C1,1*%
%TO.N,N/C*%
X121450100Y-79603600D03*
D20*
%TO.P,C1,2*%
X121450100Y-77103600D03*
%TD*%
D24*
%TO.P,S1,1,1*%
%TO.N,GND*%
X170533649Y-72824288D03*
X177033649Y-72824288D03*
%TO.P,S1,2*%
%TO.N,N/C*%
X177033649Y-77324288D03*
X170533649Y-77324288D03*
%TD*%
D25*
%TO.P,J3,1,TD+*%
%TO.N,/ETH_T+*%
X137706100Y-84658200D03*
%TO.P,J3,2,TCT*%
%TO.N,Net-(C8-Pad2)*%
X136436100Y-87198200D03*
%TO.P,J3,3,TD-*%
%TO.N,/ETH_T-*%
X135166100Y-84658200D03*
%TO.P,J3,4,RD+*%
%TO.N,/ETH_R+*%
X133896100Y-87198200D03*
%TO.P,J3,5,RCT*%
%TO.N,Net-(C8-Pad2)*%
X132626100Y-84658200D03*
%TO.P,J3,6,RD-*%
%TO.N,/ETH_R-*%
X131356100Y-87198200D03*
%TO.P,J3,7,NC*%
%TO.N,unconnected-(J3-Pad7)*%
X130086100Y-84658200D03*
%TO.P,J3,8,C_GND*%
%TO.N,GND*%
X128816100Y-87198200D03*
D26*
%TO.P,J3,9,C*%
X139585700Y-73202800D03*
%TO.P,J3,10,A*%
%TO.N,/ETH_LED*%
X137045700Y-74930000D03*
%TO.P,J3,11,C1*%
%TO.N,GND*%
X129476500Y-73228200D03*
%TO.P,J3,12,A1*%
%TO.N,unconnected-(J3-Pad12)*%
X126936500Y-74930000D03*
D27*
%TO.P,J3,S1,S1*%
%TO.N,Net-(J3-PadS1)*%
X141135100Y-81356200D03*
%TO.P,J3,S2,S2*%
X125387100Y-81356200D03*
%TD*%
D28*
%TO.P,C4,1,1*%
%TO.N,GND*%
X157518100Y-118023600D03*
%TO.P,C4,2,2*%
%TO.N,+3V3*%
X157518100Y-119923600D03*
%TD*%
D29*
%TO.P,C3,1,1*%
%TO.N,GND*%
X122847100Y-120304600D03*
%TO.P,C3,2,2*%
%TO.N,+3V3*%
X122847100Y-118404600D03*
%TD*%
D28*
%TO.P,C5,1,1*%
%TO.N,GND*%
X150533100Y-117515600D03*
%TO.P,C5,2,2*%
%TO.N,+3V3*%
X150533100Y-119415600D03*
%TD*%
D21*
%TO.P,C2,1*%
%TO.N,N/C*%
X121450100Y-85953600D03*
D20*
%TO.P,C2,2*%
X121450100Y-83453600D03*
%TD*%
D30*
%TO.N,GND*%
X174917100Y-127736600D03*
%TO.N,+3V3*%
X121704100Y-127228600D03*
%TO.N,GND*%
X149898100Y-114528600D03*
%TO.N,+3V3*%
X135293100Y-112877600D03*
%TO.N,GND*%
X161709100Y-120751600D03*
X146596100Y-122275600D03*
X174917100Y-126339600D03*
%TO.N,+3V3*%
X125006100Y-113258600D03*
X121704100Y-128752600D03*
%TO.N,GND*%
X160439100Y-120751600D03*
X157772100Y-114528600D03*
%TO.N,+3V3*%
X123101100Y-121513600D03*
%TO.N,/R{slash}~{W}*%
X170599100Y-118846600D03*
X134277100Y-126847600D03*
%TO.N,/~{GAME}*%
X138785600Y-129133600D03*
X144056100Y-122402600D03*
%TO.N,/~{ROMH}*%
X131356100Y-124053600D03*
%TO.N,/~{RESET}*%
X126276100Y-125958600D03*
%TO.N,/~{NMI}*%
X128816100Y-125958600D03*
%TO.N,/PHI2*%
X130721100Y-127736600D03*
%TO.N,/D3_B*%
X152311100Y-100431600D03*
%TO.N,+3V3*%
X157010100Y-124561600D03*
X156121100Y-119608600D03*
X165646100Y-102082600D03*
X170091100Y-80238600D03*
X157772100Y-123799600D03*
X152184100Y-119608600D03*
X136436100Y-122529600D03*
X164376100Y-102082600D03*
%TO.N,/A13_B*%
X138976100Y-103098600D03*
%TO.N,GND*%
X140627100Y-103987600D03*
%TO.N,/R{slash}~{W_B}*%
X126022100Y-108559600D03*
%TO.N,/~{IRQ_O}*%
X131483100Y-119481600D03*
%TO.N,/~{GAME}*%
X173647100Y-103225600D03*
%TO.N,/~{EXROM_O}*%
X126403100Y-113131600D03*
X137325100Y-104368600D03*
%TO.N,/~{RESET}*%
X125133100Y-119481600D03*
%TO.N,/~{IRQ_O}*%
X129451100Y-119481600D03*
%TD*%
D31*
%TO.N,+5V*%
X126707900Y-134793600D02*
X126784100Y-132825100D01*
X120561100Y-106908600D02*
X120561100Y-94208600D01*
X124180600Y-127292100D02*
X124167900Y-134793600D01*
X126784100Y-127863600D02*
X126149100Y-127228600D01*
X120561100Y-94208600D02*
X119291100Y-92938600D01*
D32*
X119291100Y-91033600D02*
X119291100Y-83032600D01*
D31*
X126784100Y-132825100D02*
X126784100Y-127863600D01*
X124244100Y-127228600D02*
X124180600Y-127292100D01*
X126149100Y-127228600D02*
X124244100Y-127228600D01*
D32*
X119291100Y-83032600D02*
X121450100Y-80873600D01*
D31*
X121323100Y-124307600D02*
X121323100Y-107670600D01*
X121323100Y-107670600D02*
X120561100Y-106908600D01*
X119291100Y-92938600D02*
X119291100Y-91033600D01*
X124244100Y-127228600D02*
X121323100Y-124307600D01*
%TO.N,+3V3*%
X121627900Y-134793600D02*
X121704100Y-132825100D01*
X122847100Y-120254600D02*
X122847100Y-121259600D01*
X136436100Y-114020600D02*
X135293100Y-112877600D01*
%TO.N,GND*%
X157772100Y-114528600D02*
X158026100Y-114528600D01*
%TO.N,+3V3*%
X119291100Y-106908600D02*
X119291100Y-106273600D01*
%TO.N,GND*%
X149212300Y-115341400D02*
X149898100Y-114528600D01*
%TO.N,+3V3*%
X122847100Y-121259600D02*
X123101100Y-121513600D01*
D33*
%TO.N,GND*%
X161698100Y-118730600D02*
X161698100Y-120740600D01*
D32*
X149898100Y-114528600D02*
X156248100Y-114528600D01*
D33*
X160428100Y-118708600D02*
X160428100Y-120486600D01*
D31*
X157518100Y-118073600D02*
X157518100Y-117322600D01*
D34*
X158661100Y-116052600D02*
X158280100Y-116052600D01*
D31*
X158661100Y-115163600D02*
X159880300Y-115163600D01*
D34*
X161698100Y-120740600D02*
X161709100Y-120751600D01*
D31*
%TO.N,+3V3*%
X120180100Y-107797600D02*
X119291100Y-106908600D01*
X120180100Y-125704600D02*
X120180100Y-107797600D01*
X121704100Y-127228600D02*
X120180100Y-125704600D01*
X136436100Y-115468400D02*
X136436100Y-114020600D01*
D33*
%TO.N,GND*%
X160428100Y-118708600D02*
X156248100Y-114528600D01*
X174917100Y-132825100D02*
X174917100Y-126339600D01*
D32*
X156248100Y-114528600D02*
X157772100Y-114528600D01*
D31*
X158661100Y-116052600D02*
X158661100Y-115163600D01*
D35*
X150533100Y-117565600D02*
X150533100Y-116662200D01*
X150533100Y-116662200D02*
X149212300Y-115341400D01*
D33*
%TO.N,+3V3*%
X121704100Y-127228600D02*
X121704100Y-132825100D01*
D31*
%TO.N,GND*%
X148916543Y-115455932D02*
X149212300Y-115341400D01*
X157518100Y-117322600D02*
X158661100Y-116052600D01*
D33*
X158026100Y-114528600D02*
X158661100Y-115163600D01*
D31*
X174967900Y-134793600D02*
X174917100Y-132825100D01*
D33*
X160428100Y-120486600D02*
X160439100Y-120751600D01*
X160555100Y-118730600D02*
X161698100Y-118730600D01*
D31*
X159880300Y-115163600D02*
X159931100Y-115468400D01*
D33*
X157391100Y-115163600D02*
X158026100Y-115798600D01*
D31*
X146596100Y-125018800D02*
X146596100Y-122275600D01*
D34*
X158280100Y-116052600D02*
X158026100Y-115798600D01*
D31*
X147866100Y-115468400D02*
X148916543Y-115455932D01*
%TO.N,+3V3*%
X125006100Y-115265200D02*
X125006100Y-113258600D01*
D34*
%TO.N,/~{IRQ}*%
X130086100Y-126720600D02*
X129451100Y-127355600D01*
X130086100Y-121412000D02*
X130086100Y-126720600D01*
X129451100Y-132698100D02*
X129451100Y-127355600D01*
X129247900Y-134793600D02*
X129451100Y-132698100D01*
%TO.N,/R{slash}~{W}*%
X137706100Y-126339600D02*
X137706100Y-125018800D01*
X131787900Y-134793600D02*
X131991100Y-132698100D01*
X171361100Y-118084600D02*
X170599100Y-118846600D01*
X137198100Y-126847600D02*
X134277100Y-126847600D01*
X131991100Y-132698100D02*
X131991100Y-127863600D01*
X133007100Y-126847600D02*
X134277100Y-126847600D01*
X171361100Y-115468400D02*
X171361100Y-118084600D01*
X137198100Y-126847600D02*
X137706100Y-126339600D01*
X131991100Y-127863600D02*
X133007100Y-126847600D01*
%TO.N,/DOT_CLK*%
X135420100Y-127292100D02*
X137515600Y-127292100D01*
X138976100Y-126339600D02*
X138976100Y-125018800D01*
X137515600Y-127292100D02*
X138150600Y-126657100D01*
X134531100Y-128181100D02*
X135420100Y-127292100D01*
X134531100Y-132698100D02*
X134531100Y-128181100D01*
X134327900Y-134793600D02*
X134531100Y-132698100D01*
X138658600Y-126657100D02*
X138976100Y-126339600D01*
X138150600Y-126657100D02*
X138658600Y-126657100D01*
%TO.N,/~{IO1}*%
X138214100Y-127355600D02*
X139357100Y-127355600D01*
X140246100Y-126466600D02*
X140246100Y-125018800D01*
X137071100Y-128498600D02*
X138214100Y-127355600D01*
X139357100Y-127355600D02*
X140246100Y-126466600D01*
X137071100Y-132698100D02*
X137071100Y-128498600D01*
X136867900Y-134793600D02*
X137071100Y-132698100D01*
%TO.N,/~{GAME}*%
X139103100Y-122275600D02*
X143929100Y-122275600D01*
X139420600Y-129324100D02*
X139407900Y-134793600D01*
X131356100Y-116306600D02*
X131737100Y-116687600D01*
X131356100Y-115265200D02*
X131356100Y-116306600D01*
X131737100Y-116687600D02*
X133515100Y-116687600D01*
X133515100Y-116687600D02*
X139103100Y-122275600D01*
X143929100Y-122275600D02*
X144056100Y-122402600D01*
X138785600Y-129133600D02*
X139230100Y-129133600D01*
X139230100Y-129133600D02*
X139420600Y-129324100D01*
%TO.N,/~{EXROM}*%
X141947900Y-134793600D02*
X142151100Y-132698100D01*
X142151100Y-123545600D02*
X141643100Y-123037600D01*
X142151100Y-132698100D02*
X142151100Y-123545600D01*
X141643100Y-123037600D02*
X138214100Y-123037600D01*
X126276100Y-117195600D02*
X126276100Y-115265200D01*
X132880100Y-117703600D02*
X126784100Y-117703600D01*
X138214100Y-123037600D02*
X132880100Y-117703600D01*
X126784100Y-117703600D02*
X126276100Y-117195600D01*
%TO.N,/~{IO2}*%
X144056100Y-127863600D02*
X142786100Y-126593600D01*
X144487900Y-134793600D02*
X144056100Y-132444100D01*
X144056100Y-132444100D02*
X144056100Y-127863600D01*
X142786100Y-126593600D02*
X142786100Y-125018800D01*
%TO.N,/~{ROML}*%
X146596100Y-132444100D02*
X146596100Y-128371600D01*
X147027900Y-134793600D02*
X146596100Y-132444100D01*
X146278600Y-128054100D02*
X145262600Y-128054100D01*
X144056100Y-126847600D02*
X144056100Y-125018800D01*
X146596100Y-128371600D02*
X146278600Y-128054100D01*
X145262600Y-128054100D02*
X144056100Y-126847600D01*
%TO.N,/BA*%
X148183600Y-127419100D02*
X145643600Y-127419100D01*
X149136100Y-128371600D02*
X148183600Y-127419100D01*
X145326100Y-127101600D02*
X145326100Y-125018800D01*
X149567900Y-134793600D02*
X149136100Y-132444100D01*
X149136100Y-132444100D02*
X149136100Y-128371600D01*
X145643600Y-127419100D02*
X145326100Y-127101600D01*
%TO.N,/~{DMA}*%
X145707100Y-123291600D02*
X145961100Y-123545600D01*
X145961100Y-126339600D02*
X146215100Y-126593600D01*
X152057100Y-129641600D02*
X152057100Y-132444100D01*
X145961100Y-123545600D02*
X145961100Y-126339600D01*
X146215100Y-126593600D02*
X149009100Y-126593600D01*
X152107900Y-134793600D02*
X152311100Y-132698100D01*
X142024100Y-122656600D02*
X142659100Y-123291600D01*
X128816100Y-116560600D02*
X128816100Y-115265200D01*
X142659100Y-123291600D02*
X145707100Y-123291600D01*
X129451100Y-117195600D02*
X128816100Y-116560600D01*
X149009100Y-126593600D02*
X152057100Y-129641600D01*
X133134100Y-117195600D02*
X129451100Y-117195600D01*
X138595100Y-122656600D02*
X142024100Y-122656600D01*
X138595100Y-122656600D02*
X133134100Y-117195600D01*
X152057100Y-132444100D02*
X152311100Y-132698100D01*
%TO.N,/D7*%
X157772100Y-125323600D02*
X154660600Y-128435100D01*
X159880300Y-125323600D02*
X159931100Y-125018800D01*
X154660600Y-128435100D02*
X154647900Y-134793600D01*
X159880300Y-125323600D02*
X157772100Y-125323600D01*
%TO.N,/D6*%
X158280100Y-128879600D02*
X158788100Y-128879600D01*
X157187900Y-134793600D02*
X157391100Y-132698100D01*
X158788100Y-128879600D02*
X161201100Y-126466600D01*
X157391100Y-129768600D02*
X158280100Y-128879600D01*
X157391100Y-132698100D02*
X157391100Y-129768600D01*
X161201100Y-126466600D02*
X161201100Y-125018800D01*
%TO.N,/D5*%
X159727900Y-134793600D02*
X159931100Y-132698100D01*
X159931100Y-129133600D02*
X162471100Y-126593600D01*
X162471100Y-126593600D02*
X162471100Y-125018800D01*
X159931100Y-132698100D02*
X159931100Y-129133600D01*
%TO.N,/D4*%
X163741100Y-127228600D02*
X162280600Y-128689100D01*
X163741100Y-127228600D02*
X163741100Y-125018800D01*
X162280600Y-128689100D02*
X162267900Y-134793600D01*
%TO.N,/D3*%
X165011100Y-132698100D02*
X165011100Y-125018800D01*
X164807900Y-134793600D02*
X165011100Y-132698100D01*
%TO.N,/D2*%
X166916100Y-127863600D02*
X166281100Y-127228600D01*
X167347900Y-134793600D02*
X166916100Y-132444100D01*
X166281100Y-127228600D02*
X166281100Y-125018800D01*
X166916100Y-132444100D02*
X166916100Y-127863600D01*
%TO.N,/D1*%
X169456100Y-132444100D02*
X169456100Y-128498600D01*
X167551100Y-126593600D02*
X167551100Y-125018800D01*
X169456100Y-128498600D02*
X167551100Y-126593600D01*
X169887900Y-134793600D02*
X169456100Y-132444100D01*
%TO.N,/D0*%
X171996100Y-129768600D02*
X168821100Y-126593600D01*
X172427900Y-134793600D02*
X171996100Y-132444100D01*
X171996100Y-132444100D02*
X171996100Y-129768600D01*
X168821100Y-126593600D02*
X168821100Y-125018800D01*
%TO.N,/~{ROMH}*%
X131356100Y-124053600D02*
X132626100Y-124053600D01*
X141262100Y-123418600D02*
X141516100Y-123672600D01*
X132626100Y-124053600D02*
X133261100Y-123418600D01*
X133261100Y-123418600D02*
X141262100Y-123418600D01*
X141516100Y-123672600D02*
X141516100Y-125018800D01*
%TO.N,/~{RESET}*%
X125006100Y-124688600D02*
X126276100Y-125958600D01*
X125006100Y-121412000D02*
X125006100Y-124688600D01*
%TO.N,/~{NMI}*%
X127546100Y-121412000D02*
X127546100Y-124688600D01*
X127546100Y-124688600D02*
X128816100Y-125958600D01*
%TO.N,/PHI2*%
X136436100Y-125018800D02*
X133591300Y-125018800D01*
X133591300Y-125018800D02*
X130848100Y-127736600D01*
X130848100Y-127736600D02*
X130721100Y-127736600D01*
%TO.N,/D5_B*%
X163741100Y-112623600D02*
X162788600Y-111671100D01*
X163741100Y-112623600D02*
X163741100Y-115468400D01*
X144056100Y-111671100D02*
X139611100Y-107226100D01*
X162788600Y-111671100D02*
X144056100Y-111671100D01*
X139611100Y-107226100D02*
X139611100Y-106273600D01*
%TO.N,/D4_B*%
X142151100Y-107543600D02*
X142151100Y-106273600D01*
X165011100Y-111988600D02*
X165011100Y-115468400D01*
X163741100Y-110718600D02*
X145326100Y-110718600D01*
X165011100Y-111988600D02*
X163741100Y-110718600D01*
X145326100Y-110718600D02*
X142151100Y-107543600D01*
%TO.N,/D0_B*%
X147231100Y-105257600D02*
X147231100Y-106273600D01*
X170091100Y-112750600D02*
X170091100Y-115468400D01*
X147993100Y-104495600D02*
X147231100Y-105257600D01*
X170091100Y-112750600D02*
X165519100Y-108178600D01*
X165519100Y-108178600D02*
X154597100Y-108178600D01*
X153581100Y-107162600D02*
X153581100Y-105511600D01*
X152565100Y-104495600D02*
X147993100Y-104495600D01*
X154597100Y-108178600D02*
X153581100Y-107162600D01*
X153581100Y-105511600D02*
X152565100Y-104495600D01*
%TO.N,/D2_B*%
X164884100Y-109448600D02*
X150660100Y-109448600D01*
X167551100Y-112115600D02*
X167551100Y-115468400D01*
X149771100Y-108559600D02*
X150660100Y-109448600D01*
X167551100Y-112115600D02*
X164884100Y-109448600D01*
X149771100Y-106273600D02*
X149771100Y-108559600D01*
%TO.N,/D1_B*%
X152311100Y-106273600D02*
X152311100Y-107797600D01*
X168821100Y-112369600D02*
X168821100Y-115468400D01*
X165265100Y-108813600D02*
X153327100Y-108813600D01*
X168821100Y-112369600D02*
X165265100Y-108813600D01*
X152311100Y-107797600D02*
X153327100Y-108813600D01*
%TO.N,/D3_B*%
X147993100Y-110083600D02*
X145961100Y-108051600D01*
X149263100Y-100431600D02*
X152311100Y-100431600D01*
X166281100Y-111861600D02*
X164503100Y-110083600D01*
X164503100Y-110083600D02*
X147993100Y-110083600D01*
X145961100Y-103733600D02*
X149263100Y-100431600D01*
X145961100Y-108051600D02*
X145961100Y-103733600D01*
X166281100Y-115468400D02*
X166281100Y-111861600D01*
%TO.N,/D7_B*%
X161201100Y-115468400D02*
X161201100Y-113893600D01*
X166027100Y-107543600D02*
X166027100Y-105003600D01*
X172123100Y-113639600D02*
X166027100Y-107543600D01*
X172123100Y-118846600D02*
X172123100Y-113639600D01*
X163106100Y-113893600D02*
X163106100Y-118973600D01*
X161582100Y-113512600D02*
X162725100Y-113512600D01*
X167551100Y-103479600D02*
X167551100Y-91033600D01*
X170853100Y-120116600D02*
X172123100Y-118846600D01*
X162725100Y-113512600D02*
X163106100Y-113893600D01*
X161201100Y-113893600D02*
X161582100Y-113512600D01*
X163106100Y-118973600D02*
X164249100Y-120116600D01*
X166027100Y-105003600D02*
X167551100Y-103479600D01*
X164249100Y-120116600D02*
X170853100Y-120116600D01*
%TO.N,/D6_B*%
X170091100Y-101701600D02*
X170091100Y-91033600D01*
X171107100Y-120497600D02*
X172631100Y-118973600D01*
X163995100Y-120497600D02*
X171107100Y-120497600D01*
X172631100Y-118973600D02*
X172631100Y-113131600D01*
X162471100Y-115468400D02*
X162471100Y-118973600D01*
X172631100Y-113131600D02*
X166535100Y-107035600D01*
X162471100Y-118973600D02*
X163995100Y-120497600D01*
X166535100Y-107035600D02*
X166535100Y-105257600D01*
X166535100Y-105257600D02*
X170091100Y-101701600D01*
D32*
%TO.N,+3V3*%
X124371100Y-91033600D02*
X124371100Y-90144600D01*
D31*
X158280100Y-123291600D02*
X171361100Y-123291600D01*
X132245100Y-118338600D02*
X134912100Y-121005600D01*
X123101100Y-117068600D02*
X125006100Y-117068600D01*
D32*
X156502100Y-102082600D02*
X164376100Y-102082600D01*
D31*
X122847100Y-118454600D02*
X122847100Y-117322600D01*
D32*
X154851100Y-103733600D02*
X156502100Y-102082600D01*
D34*
X168186100Y-80238600D02*
X166281100Y-82143600D01*
D35*
X151941100Y-119365600D02*
X152184100Y-119608600D01*
D32*
X124371100Y-99923600D02*
X122720100Y-101574600D01*
D31*
X125006100Y-117068600D02*
X125006100Y-118211600D01*
D32*
X124371100Y-90144600D02*
X121450100Y-87223600D01*
D31*
X147866100Y-125018800D02*
X156552900Y-125018800D01*
D35*
X157518100Y-119873600D02*
X156386100Y-119873600D01*
D31*
X123101100Y-105257600D02*
X123101100Y-117068600D01*
X122720100Y-104876600D02*
X123101100Y-105257600D01*
X134912100Y-121005600D02*
X136436100Y-122529600D01*
D36*
X134531100Y-121386600D02*
X134912100Y-121005600D01*
D31*
X125133100Y-118338600D02*
X132245100Y-118338600D01*
D35*
X156386100Y-119873600D02*
X156121100Y-119608600D01*
D36*
X132626100Y-121412000D02*
X132651500Y-121386600D01*
D32*
X124371100Y-91033600D02*
X124371100Y-99923600D01*
X154851100Y-106273600D02*
X154851100Y-103733600D01*
D34*
X166281100Y-101447600D02*
X165646100Y-102082600D01*
D31*
X157772100Y-123799600D02*
X158280100Y-123291600D01*
X171361100Y-123291600D02*
X171361100Y-125018800D01*
X156552900Y-125018800D02*
X157010100Y-124561600D01*
X122720100Y-101574600D02*
X122720100Y-104876600D01*
D34*
X166281100Y-82143600D02*
X166281100Y-101447600D01*
X170091100Y-80238600D02*
X168186100Y-80238600D01*
D36*
X132651500Y-121386600D02*
X134531100Y-121386600D01*
D35*
X150533100Y-119365600D02*
X151941100Y-119365600D01*
X125006100Y-118211600D02*
X125133100Y-118338600D01*
D31*
X157010100Y-124561600D02*
X157772100Y-123799600D01*
X156121100Y-119608600D02*
X152184100Y-119608600D01*
D32*
X165646100Y-102082600D02*
X164376100Y-102082600D01*
D31*
X122847100Y-117322600D02*
X123101100Y-117068600D01*
D34*
%TO.N,/A13_B*%
X159804100Y-96748600D02*
X162471100Y-94081600D01*
X145326100Y-96748600D02*
X159804100Y-96748600D01*
X138976100Y-103098600D02*
X145326100Y-96748600D01*
X162471100Y-94081600D02*
X162471100Y-91033600D01*
%TO.N,GND*%
X165011100Y-94208600D02*
X165011100Y-91033600D01*
X140627100Y-103987600D02*
X146596100Y-98018600D01*
X146596100Y-98018600D02*
X161201100Y-98018600D01*
X161201100Y-98018600D02*
X165011100Y-94208600D01*
%TO.N,/~{DATA_CE}*%
X172758100Y-123291600D02*
X172758100Y-126212600D01*
X172631100Y-94589600D02*
X172631100Y-91033600D01*
X172758100Y-123291600D02*
X175425100Y-120624600D01*
X174155100Y-107797600D02*
X174155100Y-104749600D01*
X170345100Y-126847600D02*
X170091100Y-126593600D01*
X175425100Y-109067600D02*
X174155100Y-107797600D01*
X174155100Y-104749600D02*
X174663100Y-104241600D01*
X172123100Y-126847600D02*
X170345100Y-126847600D01*
X175425100Y-120624600D02*
X175425100Y-109067600D01*
X172758100Y-126212600D02*
X172123100Y-126847600D01*
X172631100Y-94589600D02*
X174663100Y-96621600D01*
X170091100Y-126593600D02*
X170091100Y-125018800D01*
X174663100Y-104241600D02*
X174663100Y-96621600D01*
%TO.N,/R{slash}~{W_B}*%
X138976100Y-115468400D02*
X139103100Y-115087400D01*
X133769100Y-108559600D02*
X126022100Y-108559600D01*
X139103100Y-113893600D02*
X133769100Y-108559600D01*
X139103100Y-115087400D02*
X139103100Y-113893600D01*
%TO.N,/DOT_CLK_B*%
X171361100Y-105257600D02*
X170853100Y-104749600D01*
X173647100Y-111480600D02*
X171361100Y-109194600D01*
X147231100Y-119354600D02*
X149771100Y-121894600D01*
X142405100Y-119354600D02*
X147231100Y-119354600D01*
X140246100Y-115468400D02*
X140373100Y-115341400D01*
X171869100Y-121894600D02*
X173647100Y-120116600D01*
X140373100Y-117322600D02*
X142405100Y-119354600D01*
X169075100Y-104749600D02*
X167551100Y-106273600D01*
X149771100Y-121894600D02*
X171869100Y-121894600D01*
X170853100Y-104749600D02*
X169075100Y-104749600D01*
X140373100Y-115341400D02*
X140373100Y-117322600D01*
X173647100Y-120116600D02*
X173647100Y-111480600D01*
X171361100Y-109194600D02*
X171361100Y-105257600D01*
%TO.N,/~{IO1_B}*%
X141389100Y-115087400D02*
X141389100Y-113385600D01*
X141516100Y-115468400D02*
X141389100Y-115087400D01*
X126911100Y-107162600D02*
X126911100Y-106273600D01*
X137579100Y-109575600D02*
X135801100Y-109575600D01*
X134277100Y-108051600D02*
X127800100Y-108051600D01*
X141389100Y-113385600D02*
X137579100Y-109575600D01*
X127800100Y-108051600D02*
X126911100Y-107162600D01*
X135801100Y-109575600D02*
X134277100Y-108051600D01*
%TO.N,/~{IO2_B}*%
X143929100Y-116941600D02*
X143675100Y-117195600D01*
X144056100Y-115468400D02*
X143929100Y-115341400D01*
X129959100Y-107543600D02*
X129451100Y-107035600D01*
X142151100Y-116941600D02*
X142151100Y-112877600D01*
X142405100Y-117195600D02*
X142151100Y-116941600D01*
X134658100Y-107543600D02*
X129959100Y-107543600D01*
X138214100Y-108940600D02*
X136055100Y-108940600D01*
X143675100Y-117195600D02*
X142405100Y-117195600D01*
X129451100Y-107035600D02*
X129451100Y-106273600D01*
X136055100Y-108940600D02*
X134658100Y-107543600D01*
X142151100Y-112877600D02*
X138214100Y-108940600D01*
X143929100Y-115341400D02*
X143929100Y-116941600D01*
%TO.N,/~{ROML_B}*%
X143929100Y-112623600D02*
X138849100Y-107543600D01*
X135801100Y-106781600D02*
X135801100Y-105765600D01*
X135801100Y-105765600D02*
X135039100Y-105003600D01*
X145199100Y-113131600D02*
X144691100Y-112623600D01*
X144691100Y-112623600D02*
X143929100Y-112623600D01*
X135039100Y-105003600D02*
X132499100Y-105003600D01*
X131991100Y-105511600D02*
X131991100Y-106273600D01*
X138849100Y-107543600D02*
X136563100Y-107543600D01*
X145326100Y-115468400D02*
X145199100Y-115087400D01*
X132499100Y-105003600D02*
X131991100Y-105511600D01*
X136563100Y-107543600D02*
X135801100Y-106781600D01*
X145199100Y-115087400D02*
X145199100Y-113131600D01*
%TO.N,/~{ROMH_B}*%
X142786100Y-115468400D02*
X142659100Y-115087400D01*
X136309100Y-108305600D02*
X138595100Y-108305600D01*
X134531100Y-106527600D02*
X136309100Y-108305600D01*
X134531100Y-106273600D02*
X134531100Y-106527600D01*
X142659100Y-115087400D02*
X142659100Y-112369600D01*
X142659100Y-112369600D02*
X138595100Y-108305600D01*
%TO.N,/BA_B*%
X146596100Y-115468400D02*
X146596100Y-117830600D01*
X173139100Y-119862600D02*
X173139100Y-111734600D01*
X171488100Y-121513600D02*
X150279100Y-121513600D01*
X150279100Y-121513600D02*
X146596100Y-117830600D01*
X171488100Y-121513600D02*
X173139100Y-119862600D01*
X170091100Y-108686600D02*
X170091100Y-106273600D01*
X173139100Y-111734600D02*
X170091100Y-108686600D01*
%TO.N,/PHI2_B*%
X125895100Y-111226600D02*
X124371100Y-109702600D01*
X137579100Y-113639600D02*
X135166100Y-111226600D01*
X137706100Y-115468400D02*
X137579100Y-115087400D01*
X135166100Y-111226600D02*
X125895100Y-111226600D01*
X137579100Y-115087400D02*
X137579100Y-113639600D01*
X124371100Y-109702600D02*
X124371100Y-106273600D01*
%TO.N,/~{IRQ_O}*%
X131356100Y-119608600D02*
X131483100Y-119481600D01*
X131356100Y-121412000D02*
X131356100Y-119608600D01*
%TO.N,/~{GAME}*%
X134658100Y-116179600D02*
X133769100Y-115290600D01*
X148755100Y-122656600D02*
X172504100Y-122656600D01*
X173647100Y-108559600D02*
X173647100Y-103225600D01*
X132651500Y-115290600D02*
X132626100Y-115265200D01*
X139103100Y-121386600D02*
X134658100Y-116941600D01*
X172504100Y-122656600D02*
X174663100Y-120497600D01*
X134658100Y-116941600D02*
X134658100Y-116179600D01*
X133769100Y-115290600D02*
X132651500Y-115290600D01*
X147485100Y-121386600D02*
X148755100Y-122656600D01*
X174663100Y-109575600D02*
X173647100Y-108559600D01*
X174663100Y-120497600D02*
X174663100Y-109575600D01*
X147485100Y-121386600D02*
X139103100Y-121386600D01*
%TO.N,/~{EXROM_O}*%
X137960100Y-105003600D02*
X137325100Y-104368600D01*
X144691100Y-106273600D02*
X143421100Y-105003600D01*
X143421100Y-105003600D02*
X137960100Y-105003600D01*
X127546100Y-113512600D02*
X127546100Y-115265200D01*
X127165100Y-113131600D02*
X127546100Y-113512600D01*
X126403100Y-113131600D02*
X127165100Y-113131600D01*
%TO.N,/~{RESET}*%
X126276100Y-119862600D02*
X125895100Y-119481600D01*
X126276100Y-121412000D02*
X126276100Y-119862600D01*
X125895100Y-119481600D02*
X125133100Y-119481600D01*
%TO.N,/~{DMA_O}*%
X135293100Y-115417600D02*
X133007100Y-113131600D01*
X174155100Y-110337600D02*
X174155100Y-120243600D01*
X130975100Y-113131600D02*
X130086100Y-114020600D01*
X133007100Y-113131600D02*
X130975100Y-113131600D01*
X138722100Y-120116600D02*
X135293100Y-116687600D01*
X135293100Y-116687600D02*
X135293100Y-115417600D01*
X147104100Y-120116600D02*
X138722100Y-120116600D01*
X174155100Y-120243600D02*
X172123100Y-122275600D01*
X149263100Y-122275600D02*
X147104100Y-120116600D01*
X172123100Y-122275600D02*
X149263100Y-122275600D01*
X172631100Y-108813600D02*
X174155100Y-110337600D01*
X172631100Y-106273600D02*
X172631100Y-108813600D01*
X130086100Y-114020600D02*
X130086100Y-115265200D01*
%TO.N,/~{IRQ_O}*%
X128816100Y-120116600D02*
X129451100Y-119481600D01*
X128816100Y-121412000D02*
X128816100Y-120116600D01*
%TO.N,/~{BUTTON}*%
X173901100Y-94208600D02*
X175806100Y-96113600D01*
X170522900Y-77368400D02*
X173901100Y-80746600D01*
X173901100Y-80746600D02*
X173901100Y-94208600D01*
X175806100Y-96113600D02*
X175806100Y-104368600D01*
X170522900Y-77343000D02*
X170522900Y-77368400D01*
X175171100Y-106273600D02*
X175171100Y-105003600D01*
X175806100Y-104368600D02*
X175171100Y-105003600D01*
%TO.N,/LED*%
X175171100Y-83667600D02*
X177076100Y-81762600D01*
X175171100Y-91033600D02*
X175171100Y-83667600D01*
%TO.N,/DEBUG*%
X177711100Y-91033600D02*
X177711100Y-89255600D01*
X177076100Y-86842600D02*
X177076100Y-88620600D01*
X177076100Y-88620600D02*
X177711100Y-89255600D01*
D37*
%TO.N,/ETH_R+*%
X132651500Y-85953600D02*
X133896100Y-87198200D01*
X132261100Y-93208600D02*
X130721100Y-91668600D01*
X130086100Y-89128600D02*
X130086100Y-86588600D01*
X132261100Y-93573600D02*
X132261100Y-93208600D01*
X130721100Y-89763600D02*
X130086100Y-89128600D01*
X130721100Y-85953600D02*
X132651500Y-85953600D01*
X130721100Y-91668600D02*
X130721100Y-89763600D01*
X130086100Y-86588600D02*
X130721100Y-85953600D01*
%TO.N,/ETH_R-*%
X132753100Y-89001600D02*
X132753100Y-89382600D01*
X133134100Y-88239600D02*
X132753100Y-88239600D01*
X132118100Y-89636600D02*
X131356100Y-88874600D01*
X134150100Y-88493600D02*
X133388100Y-88493600D01*
X134531100Y-88874600D02*
X134150100Y-88493600D01*
X133261100Y-92303600D02*
X133261100Y-90398600D01*
X132753100Y-89382600D02*
X132499100Y-89636600D01*
X132753100Y-88239600D02*
X132499100Y-88493600D01*
X133261100Y-90398600D02*
X134531100Y-89128600D01*
X132499100Y-88747600D02*
X132753100Y-89001600D01*
X132499100Y-88493600D02*
X132499100Y-88747600D01*
X134531100Y-89128600D02*
X134531100Y-88874600D01*
X134261100Y-93303600D02*
X133261100Y-92303600D01*
X132499100Y-89636600D02*
X132118100Y-89636600D01*
X133388100Y-88493600D02*
X133134100Y-88239600D01*
X134261100Y-93573600D02*
X134261100Y-93303600D01*
X131356100Y-88874600D02*
X131356100Y-87198200D01*
D34*
%TO.N,/ETH_LED*%
X128181100Y-89128600D02*
X127546100Y-88493600D01*
X127546100Y-84429600D02*
X137045700Y-74930000D01*
X131451100Y-95573600D02*
X128181100Y-92303600D01*
X127546100Y-88493600D02*
X127546100Y-84429600D01*
X132261100Y-95573600D02*
X131451100Y-95573600D01*
X128181100Y-92303600D02*
X128181100Y-89128600D01*
D37*
%TO.N,/ETH_T-*%
X135801100Y-95478600D02*
X135801100Y-89128600D01*
X135801100Y-89128600D02*
X135166100Y-88493600D01*
X133388100Y-96621600D02*
X134658100Y-96621600D01*
X132261100Y-97573600D02*
X132436100Y-97573600D01*
X135166100Y-88493600D02*
X135166100Y-84658200D01*
X132436100Y-97573600D02*
X133388100Y-96621600D01*
X134658100Y-96621600D02*
X135801100Y-95478600D01*
%TO.N,/ETH_T+*%
X138595100Y-88239600D02*
X138595100Y-86842600D01*
X134976100Y-97573600D02*
X138341100Y-94208600D01*
X138341100Y-94208600D02*
X138341100Y-88493600D01*
X138341100Y-88493600D02*
X138595100Y-88239600D01*
X138595100Y-86842600D02*
X137706100Y-85953600D01*
X137706100Y-85953600D02*
X137706100Y-84658200D01*
X134261100Y-97573600D02*
X134976100Y-97573600D01*
D38*
%TO.N,*%
X151422100Y-77698600D02*
X155267100Y-77698600D01*
X143421100Y-92303600D02*
X143421100Y-85699600D01*
X125641100Y-103273600D02*
X125641100Y-101320600D01*
X136817100Y-98907600D02*
X143421100Y-92303600D01*
X155267100Y-77698600D02*
X157970200Y-80401700D01*
X143421100Y-85699600D02*
X151422100Y-77698600D01*
X125641100Y-101320600D02*
X128054100Y-98907600D01*
X128054100Y-98907600D02*
X136817100Y-98907600D01*
D37*
X137452100Y-100177600D02*
X143421100Y-94208600D01*
X149136100Y-94208600D02*
X151041100Y-92303600D01*
X155486100Y-80385700D02*
X155470100Y-80401700D01*
X143421100Y-94208600D02*
X149136100Y-94208600D01*
X152184100Y-79730600D02*
X152946100Y-78968600D01*
X155486100Y-79603600D02*
X155486100Y-80385700D01*
X151041100Y-92303600D02*
X151041100Y-83413600D01*
X128181100Y-101828600D02*
X129832100Y-100177600D01*
X128181100Y-103273600D02*
X128181100Y-101828600D01*
X152946100Y-78968600D02*
X154851100Y-78968600D01*
X151041100Y-83413600D02*
X152184100Y-82270600D01*
X152184100Y-82270600D02*
X152184100Y-79730600D01*
X154851100Y-78968600D02*
X155486100Y-79603600D01*
X129832100Y-100177600D02*
X137452100Y-100177600D01*
X155994100Y-87858600D02*
X156629100Y-87223600D01*
X152311100Y-95478600D02*
X153581100Y-94208600D01*
X155994100Y-85953600D02*
X154216100Y-85953600D01*
X138341100Y-101193600D02*
X144056100Y-95478600D01*
X130721100Y-101828600D02*
X131356100Y-101193600D01*
X156629100Y-87223600D02*
X156629100Y-86588600D01*
X144056100Y-95478600D02*
X152311100Y-95478600D01*
X154216100Y-85953600D02*
X153470100Y-85207600D01*
X153470100Y-80401700D02*
X153470100Y-85207600D01*
X156629100Y-86588600D02*
X155994100Y-85953600D01*
X153581100Y-94208600D02*
X153581100Y-88493600D01*
X131356100Y-101193600D02*
X138341100Y-101193600D01*
X153581100Y-88493600D02*
X154216100Y-87858600D01*
X130721100Y-103273600D02*
X130721100Y-101828600D01*
X154216100Y-87858600D02*
X155994100Y-87858600D01*
%TD*%
M02*
