M48
; DRILL file {KiCad (6.0.4)} date Mon Aug 14 23:38:21 2023
; FORMAT={-:-/ absolute / inch / decimal}
; #@! TF.CreationDate,2023-08-14T23:38:21+02:00
; #@! TF.GenerationSoftware,Kicad,Pcbnew,(6.0.4)
; #@! TF.FileFunction,Plated,1,2,PTH
FMAT,2
INCH
; #@! TA.AperFunction,Plated,PTH,ViaDrill
T1C0.0236
; #@! TA.AperFunction,Plated,PTH,ComponentDrill
T2C0.0315
; #@! TA.AperFunction,Plated,PTH,ComponentDrill
T3C0.0350
; #@! TA.AperFunction,Plated,PTH,ComponentDrill
T4C0.0354
; #@! TA.AperFunction,Plated,PTH,ComponentDrill
T5C0.0362
; #@! TA.AperFunction,Plated,PTH,ComponentDrill
T6C0.0394
; #@! TA.AperFunction,Plated,PTH,ComponentDrill
T7C0.0410
; #@! TA.AperFunction,Plated,PTH,ComponentDrill
T8C0.0433
; #@! TA.AperFunction,Plated,PTH,ComponentDrill
T9C0.0630
; #@! TA.AperFunction,Plated,PTH,ComponentDrill
T10C0.0906
%
G90
G05
T1
X4.7915Y-5.009
X4.7915Y-5.069
X4.8465Y-4.784
X4.9215Y-4.459
X4.9265Y-4.704
X4.9615Y-4.274
X4.9715Y-4.959
X4.9765Y-4.454
X5.0715Y-4.959
X5.0965Y-4.704
X5.1465Y-5.029
X5.1715Y-4.884
X5.1765Y-4.704
X5.2865Y-4.994
X5.3265Y-4.444
X5.3715Y-4.824
X5.4065Y-4.109
X5.464Y-5.084
X5.4715Y-4.059
X5.5365Y-4.094
X5.6715Y-4.819
X5.7715Y-4.814
X5.9015Y-4.509
X5.9915Y-4.709
X5.9965Y-3.954
X6.1465Y-4.709
X6.1815Y-4.904
X6.2115Y-4.509
X6.2115Y-4.874
X6.3165Y-4.754
X6.3665Y-4.754
X6.4715Y-4.019
X6.5215Y-4.019
X6.6965Y-3.159
X6.7165Y-4.679
X6.8365Y-4.064
X6.8865Y-4.974
X6.8865Y-5.029
T2
X4.7253Y-3.8334
X4.7253Y-3.9334
X4.7815Y-3.0356
X4.7815Y-3.134
X4.7815Y-3.2856
X4.7815Y-3.384
X5.2072Y-3.6794
X5.2072Y-3.7581
X5.2072Y-3.8369
X5.286Y-3.6794
X5.286Y-3.7581
X5.286Y-3.8369
T3
X5.0715Y-3.433
X5.1215Y-3.333
X5.1715Y-3.433
X5.2215Y-3.333
X5.2715Y-3.433
X5.3215Y-3.333
X5.3715Y-3.433
X5.4215Y-3.333
T4
X6.467Y-2.9236
X6.567Y-2.9236
T5
X5.9434Y-3.1656
X6.0419Y-3.1656
X6.1206Y-3.1656
X6.219Y-3.1656
T6
X6.9705Y-3.2184
X6.9705Y-3.3184
X6.9705Y-3.4184
T7
X4.9975Y-2.95
X5.0975Y-2.883
X5.3955Y-2.95
X5.4955Y-2.882
T8
X4.6966Y-3.5834
X4.6966Y-4.1834
X4.7966Y-3.5834
X4.7966Y-3.6834
X4.7966Y-4.1834
X4.8966Y-3.5834
X4.8966Y-4.1834
X4.9446Y-4.0633
X4.9966Y-3.5834
X4.9966Y-4.1834
X5.0446Y-4.0633
X5.0966Y-3.5834
X5.0966Y-4.1834
X5.1446Y-4.0633
X5.1966Y-3.5834
X5.1966Y-4.1834
X5.2446Y-4.0633
X5.2966Y-3.5834
X5.2966Y-4.1834
X5.3446Y-4.0633
X5.3966Y-3.5834
X5.3966Y-4.1834
X5.4966Y-3.5834
X5.4966Y-4.1834
X5.5966Y-3.5834
X5.5966Y-4.1834
X5.6966Y-3.5834
X5.6966Y-4.1834
X5.7966Y-3.5834
X5.7966Y-4.1834
X5.8966Y-3.5834
X5.8966Y-4.1834
X5.9966Y-3.5834
X5.9966Y-4.1834
X6.0966Y-3.5834
X6.0966Y-4.1834
X6.1966Y-3.5834
X6.1966Y-4.1834
X6.2966Y-3.5834
X6.2966Y-4.1834
X6.3966Y-3.5834
X6.3966Y-4.1834
X6.4966Y-3.5834
X6.4966Y-3.6834
X6.4966Y-3.7834
X6.4966Y-3.8834
X6.4966Y-3.9834
X6.4966Y-4.0834
X6.4966Y-4.1834
X6.5966Y-3.5834
X6.5966Y-4.1834
X6.6966Y-3.5834
X6.6966Y-4.1834
X6.7139Y-2.8671
X6.7139Y-3.0443
X6.7966Y-3.5834
X6.7966Y-4.1834
X6.8966Y-3.5834
X6.8966Y-4.1834
X6.9698Y-2.8671
X6.9698Y-3.0443
X6.9966Y-3.5834
X6.9966Y-4.1834
T9
X4.9365Y-3.203
X5.5565Y-3.203
T10
X5.8226Y-3.0589
X6.3399Y-3.0589
T0
M30
